<svg width="90" height="30" viewBox="0 0 90 30" fill="none" xmlns="http://www.w3.org/2000/svg">
<path d="M22.3482 7.01183C22.2582 6.36095 21.9735 5.81361 21.4938 5.36982C21.0142 4.89645 20.4146 4.52663 19.6952 4.26036C19.0057 3.99408 18.2263 3.80178 17.3569 3.68343C16.5176 3.56509 15.6782 3.50592 14.8388 3.50592C12.1708 3.50592 10.1024 4.1716 8.6335 5.50296C7.49436 6.50888 6.66998 7.85503 6.16036 9.54142C5.65075 11.1982 5.39594 13.003 5.39594 14.9556C5.39594 16.8195 5.65075 18.4615 6.16036 19.8817C6.69996 21.3018 7.41941 22.5 8.31874 23.4763C9.24804 24.4231 10.3422 25.1479 11.6013 25.6509C12.8603 26.1243 14.2393 26.3609 15.7382 26.3609C17.0272 26.3609 18.5111 26.2278 20.1898 25.9615C21.8985 25.6657 23.5023 25.1183 25.0012 24.3195L25.5408 25.2959L24.4616 27.2485C22.9028 28.1953 21.3289 28.8905 19.7401 29.3343C18.1813 29.7781 16.5775 30 14.9288 30C12.6805 30 10.642 29.645 8.81336 28.9349C6.98474 28.2249 5.41093 27.2189 4.09192 25.9172C2.80289 24.5858 1.79865 23.0178 1.07919 21.213C0.359729 19.3787 0 17.3521 0 15.1331C0 13.0621 0.314763 11.1095 0.944289 9.27515C1.60379 7.41124 2.56307 5.79882 3.82212 4.43787C5.11115 3.07692 6.68497 1.99704 8.54357 1.19823C10.4321 0.399408 12.6205 0 15.1086 0C15.7082 0 16.4126 0.0295854 17.222 0.0887562C18.0314 0.118342 18.8858 0.2071 19.7851 0.35503C20.6844 0.473372 21.5837 0.665679 22.4831 0.931951C23.4124 1.16864 24.2967 1.47929 25.1361 1.86391L25.271 2.26331L24.6864 7.18935H22.4831L22.3482 7.01183Z" fill="#373A3C"/>
<path d="M53.2575 3.23965C52.9877 3.41716 52.583 3.7426 52.0434 4.21597C51.5338 4.68935 50.9642 5.25148 50.3347 5.90237C49.7052 6.52367 49.0307 7.20414 48.3112 7.94379C47.6217 8.68343 46.9472 9.39349 46.2877 10.074L43.23 13.2692C44.3692 14.926 45.4633 16.5976 46.5126 18.284C47.5917 19.9408 48.8358 21.5385 50.2447 23.0769C50.8443 23.7574 51.4289 24.3639 51.9984 24.8965C52.598 25.3994 53.2275 25.8432 53.887 26.2278C54.5465 26.5828 55.251 26.8935 56.0004 27.1598C56.7499 27.3965 57.6042 27.5888 58.5635 27.7367L58.8333 27.9142L58.9232 29.6006L58.8333 29.7781C58.3836 29.7781 57.904 29.7781 57.3944 29.7781C56.8848 29.8077 56.3601 29.8373 55.8206 29.8669C55.3109 29.8965 54.8313 29.9112 54.3816 29.9112C53.932 29.9408 53.5573 29.9556 53.2575 29.9556C52.4781 29.9556 51.7586 29.8521 51.0991 29.645C50.4396 29.4675 49.7951 29.1568 49.1656 28.713C48.566 28.2692 47.9515 27.6775 47.3219 26.9379C46.6924 26.1982 46.0029 25.2959 45.2535 24.2308C45.0736 23.9645 44.7589 23.5059 44.3092 22.855C43.8895 22.1746 43.4249 21.4349 42.9153 20.6361C42.4057 19.8373 41.896 19.0385 41.3864 18.2396C40.8768 17.4112 40.4271 16.7012 40.0374 16.1095C39.6777 16.4349 39.318 16.7604 38.9582 17.0858C38.5985 17.3817 38.2538 17.6923 37.924 18.0178V18.3728C37.924 19.6154 37.924 20.5769 37.924 21.2574C37.924 21.9083 37.924 22.4408 37.924 22.855C37.954 23.2396 37.969 23.5651 37.969 23.8314C37.999 24.068 38.0289 24.3787 38.0589 24.7633C38.1189 25.6213 38.2538 26.213 38.4636 26.5385C38.6735 26.8639 38.8983 27.1154 39.1381 27.2929C39.4079 27.5296 39.7526 27.6627 40.1723 27.6923C40.622 27.7219 41.0866 27.7367 41.5663 27.7367L41.7461 27.9142L41.881 29.6006L41.7911 29.7781C41.5813 29.7781 41.2365 29.7633 40.7569 29.7337C40.2773 29.7041 39.7826 29.6746 39.273 29.645C38.7634 29.6154 38.2688 29.5858 37.7891 29.5562C37.3095 29.5266 36.9647 29.5118 36.7549 29.5118H34.1019C33.8921 29.5118 33.5473 29.5266 33.0677 29.5562C32.588 29.5858 32.0934 29.6154 31.5838 29.645C31.0742 29.6746 30.5796 29.7041 30.0999 29.7337C29.6203 29.7633 29.2755 29.7781 29.0657 29.7781L28.9758 29.6006L29.1107 27.9142L29.3355 27.7367C29.8151 27.7367 30.2648 27.7219 30.6845 27.6923C31.1042 27.6331 31.4489 27.5 31.7187 27.2929C31.9585 27.0858 32.1833 26.8195 32.3932 26.4941C32.633 26.1686 32.7829 25.5917 32.8428 24.7633C32.8428 24.5562 32.8428 24.3195 32.8428 24.0533C32.8728 23.7574 32.8878 23.4024 32.8878 22.9882C32.9178 22.574 32.9328 22.071 32.9328 21.4793C32.9328 20.8876 32.9328 20.1479 32.9328 19.2604V12.0266C32.9328 10.9911 32.9328 10.1183 32.9328 9.40828C32.9328 8.69823 32.9328 8.09172 32.9328 7.58876C32.9328 7.0858 32.9178 6.6568 32.8878 6.30178C32.8878 5.94675 32.8728 5.59172 32.8428 5.23669C32.7829 4.43787 32.633 3.86095 32.3932 3.50592C32.1833 3.15089 31.9585 2.88461 31.7187 2.7071C31.4489 2.47041 31.1042 2.33728 30.6845 2.30769C30.2648 2.27811 29.8151 2.26331 29.3355 2.26331L29.1107 2.0858L28.9758 0.399408L29.0657 0.221893C29.2755 0.221893 29.6203 0.236686 30.0999 0.266271C30.5796 0.295857 31.0742 0.325443 31.5838 0.35503C32.0934 0.384616 32.588 0.414201 33.0677 0.443787C33.5473 0.473372 33.8921 0.488165 34.1019 0.488165H36.7549C36.9647 0.488165 37.3095 0.473372 37.7891 0.443787C38.2688 0.414201 38.7634 0.384616 39.273 0.35503C39.7826 0.325443 40.2773 0.295857 40.7569 0.266271C41.2365 0.236686 41.5813 0.221893 41.7911 0.221893L41.881 0.399408L41.7461 2.0858L41.5663 2.26331C41.1466 2.26331 40.6969 2.2929 40.2173 2.35207C39.7676 2.38166 39.4079 2.5 39.1381 2.7071C38.8983 2.9142 38.6585 3.18047 38.4187 3.50592C38.2088 3.83136 38.0889 4.40828 38.0589 5.23669C38.0289 5.59172 37.999 5.94675 37.969 6.30178C37.969 6.62722 37.954 7.02663 37.924 7.5C37.924 7.94379 37.924 8.47633 37.924 9.09763C37.924 9.68935 37.924 10.4142 37.924 11.2722V13.4024C38.5236 13.1065 39.2131 12.6627 39.9925 12.071C40.7719 11.4497 41.5513 10.784 42.3307 10.074C42.9003 9.54142 43.4848 8.9645 44.0844 8.34319C44.6839 7.69231 45.2235 7.07101 45.7032 6.47929C46.2128 5.88757 46.6175 5.35503 46.9173 4.88166C47.217 4.40828 47.3669 4.08284 47.3669 3.90533C47.3669 3.57988 47.292 3.3284 47.1421 3.15089C47.0222 2.94379 46.8423 2.78107 46.6025 2.66272C46.3926 2.54438 46.1378 2.45562 45.8381 2.39645C45.5383 2.33728 45.2385 2.27811 44.9387 2.21894L44.7139 2.04142V0.35503L44.9387 0.177515C45.5383 0.295859 46.1678 0.369823 46.8273 0.399408C47.5168 0.428994 48.2063 0.443787 48.8958 0.443787H52.8978C53.2575 0.443787 53.5573 0.443787 53.7971 0.443787C54.0669 0.443787 54.3217 0.428994 54.5615 0.399408C54.8313 0.369823 55.1161 0.340237 55.4159 0.31065C55.7156 0.281064 56.0754 0.236686 56.495 0.177515L56.6749 0.35503V2.04142L56.495 2.21894C56.0754 2.27811 55.5358 2.39645 54.8763 2.57396C54.2467 2.75148 53.7071 2.97337 53.2575 3.23965Z" fill="#373A3C"/>
<path d="M73.1005 29.7781C72.8607 29.7485 72.516 29.7189 72.0663 29.6894C71.6466 29.6598 71.182 29.6302 70.6724 29.6006C70.1927 29.571 69.7131 29.5414 69.2335 29.5118C68.7838 29.5118 68.3941 29.5118 68.0643 29.5118H65.4113C65.0516 29.5118 64.6319 29.5118 64.1523 29.5118C63.6726 29.5414 63.193 29.571 62.7134 29.6006C62.2337 29.6302 61.7691 29.6598 61.3194 29.6894C60.8997 29.7189 60.585 29.7485 60.3751 29.7781L60.2852 29.6006L60.4201 27.9142L60.6449 27.7367C61.7841 27.7367 62.5635 27.6035 62.9832 27.3373C63.6127 26.9231 64.0024 26.0651 64.1523 24.7633C64.1823 24.2604 64.1973 23.4911 64.1973 22.4556C64.2272 21.3905 64.2422 20.3254 64.2422 19.2604V9.49704C64.2422 8.46154 64.2272 7.64793 64.1973 7.05621C64.1673 6.43491 64.1223 5.8284 64.0623 5.23669C63.9424 4.43787 63.8075 3.86095 63.6577 3.50592C63.5378 3.15089 63.3429 2.86982 63.0731 2.66272C62.8333 2.51479 62.5335 2.41124 62.1738 2.35207C61.844 2.2929 61.3344 2.26331 60.6449 2.26331L60.4201 2.0858L60.2852 0.399408L60.3751 0.221893C61.1545 0.310651 61.919 0.384616 62.6684 0.443787C63.4478 0.473372 64.0623 0.488165 64.512 0.488165H67.9294C68.6189 0.488165 69.3983 0.473372 70.2677 0.443787C71.167 0.414201 71.9464 0.399408 72.6059 0.399408C76.1732 0.399408 78.8712 1.06509 80.6998 2.39645C82.5285 3.69822 83.4428 5.65089 83.4428 8.25444C83.4428 10.1183 82.8882 11.8195 81.779 13.358C80.6998 14.8669 79.081 16.1834 76.9227 17.3077C77.9419 18.8166 78.7963 20.0444 79.4857 20.9911C80.2052 21.9379 80.8197 22.6923 81.3294 23.2544C82.0188 24.0533 82.6633 24.7189 83.2629 25.2515C83.8624 25.784 84.447 26.2278 85.0166 26.5828C85.6161 26.9379 86.2307 27.2041 86.8602 27.3817C87.4897 27.5592 88.1942 27.6775 88.9736 27.7367L89.2434 27.9142L89.3333 29.6006L89.2434 29.7781C88.1043 29.8373 87.115 29.8817 86.2756 29.9112C85.4363 29.9704 84.8217 30 84.432 30C82.8432 30 81.4193 29.571 80.1602 28.713C78.9312 27.8254 77.6122 26.3314 76.2032 24.2308C75.8735 23.7574 75.5137 23.2249 75.124 22.6331C74.7643 22.0414 74.3896 21.4645 73.9999 20.9024C73.6401 20.3107 73.2954 19.7485 72.9657 19.216C72.6359 18.6834 72.3661 18.2249 72.1563 17.8402H69.2335C69.2335 18.8462 69.2335 19.7189 69.2335 20.4586C69.2335 21.1686 69.2335 21.7899 69.2335 22.3225C69.2634 22.855 69.2934 23.3136 69.3234 23.6982C69.3534 24.0828 69.3833 24.4379 69.4133 24.7633C69.5332 26.1243 69.863 26.9822 70.4026 27.3373C70.6124 27.4852 70.8822 27.5888 71.212 27.6479C71.5417 27.7071 72.0963 27.7367 72.8757 27.7367L73.0556 27.9142L73.1905 29.6006L73.1005 29.7781ZM71.5267 14.5562C73.7151 14.5562 75.4238 14.0385 76.6529 13.003C77.9119 11.9675 78.5415 10.5325 78.5415 8.69823C78.5415 7.04142 77.9869 5.84319 76.8777 5.10355C75.7685 4.33432 73.9999 3.9497 71.5717 3.9497H69.4583C69.3684 5.13314 69.3084 6.0503 69.2784 6.70118C69.2485 7.35207 69.2335 7.97337 69.2335 8.56509V12.9142C69.2335 13.5355 69.3084 13.9645 69.4583 14.2012C69.6082 14.4379 69.893 14.5562 70.3126 14.5562H71.5267Z" fill="#373A3C"/>
</svg>
