<svg width="57" height="18" viewBox="0 0 57 18" fill="none" xmlns="http://www.w3.org/2000/svg">
<path d="M24.575 14.112C24.0617 14.112 23.5437 14.0933 23.021 14.056C22.4984 14.028 22.041 13.9627 21.649 13.86V4.438C21.8544 4.40067 22.0737 4.368 22.307 4.34C22.5404 4.30267 22.7784 4.27467 23.021 4.256C23.2637 4.23733 23.5017 4.22333 23.735 4.214C23.9777 4.20467 24.2064 4.2 24.421 4.2C25.009 4.2 25.555 4.24667 26.059 4.34C26.563 4.424 26.997 4.56867 27.361 4.774C27.7344 4.97933 28.0237 5.25 28.229 5.586C28.4344 5.922 28.537 6.33733 28.537 6.832C28.537 7.28933 28.425 7.68133 28.201 8.008C27.9864 8.33467 27.683 8.596 27.291 8.792C27.879 8.988 28.313 9.27733 28.593 9.66C28.873 10.0427 29.013 10.528 29.013 11.116C29.013 12.1147 28.649 12.866 27.921 13.37C27.193 13.8647 26.0777 14.112 24.575 14.112ZM23.385 9.632V12.586C23.581 12.6047 23.791 12.6187 24.015 12.628C24.239 12.6373 24.4444 12.642 24.631 12.642C24.995 12.642 25.331 12.6187 25.639 12.572C25.9564 12.5253 26.227 12.446 26.451 12.334C26.6844 12.2127 26.8664 12.054 26.997 11.858C27.137 11.662 27.207 11.41 27.207 11.102C27.207 10.5513 27.0064 10.1687 26.605 9.954C26.2037 9.73933 25.6484 9.632 24.939 9.632H23.385ZM23.385 8.246H24.631C25.303 8.246 25.8304 8.15267 26.213 7.966C26.5957 7.77 26.787 7.42467 26.787 6.93C26.787 6.46333 26.5864 6.132 26.185 5.936C25.793 5.74 25.2797 5.642 24.645 5.642C24.3744 5.642 24.1317 5.64667 23.917 5.656C23.7117 5.66533 23.5344 5.67933 23.385 5.698V8.246ZM37.1502 14C37.0195 13.6173 36.8842 13.2393 36.7442 12.866C36.6042 12.4927 36.4689 12.11 36.3382 11.718H32.2502C32.1195 12.11 31.9842 12.4973 31.8442 12.88C31.7135 13.2533 31.5829 13.6267 31.4522 14H29.6182C29.9822 12.964 30.3275 12.0073 30.6542 11.13C30.9809 10.2527 31.2982 9.422 31.6062 8.638C31.9235 7.854 32.2362 7.10733 32.5442 6.398C32.8522 5.68867 33.1695 4.98867 33.4962 4.298H35.1622C35.4889 4.98867 35.8062 5.68867 36.1142 6.398C36.4222 7.10733 36.7302 7.854 37.0382 8.638C37.3555 9.422 37.6775 10.2527 38.0042 11.13C38.3402 12.0073 38.6902 12.964 39.0542 14H37.1502ZM34.2942 6.174C34.0795 6.66867 33.8322 7.27067 33.5522 7.98C33.2815 8.68933 32.9969 9.45933 32.6982 10.29H35.8902C35.5915 9.45933 35.3022 8.68467 35.0222 7.966C34.7422 7.24733 34.4995 6.65 34.2942 6.174ZM44.2201 14.21C43.4921 14.21 42.8388 14.098 42.2601 13.874C41.6814 13.65 41.1914 13.3233 40.7901 12.894C40.3888 12.4553 40.0808 11.9233 39.8661 11.298C39.6514 10.6727 39.5441 9.954 39.5441 9.142C39.5441 8.33 39.6654 7.61133 39.9081 6.986C40.1601 6.36067 40.5008 5.83333 40.9301 5.404C41.3594 4.96533 41.8634 4.634 42.4421 4.41C43.0208 4.186 43.6414 4.074 44.3041 4.074C44.7054 4.074 45.0694 4.10667 45.3961 4.172C45.7228 4.228 46.0074 4.29333 46.2501 4.368C46.4928 4.44267 46.6934 4.522 46.8521 4.606C47.0108 4.69 47.1228 4.75067 47.1881 4.788L46.6701 6.23C46.4461 6.09 46.1241 5.95933 45.7041 5.838C45.2934 5.70733 44.8454 5.642 44.3601 5.642C43.9401 5.642 43.5481 5.71667 43.1841 5.866C42.8201 6.006 42.5028 6.22067 42.2321 6.51C41.9708 6.79933 41.7654 7.16333 41.6161 7.602C41.4668 8.04067 41.3921 8.54933 41.3921 9.128C41.3921 9.64133 41.4481 10.1127 41.5601 10.542C41.6814 10.9713 41.8634 11.3447 42.1061 11.662C42.3488 11.97 42.6568 12.2127 43.0301 12.39C43.4034 12.558 43.8514 12.642 44.3741 12.642C44.9994 12.642 45.5081 12.5813 45.9001 12.46C46.2921 12.3293 46.5954 12.208 46.8101 12.096L47.2861 13.538C47.1741 13.6127 47.0201 13.6873 46.8241 13.762C46.6374 13.8367 46.4134 13.9113 46.1521 13.986C45.8908 14.0513 45.5968 14.1027 45.2701 14.14C44.9434 14.1867 44.5934 14.21 44.2201 14.21ZM54.4918 14C54.2492 13.6267 53.9692 13.2347 53.6518 12.824C53.3345 12.4133 52.9985 12.0167 52.6438 11.634C52.2985 11.2513 51.9392 10.8873 51.5658 10.542C51.1925 10.1967 50.8238 9.898 50.4598 9.646V14H48.6958V4.298H50.4598V8.302C50.7678 7.994 51.0898 7.66733 51.4258 7.322C51.7618 6.96733 52.0932 6.61267 52.4198 6.258C52.7558 5.894 53.0732 5.544 53.3718 5.208C53.6705 4.872 53.9412 4.56867 54.1838 4.298H56.2978C55.9898 4.65267 55.6632 5.02133 55.3178 5.404C54.9725 5.78667 54.6178 6.174 54.2538 6.566C53.8898 6.94867 53.5212 7.33133 53.1478 7.714C52.7838 8.09667 52.4245 8.46067 52.0698 8.806C52.4618 9.10467 52.8585 9.45467 53.2598 9.856C53.6705 10.248 54.0718 10.6727 54.4638 11.13C54.8558 11.578 55.2292 12.0493 55.5838 12.544C55.9478 13.0293 56.2792 13.5147 56.5778 14H54.4918Z" fill="#FF321A"/>
<path d="M11.25 13.5L6.75 9L11.25 4.5" stroke="#FF321A" stroke-linecap="round" stroke-linejoin="round"/>
</svg>
