<svg width="158" height="20" viewBox="0 0 158 20" fill="none" xmlns="http://www.w3.org/2000/svg">
<path d="M11.0319 11.314L8.64143 4.66221L6.51819 11.314H11.0319ZM5.87973 13.2442L4.52858 17.3125C4.4296 17.6194 4.54343 17.8421 4.87008 17.9807C5.20663 18.1193 5.78075 18.2331 6.59243 18.3222V19.5546H0V18.3222C0.673101 18.2034 1.18288 18.0797 1.52932 17.951C1.87577 17.8223 2.09849 17.6095 2.19748 17.3125L7.27543 1.78174C7.54269 1.55407 7.83469 1.35115 8.15145 1.17298C8.4781 0.984905 8.8097 0.81663 9.14625 0.668151C9.4828 0.519673 9.8144 0.390992 10.1411 0.282108C10.4776 0.173224 10.7944 0.0791883 11.0913 0L17.3274 17.3125C17.3769 17.4511 17.4363 17.5749 17.5056 17.6837C17.5848 17.7926 17.6887 17.8867 17.8174 17.9658C17.956 18.045 18.1292 18.1143 18.337 18.1737C18.5449 18.2331 18.8072 18.2826 19.124 18.3222V19.5546H11.3734V18.3222C12.1356 18.2826 12.6503 18.1886 12.9176 18.0401C13.1948 17.8817 13.2789 17.6392 13.17 17.3125L11.7149 13.2442H5.87973Z" fill="#373A3C"/>
<path d="M30.4826 11.314L28.0921 4.66221L25.9688 11.314H30.4826ZM25.3304 13.2442L23.9792 17.3125C23.8802 17.6194 23.9941 17.8421 24.3207 17.9807C24.6573 18.1193 25.2314 18.2331 26.0431 18.3222V19.5546H19.4506V18.3222C20.1237 18.2034 20.6335 18.0797 20.98 17.951C21.3264 17.8223 21.5491 17.6095 21.6481 17.3125L26.7261 1.78174C26.9933 1.55407 27.2853 1.35115 27.6021 1.17298C27.9287 0.984905 28.2603 0.81663 28.5969 0.668151C28.9334 0.519673 29.265 0.390992 29.5917 0.282108C29.9282 0.173224 30.245 0.0791883 30.5419 0L36.778 17.3125C36.8275 17.4511 36.8869 17.5749 36.9562 17.6837C37.0354 17.7926 37.1393 17.8867 37.268 17.9658C37.4066 18.045 37.5798 18.1143 37.7877 18.1737C37.9955 18.2331 38.2579 18.2826 38.5746 18.3222V19.5546H30.8241V18.3222C31.5862 18.2826 32.101 18.1886 32.3682 18.0401C32.6454 17.8817 32.7295 17.6392 32.6206 17.3125L31.1656 13.2442H25.3304Z" fill="#373A3C"/>
<path d="M55.0557 16.4217C53.7887 17.6986 52.5316 18.6142 51.2843 19.1685C50.047 19.7228 48.8443 20 47.6763 20C46.6469 20 45.6471 19.7921 44.6771 19.3764C43.7169 18.9607 42.8607 18.3618 42.1084 17.5798C41.366 16.7978 40.7671 15.8426 40.3118 14.7142C39.8664 13.5758 39.6437 12.289 39.6437 10.8537C39.6437 9.26998 39.8862 7.83469 40.3712 6.54788C40.8661 5.26107 41.5392 4.16234 42.3905 3.25167C43.2517 2.33111 44.2663 1.62336 45.4343 1.12843C46.6023 0.633507 47.8693 0.390992 49.2353 0.400891C49.7699 0.400891 50.3093 0.440485 50.8538 0.519673C51.3982 0.598862 51.9178 0.707746 52.4128 0.846325C52.9077 0.975006 53.3581 1.12843 53.7639 1.30661C54.1797 1.48478 54.5162 1.6778 54.7736 1.88567C54.8132 1.91537 54.8082 2.01435 54.7587 2.18263C54.7191 2.3509 54.6498 2.55877 54.5509 2.80624C54.4519 3.0438 54.338 3.30611 54.2094 3.59317C54.0807 3.87033 53.947 4.13759 53.8085 4.39495C53.6798 4.65231 53.5561 4.87998 53.4373 5.07795C53.3185 5.27592 53.2195 5.4145 53.1403 5.49369L52.0267 5.25612C51.5318 4.25637 50.9626 3.54368 50.3192 3.11804C49.6857 2.6825 49.0077 2.46969 48.2851 2.47958C47.7803 2.47958 47.2655 2.59837 46.7409 2.83593C46.2163 3.0735 45.7412 3.48924 45.3155 4.08315C44.8899 4.67706 44.5434 5.47884 44.2762 6.48849C44.0089 7.48825 43.8753 8.76021 43.8753 10.3044C43.8753 11.5516 44.0337 12.6206 44.3504 13.5115C44.6672 14.3925 45.078 15.1151 45.5828 15.6793C46.0876 16.2435 46.6568 16.6592 47.2903 16.9265C47.9238 17.1938 48.5573 17.3274 49.1908 17.3274C49.4581 17.3274 49.7748 17.3026 50.1411 17.2532C50.5073 17.1938 50.9032 17.0898 51.3289 16.9414C51.7644 16.7929 52.2247 16.59 52.7097 16.3326C53.2047 16.0653 53.7045 15.7238 54.2094 15.3081C54.2589 15.3477 54.3232 15.4219 54.4024 15.5308C54.4915 15.6397 54.5756 15.7585 54.6548 15.8872C54.7439 16.0059 54.8231 16.1198 54.8924 16.2287C54.9715 16.3276 55.026 16.392 55.0557 16.4217Z" fill="#373A3C"/>
<path d="M56.6889 19.5546V18.3222C57.362 18.1836 57.8619 18.0351 58.1886 17.8768C58.5251 17.7085 58.6934 17.5551 58.6934 17.4165V2.52413L56.6889 2.80624L56.4811 1.29176C57.56 1.06409 58.7577 0.861173 60.0742 0.682999C61.3907 0.494927 62.7815 0.400891 64.2465 0.400891C65.6521 0.400891 66.8448 0.514724 67.8248 0.74239C68.8048 0.970057 69.5966 1.28681 70.2004 1.69265C70.8142 2.09849 71.2546 2.57857 71.5219 3.13289C71.7991 3.67731 71.9376 4.26627 71.9376 4.89978C71.9376 5.57288 71.8337 6.19649 71.6258 6.7706C71.4279 7.33482 71.1458 7.84954 70.7795 8.31477C70.4232 8.77011 69.9876 9.17595 69.4729 9.53229C68.9681 9.87874 68.4088 10.1609 67.7951 10.3786L72.5464 16.5999C72.7048 16.8077 72.8483 16.976 72.977 17.1047C73.1156 17.2334 73.264 17.3323 73.4224 17.4016C73.5907 17.461 73.7837 17.4957 74.0015 17.5056C74.2292 17.5155 74.5113 17.5056 74.8478 17.4759L75.0854 18.7082C74.7587 18.8171 74.3727 18.9359 73.9273 19.0646C73.4917 19.1834 73.0562 19.2972 72.6206 19.4061C72.195 19.5051 71.7941 19.5892 71.418 19.6585C71.0418 19.7278 70.7597 19.7624 70.5716 19.7624C70.2846 19.7624 70.0025 19.6832 69.7253 19.5249C69.4581 19.3665 69.2551 19.1735 69.1166 18.9458L64.9295 10.928C64.8503 10.9379 64.7662 10.9428 64.6771 10.9428H64.4247C64.1673 10.9428 63.9099 10.9329 63.6526 10.9131C63.3952 10.8834 63.1279 10.8389 62.8508 10.7795V17.4165C62.8508 17.5353 63.0042 17.6837 63.3111 17.8619C63.6179 18.0302 64.1326 18.1836 64.8552 18.3222V19.5546H56.6889ZM63.5486 2.09354C63.4397 2.09354 63.3259 2.09849 63.2071 2.10839C63.0982 2.10839 62.9795 2.10839 62.8508 2.10839V8.99777C63.118 9.04727 63.3507 9.07696 63.5486 9.08686C63.7466 9.09676 63.9545 9.10171 64.1722 9.10171C64.8057 9.10171 65.3452 9.01757 65.7906 8.84929C66.2361 8.67112 66.5974 8.42366 66.8745 8.1069C67.1616 7.78025 67.3695 7.38926 67.4981 6.93393C67.6367 6.4687 67.706 5.94407 67.706 5.36006C67.706 4.93442 67.6466 4.52363 67.5278 4.12769C67.419 3.73175 67.2061 3.3853 66.8894 3.08834C66.5825 2.78149 66.1569 2.53898 65.6125 2.3608C65.078 2.18263 64.39 2.09354 63.5486 2.09354Z" fill="#373A3C"/>
<path d="M85.9837 11.314L83.5932 4.66221L81.4699 11.314H85.9837ZM80.8315 13.2442L79.4803 17.3125C79.3813 17.6194 79.4952 17.8421 79.8218 17.9807C80.1584 18.1193 80.7325 18.2331 81.5442 18.3222V19.5546H74.9518V18.3222C75.6248 18.2034 76.1346 18.0797 76.4811 17.951C76.8275 17.8223 77.0502 17.6095 77.1492 17.3125L82.2272 1.78174C82.4944 1.55407 82.7864 1.35115 83.1032 1.17298C83.4298 0.984905 83.7615 0.81663 84.098 0.668151C84.4345 0.519673 84.7662 0.390992 85.0928 0.282108C85.4294 0.173224 85.7461 0.0791883 86.0431 0L92.2791 17.3125C92.3286 17.4511 92.388 17.5749 92.4573 17.6837C92.5365 17.7926 92.6404 17.8867 92.7691 17.9658C92.9077 18.045 93.0809 18.1143 93.2888 18.1737C93.4967 18.2331 93.759 18.2826 94.0757 18.3222V19.5546H86.3252V18.3222C87.0874 18.2826 87.6021 18.1886 87.8693 18.0401C88.1465 17.8817 88.2306 17.6392 88.1218 17.3125L86.6667 13.2442H80.8315Z" fill="#373A3C"/>
<path d="M104.647 11.2992C104.618 11.4081 104.568 11.5466 104.499 11.7149C104.43 11.8832 104.355 12.0564 104.276 12.2346C104.197 12.4128 104.123 12.581 104.053 12.7394C103.984 12.8978 103.93 13.0166 103.89 13.0958H95.6644L95.1448 12.5909C95.1745 12.4821 95.219 12.3484 95.2784 12.1901C95.3477 12.0218 95.417 11.8535 95.4863 11.6852C95.5655 11.5071 95.6397 11.3388 95.709 11.1804C95.7882 11.022 95.8525 10.8933 95.902 10.7944H104.128L104.647 11.2992Z" fill="#373A3C"/>
<path d="M113.779 5.30067L109.295 12.4276H113.779V5.30067ZM120 12.8731C119.891 13.0314 119.767 13.1997 119.629 13.3779C119.49 13.5462 119.347 13.7144 119.198 13.8827C119.05 14.0411 118.901 14.1896 118.753 14.3281C118.614 14.4568 118.49 14.5657 118.382 14.6548H117.639V17.4165C117.639 17.4957 117.669 17.5699 117.728 17.6392C117.788 17.6986 117.897 17.7679 118.055 17.8471C118.213 17.9164 118.426 17.9906 118.693 18.0698C118.961 18.149 119.297 18.2331 119.703 18.3222V19.5546H110.661V18.3222C111.304 18.2133 111.829 18.1143 112.235 18.0252C112.64 17.9263 112.957 17.8372 113.185 17.758C113.413 17.6689 113.566 17.5848 113.645 17.5056C113.734 17.4264 113.779 17.3422 113.779 17.2532V14.6548H106.845L106.206 14.0163L113.274 2.27171C113.521 2.19253 113.804 2.10344 114.12 2.00445C114.447 1.89557 114.779 1.78669 115.115 1.6778C115.452 1.56892 115.778 1.46498 116.095 1.366C116.422 1.25711 116.704 1.15813 116.941 1.06904L117.639 1.73719V12.4276H119.614L120 12.8731Z" fill="#373A3C"/>
<path d="M121.752 19.5546V18.3222C122.425 18.1836 122.925 18.0351 123.252 17.8768C123.588 17.7085 123.757 17.5551 123.757 17.4165V2.99926C123.757 2.88048 123.598 2.732 123.281 2.55382C122.975 2.37565 122.465 2.21727 121.752 2.07869V0.846325H129.918V2.07869C129.245 2.21727 128.74 2.3707 128.404 2.53898C128.077 2.70725 127.914 2.86068 127.914 2.99926V8.7899H135.189V2.99926C135.189 2.88048 135.031 2.732 134.714 2.55382C134.407 2.37565 133.898 2.21727 133.185 2.07869V0.846325H141.351V2.07869C140.678 2.21727 140.173 2.3707 139.837 2.53898C139.51 2.70725 139.347 2.86068 139.347 2.99926V17.4165C139.347 17.5353 139.5 17.6837 139.807 17.8619C140.124 18.0302 140.638 18.1836 141.351 18.3222V19.5546H133.185V18.3222C133.858 18.1836 134.358 18.0351 134.684 17.8768C135.021 17.7085 135.189 17.5551 135.189 17.4165V10.7201H127.914V17.4165C127.914 17.5353 128.067 17.6837 128.374 17.8619C128.681 18.0302 129.196 18.1836 129.918 18.3222V19.5546H121.752Z" fill="#373A3C"/>
<path d="M157.892 14.7439C157.852 15.1695 157.807 15.6347 157.758 16.1396C157.708 16.6345 157.654 17.1146 157.595 17.5798C157.535 18.0351 157.476 18.441 157.416 18.7973C157.367 19.1537 157.322 19.4061 157.283 19.5546H142.836V18.3222C143.509 18.1836 144.009 18.0351 144.336 17.8768C144.672 17.7085 144.84 17.5551 144.84 17.4165V2.99926C144.84 2.88048 144.682 2.732 144.365 2.55382C144.058 2.37565 143.549 2.21727 142.836 2.07869V0.846325H156.288L156.927 1.366C156.907 1.62336 156.877 1.95991 156.837 2.37565C156.798 2.79139 156.748 3.21703 156.689 3.65256C156.63 4.0881 156.565 4.49889 156.496 4.88493C156.437 5.27097 156.377 5.55803 156.318 5.7461H155.056C155.006 4.82554 154.882 4.10294 154.684 3.57832C154.487 3.0438 154.204 2.77654 153.838 2.77654H148.998V8.64143H154.863L155.397 9.20564C155.318 9.34422 155.219 9.50755 155.1 9.69562C154.991 9.88369 154.873 10.0767 154.744 10.2747C154.625 10.4628 154.501 10.636 154.373 10.7944C154.254 10.9527 154.14 11.0715 154.031 11.1507C153.883 11.0022 153.719 10.8785 153.541 10.7795C153.373 10.6805 153.175 10.5964 152.947 10.5271C152.73 10.4578 152.467 10.4083 152.16 10.3786C151.863 10.3489 151.507 10.3341 151.091 10.3341H148.998V16.6741C148.998 16.8226 149.032 16.9562 149.102 17.075C149.171 17.1839 149.315 17.2829 149.532 17.3719C149.75 17.4511 150.057 17.5155 150.453 17.565C150.849 17.6046 151.373 17.6243 152.027 17.6243H153.348C153.804 17.6243 154.19 17.565 154.506 17.4462C154.833 17.3175 155.12 17.1195 155.367 16.8523C155.615 16.585 155.838 16.2435 156.036 15.8278C156.244 15.412 156.451 14.9122 156.659 14.3281L157.892 14.7439Z" fill="#373A3C"/>
</svg>
