<svg width="287" height="96" viewBox="0 0 287 96" fill="none" xmlns="http://www.w3.org/2000/svg">
<path d="M38.4141 17.8594L34.6406 7.35938L31.2891 17.8594H38.4141ZM30.2812 20.9062L28.1484 27.3281C27.9922 27.8125 28.1719 28.1641 28.6875 28.3828C29.2188 28.6016 30.125 28.7812 31.4062 28.9219V30.8672H21V28.9219C22.0625 28.7344 22.8672 28.5391 23.4141 28.3359C23.9609 28.1328 24.3125 27.7969 24.4688 27.3281L32.4844 2.8125C32.9062 2.45312 33.3672 2.13281 33.8672 1.85156C34.3828 1.55469 34.9062 1.28906 35.4375 1.05469C35.9688 0.820312 36.4922 0.617188 37.0078 0.445312C37.5391 0.273438 38.0391 0.125 38.5078 0L48.3516 27.3281C48.4297 27.5469 48.5234 27.7422 48.6328 27.9141C48.7578 28.0859 48.9219 28.2344 49.125 28.3594C49.3438 28.4844 49.6172 28.5938 49.9453 28.6875C50.2734 28.7812 50.6875 28.8594 51.1875 28.9219V30.8672H38.9531V28.9219C40.1562 28.8594 40.9688 28.7109 41.3906 28.4766C41.8281 28.2266 41.9609 27.8438 41.7891 27.3281L39.4922 20.9062H30.2812Z" fill="white"/>
<path d="M69.1172 17.8594L65.3438 7.35938L61.9922 17.8594H69.1172ZM60.9844 20.9062L58.8516 27.3281C58.6953 27.8125 58.875 28.1641 59.3906 28.3828C59.9219 28.6016 60.8281 28.7812 62.1094 28.9219V30.8672H51.7031V28.9219C52.7656 28.7344 53.5703 28.5391 54.1172 28.3359C54.6641 28.1328 55.0156 27.7969 55.1719 27.3281L63.1875 2.8125C63.6094 2.45312 64.0703 2.13281 64.5703 1.85156C65.0859 1.55469 65.6094 1.28906 66.1406 1.05469C66.6719 0.820312 67.1953 0.617188 67.7109 0.445312C68.2422 0.273438 68.7422 0.125 69.2109 0L79.0547 27.3281C79.1328 27.5469 79.2266 27.7422 79.3359 27.9141C79.4609 28.0859 79.625 28.2344 79.8281 28.3594C80.0469 28.4844 80.3203 28.5938 80.6484 28.6875C80.9766 28.7812 81.3906 28.8594 81.8906 28.9219V30.8672H69.6562V28.9219C70.8594 28.8594 71.6719 28.7109 72.0938 28.4766C72.5312 28.2266 72.6641 27.8438 72.4922 27.3281L70.1953 20.9062H60.9844Z" fill="white"/>
<path d="M107.906 25.9219C105.906 27.9375 103.922 29.3828 101.953 30.2578C100 31.1328 98.1016 31.5703 96.2578 31.5703C94.6328 31.5703 93.0547 31.2422 91.5234 30.5859C90.0078 29.9297 88.6562 28.9844 87.4688 27.75C86.2969 26.5156 85.3516 25.0078 84.6328 23.2266C83.9297 21.4297 83.5781 19.3984 83.5781 17.1328C83.5781 14.6328 83.9609 12.3672 84.7266 10.3359C85.5078 8.30469 86.5703 6.57031 87.9141 5.13281C89.2734 3.67969 90.875 2.5625 92.7188 1.78125C94.5625 1 96.5625 0.617188 98.7188 0.632812C99.5625 0.632812 100.414 0.695312 101.273 0.820312C102.133 0.945312 102.953 1.11719 103.734 1.33594C104.516 1.53906 105.227 1.78125 105.867 2.0625C106.523 2.34375 107.055 2.64844 107.461 2.97656C107.523 3.02344 107.516 3.17969 107.438 3.44531C107.375 3.71094 107.266 4.03906 107.109 4.42969C106.953 4.80469 106.773 5.21875 106.57 5.67188C106.367 6.10938 106.156 6.53125 105.938 6.9375C105.734 7.34375 105.539 7.70312 105.352 8.01562C105.164 8.32812 105.008 8.54688 104.883 8.67188L103.125 8.29688C102.344 6.71875 101.445 5.59375 100.43 4.92188C99.4297 4.23438 98.3594 3.89844 97.2188 3.91406C96.4219 3.91406 95.6094 4.10156 94.7812 4.47656C93.9531 4.85156 93.2031 5.50781 92.5312 6.44531C91.8594 7.38281 91.3125 8.64844 90.8906 10.2422C90.4688 11.8203 90.2578 13.8281 90.2578 16.2656C90.2578 18.2344 90.5078 19.9219 91.0078 21.3281C91.5078 22.7188 92.1562 23.8594 92.9531 24.75C93.75 25.6406 94.6484 26.2969 95.6484 26.7188C96.6484 27.1406 97.6484 27.3516 98.6484 27.3516C99.0703 27.3516 99.5703 27.3125 100.148 27.2344C100.727 27.1406 101.352 26.9766 102.023 26.7422C102.711 26.5078 103.438 26.1875 104.203 25.7812C104.984 25.3594 105.773 24.8203 106.57 24.1641C106.648 24.2266 106.75 24.3438 106.875 24.5156C107.016 24.6875 107.148 24.875 107.273 25.0781C107.414 25.2656 107.539 25.4453 107.648 25.6172C107.773 25.7734 107.859 25.875 107.906 25.9219Z" fill="white"/>
<path d="M110.484 30.8672V28.9219C111.547 28.7031 112.336 28.4688 112.852 28.2188C113.383 27.9531 113.648 27.7109 113.648 27.4922V3.98438L110.484 4.42969L110.156 2.03906C111.859 1.67969 113.75 1.35938 115.828 1.07812C117.906 0.78125 120.102 0.632812 122.414 0.632812C124.633 0.632812 126.516 0.8125 128.062 1.17188C129.609 1.53125 130.859 2.03125 131.812 2.67188C132.781 3.3125 133.477 4.07031 133.898 4.94531C134.336 5.80469 134.555 6.73438 134.555 7.73438C134.555 8.79688 134.391 9.78125 134.062 10.6875C133.75 11.5781 133.305 12.3906 132.727 13.125C132.164 13.8438 131.477 14.4844 130.664 15.0469C129.867 15.5938 128.984 16.0391 128.016 16.3828L135.516 26.2031C135.766 26.5312 135.992 26.7969 136.195 27C136.414 27.2031 136.648 27.3594 136.898 27.4688C137.164 27.5625 137.469 27.6172 137.812 27.6328C138.172 27.6484 138.617 27.6328 139.148 27.5859L139.523 29.5312C139.008 29.7031 138.398 29.8906 137.695 30.0938C137.008 30.2812 136.32 30.4609 135.633 30.6328C134.961 30.7891 134.328 30.9219 133.734 31.0312C133.141 31.1406 132.695 31.1953 132.398 31.1953C131.945 31.1953 131.5 31.0703 131.062 30.8203C130.641 30.5703 130.32 30.2656 130.102 29.9062L123.492 17.25C123.367 17.2656 123.234 17.2734 123.094 17.2734H122.695C122.289 17.2734 121.883 17.2578 121.477 17.2266C121.07 17.1797 120.648 17.1094 120.211 17.0156V27.4922C120.211 27.6797 120.453 27.9141 120.938 28.1953C121.422 28.4609 122.234 28.7031 123.375 28.9219V30.8672H110.484ZM121.312 3.30469C121.141 3.30469 120.961 3.3125 120.773 3.32812C120.602 3.32812 120.414 3.32812 120.211 3.32812V14.2031C120.633 14.2812 121 14.3281 121.312 14.3438C121.625 14.3594 121.953 14.3672 122.297 14.3672C123.297 14.3672 124.148 14.2344 124.852 13.9688C125.555 13.6875 126.125 13.2969 126.562 12.7969C127.016 12.2812 127.344 11.6641 127.547 10.9453C127.766 10.2109 127.875 9.38281 127.875 8.46094C127.875 7.78906 127.781 7.14062 127.594 6.51562C127.422 5.89062 127.086 5.34375 126.586 4.875C126.102 4.39062 125.43 4.00781 124.57 3.72656C123.727 3.44531 122.641 3.30469 121.312 3.30469Z" fill="white"/>
<path d="M156.727 17.8594L152.953 7.35938L149.602 17.8594H156.727ZM148.594 20.9062L146.461 27.3281C146.305 27.8125 146.484 28.1641 147 28.3828C147.531 28.6016 148.438 28.7812 149.719 28.9219V30.8672H139.312V28.9219C140.375 28.7344 141.18 28.5391 141.727 28.3359C142.273 28.1328 142.625 27.7969 142.781 27.3281L150.797 2.8125C151.219 2.45312 151.68 2.13281 152.18 1.85156C152.695 1.55469 153.219 1.28906 153.75 1.05469C154.281 0.820312 154.805 0.617188 155.32 0.445312C155.852 0.273438 156.352 0.125 156.82 0L166.664 27.3281C166.742 27.5469 166.836 27.7422 166.945 27.9141C167.07 28.0859 167.234 28.2344 167.438 28.3594C167.656 28.4844 167.93 28.5938 168.258 28.6875C168.586 28.7812 169 28.8594 169.5 28.9219V30.8672H157.266V28.9219C158.469 28.8594 159.281 28.7109 159.703 28.4766C160.141 28.2266 160.273 27.8438 160.102 27.3281L157.805 20.9062H148.594Z" fill="white"/>
<path d="M186.188 17.8359C186.141 18.0078 186.062 18.2266 185.953 18.4922C185.844 18.7578 185.727 19.0312 185.602 19.3125C185.477 19.5938 185.359 19.8594 185.25 20.1094C185.141 20.3594 185.055 20.5469 184.992 20.6719H172.008L171.188 19.875C171.234 19.7031 171.305 19.4922 171.398 19.2422C171.508 18.9766 171.617 18.7109 171.727 18.4453C171.852 18.1641 171.969 17.8984 172.078 17.6484C172.203 17.3984 172.305 17.1953 172.383 17.0391H185.367L186.188 17.8359Z" fill="white"/>
<path d="M200.602 8.36719L193.523 19.6172H200.602V8.36719ZM210.422 20.3203C210.25 20.5703 210.055 20.8359 209.836 21.1172C209.617 21.3828 209.391 21.6484 209.156 21.9141C208.922 22.1641 208.688 22.3984 208.453 22.6172C208.234 22.8203 208.039 22.9922 207.867 23.1328H206.695V27.4922C206.695 27.6172 206.742 27.7344 206.836 27.8438C206.93 27.9375 207.102 28.0469 207.352 28.1719C207.602 28.2812 207.938 28.3984 208.359 28.5234C208.781 28.6484 209.312 28.7812 209.953 28.9219V30.8672H195.68V28.9219C196.695 28.75 197.523 28.5938 198.164 28.4531C198.805 28.2969 199.305 28.1562 199.664 28.0312C200.023 27.8906 200.266 27.7578 200.391 27.6328C200.531 27.5078 200.602 27.375 200.602 27.2344V23.1328H189.656L188.648 22.125L199.805 3.58594C200.195 3.46094 200.641 3.32031 201.141 3.16406C201.656 2.99219 202.18 2.82031 202.711 2.64844C203.242 2.47656 203.758 2.3125 204.258 2.15625C204.773 1.98438 205.219 1.82812 205.594 1.6875L206.695 2.74219V19.6172H209.812L210.422 20.3203Z" fill="white"/>
<path d="M213.188 30.8672V28.9219C214.25 28.7031 215.039 28.4688 215.555 28.2188C216.086 27.9531 216.352 27.7109 216.352 27.4922V4.73438C216.352 4.54688 216.102 4.3125 215.602 4.03125C215.117 3.75 214.312 3.5 213.188 3.28125V1.33594H226.078V3.28125C225.016 3.5 224.219 3.74219 223.688 4.00781C223.172 4.27344 222.914 4.51562 222.914 4.73438V13.875H234.398V4.73438C234.398 4.54688 234.148 4.3125 233.648 4.03125C233.164 3.75 232.359 3.5 231.234 3.28125V1.33594H244.125V3.28125C243.062 3.5 242.266 3.74219 241.734 4.00781C241.219 4.27344 240.961 4.51562 240.961 4.73438V27.4922C240.961 27.6797 241.203 27.9141 241.688 28.1953C242.188 28.4609 243 28.7031 244.125 28.9219V30.8672H231.234V28.9219C232.297 28.7031 233.086 28.4688 233.602 28.2188C234.133 27.9531 234.398 27.7109 234.398 27.4922V16.9219H222.914V27.4922C222.914 27.6797 223.156 27.9141 223.641 28.1953C224.125 28.4609 224.938 28.7031 226.078 28.9219V30.8672H213.188Z" fill="white"/>
<path d="M270.234 23.2734C270.172 23.9453 270.102 24.6797 270.023 25.4766C269.945 26.2578 269.859 27.0156 269.766 27.75C269.672 28.4688 269.578 29.1094 269.484 29.6719C269.406 30.2344 269.336 30.6328 269.273 30.8672H246.469V28.9219C247.531 28.7031 248.32 28.4688 248.836 28.2188C249.367 27.9531 249.633 27.7109 249.633 27.4922V4.73438C249.633 4.54688 249.383 4.3125 248.883 4.03125C248.398 3.75 247.594 3.5 246.469 3.28125V1.33594H267.703L268.711 2.15625C268.68 2.5625 268.633 3.09375 268.57 3.75C268.508 4.40625 268.43 5.07812 268.336 5.76562C268.242 6.45312 268.141 7.10156 268.031 7.71094C267.938 8.32031 267.844 8.77344 267.75 9.07031H265.758C265.68 7.61719 265.484 6.47656 265.172 5.64844C264.859 4.80469 264.414 4.38281 263.836 4.38281H256.195V13.6406H265.453L266.297 14.5312C266.172 14.75 266.016 15.0078 265.828 15.3047C265.656 15.6016 265.469 15.9062 265.266 16.2188C265.078 16.5156 264.883 16.7891 264.68 17.0391C264.492 17.2891 264.312 17.4766 264.141 17.6016C263.906 17.3672 263.648 17.1719 263.367 17.0156C263.102 16.8594 262.789 16.7266 262.43 16.6172C262.086 16.5078 261.672 16.4297 261.188 16.3828C260.719 16.3359 260.156 16.3125 259.5 16.3125H256.195V26.3203C256.195 26.5547 256.25 26.7656 256.359 26.9531C256.469 27.125 256.695 27.2812 257.039 27.4219C257.383 27.5469 257.867 27.6484 258.492 27.7266C259.117 27.7891 259.945 27.8203 260.977 27.8203H263.062C263.781 27.8203 264.391 27.7266 264.891 27.5391C265.406 27.3359 265.859 27.0234 266.25 26.6016C266.641 26.1797 266.992 25.6406 267.305 24.9844C267.633 24.3281 267.961 23.5391 268.289 22.6172L270.234 23.2734Z" fill="white"/>
<path d="M6.9834 65.1211L5.47168 60.7441L4.03027 65.1211H6.9834ZM3.74023 66L2.80859 68.8037C2.75 68.9854 2.82617 69.1172 3.03711 69.1992C3.24805 69.2812 3.59375 69.3486 4.07422 69.4014V69.8672H0.356445V69.4014C0.754883 69.3311 1.06836 69.2578 1.29688 69.1816C1.52539 69.1055 1.66895 68.9795 1.72754 68.8037L4.92676 59.083C5.11426 58.9072 5.33105 58.752 5.57715 58.6172C5.8291 58.4824 6.05762 58.374 6.2627 58.292L9.9541 68.8037C9.9834 68.8857 10.0215 68.959 10.0684 69.0234C10.1211 69.0879 10.1914 69.1436 10.2793 69.1904C10.3672 69.2373 10.4756 69.2783 10.6045 69.3135C10.7393 69.3486 10.9004 69.3779 11.0879 69.4014V69.8672H7.15918V69.4014C7.61621 69.3721 7.92969 69.3135 8.09961 69.2256C8.26953 69.1377 8.32227 68.9971 8.25781 68.8037L7.29102 66H3.74023Z" fill="white"/>
<path d="M18.6729 57.0879C18.6729 57.1523 18.623 57.2402 18.5234 57.3516C18.4297 57.4629 18.3154 57.5771 18.1807 57.6943C18.0518 57.8115 17.917 57.9229 17.7764 58.0283C17.6416 58.1279 17.5303 58.1982 17.4424 58.2393C17.1611 57.958 16.8828 57.7529 16.6074 57.624C16.3379 57.4951 16.1182 57.4307 15.9482 57.4307C15.7959 57.4307 15.6377 57.4805 15.4736 57.5801C15.3154 57.6797 15.1689 57.8613 15.0342 58.125C14.8994 58.3828 14.7881 58.7402 14.7002 59.1973C14.6123 59.6484 14.5684 60.2285 14.5684 60.9375V61.6934H16.8096L17.0908 61.9658C17.0381 62.0537 16.9707 62.1475 16.8887 62.2471C16.8125 62.3467 16.7334 62.4404 16.6514 62.5283C16.5752 62.6162 16.499 62.6953 16.4229 62.7656C16.3467 62.8359 16.2822 62.8887 16.2295 62.9238C16.0947 62.8535 15.9014 62.7861 15.6494 62.7217C15.3975 62.6514 15.0371 62.6162 14.5684 62.6162V68.8828C14.5684 68.918 14.5977 68.9531 14.6562 68.9883C14.7207 69.0234 14.8232 69.0615 14.9639 69.1025C15.1045 69.1377 15.2891 69.1816 15.5176 69.2344C15.752 69.2812 16.042 69.3369 16.3877 69.4014V69.8672H11.7822V69.4014C12.1865 69.3311 12.4883 69.2461 12.6875 69.1465C12.8867 69.041 12.9863 68.9531 12.9863 68.8828V62.6162H11.8525L11.6504 62.3438L12.3359 61.6934H12.9863V61.4209C12.9863 60.7998 13.0273 60.2666 13.1094 59.8213C13.1973 59.376 13.3145 58.9922 13.4609 58.6699C13.6133 58.3477 13.7891 58.0693 13.9883 57.835C14.1934 57.6006 14.4131 57.3838 14.6475 57.1846C14.8232 57.0322 15.0137 56.8975 15.2188 56.7803C15.4238 56.6631 15.623 56.5664 15.8164 56.4902C16.0156 56.4082 16.2061 56.3467 16.3877 56.3057C16.5693 56.2646 16.7275 56.2441 16.8623 56.2441C17.0732 56.2441 17.2842 56.2793 17.4951 56.3496C17.7119 56.4199 17.9053 56.502 18.0752 56.5957C18.251 56.6836 18.3945 56.7744 18.5059 56.8682C18.6172 56.9619 18.6729 57.0352 18.6729 57.0879Z" fill="white"/>
<path d="M24.1309 61.7725C24.1836 61.8076 24.2041 61.9248 24.1924 62.124C24.1807 62.3174 24.1484 62.543 24.0957 62.8008C24.0488 63.0586 23.9873 63.3193 23.9111 63.583C23.835 63.8408 23.7617 64.0488 23.6914 64.207H23.2256C23.1611 63.7324 23.0439 63.3779 22.874 63.1436C22.7041 62.9092 22.4961 62.792 22.25 62.792C22.127 62.792 21.9834 62.8359 21.8193 62.9238C21.6611 63.0117 21.4941 63.1553 21.3184 63.3545C21.1426 63.5479 20.9668 63.8027 20.791 64.1191C20.6211 64.4355 20.46 64.8252 20.3076 65.2881V68.8652C20.3076 68.9531 20.4219 69.0439 20.6504 69.1377C20.8789 69.2314 21.2686 69.3193 21.8193 69.4014V69.8672H17.5215V69.4014C17.9082 69.3135 18.2041 69.2285 18.4092 69.1465C18.6201 69.0586 18.7256 68.9648 18.7256 68.8652V63.8994C18.7256 63.7061 18.7197 63.5449 18.708 63.416C18.6963 63.2812 18.6816 63.1729 18.6641 63.0908C18.6465 63.0088 18.623 62.9443 18.5938 62.8975C18.5703 62.8506 18.5469 62.8125 18.5234 62.7832C18.4824 62.7422 18.4385 62.71 18.3916 62.6865C18.3447 62.6572 18.2832 62.6338 18.207 62.6162C18.1309 62.5986 18.0371 62.5869 17.9258 62.5811C17.8203 62.5693 17.6855 62.5576 17.5215 62.5459V62.1064C17.7559 62.0596 17.9756 62.0127 18.1807 61.9658C18.3857 61.9189 18.582 61.8691 18.7695 61.8164C18.957 61.7637 19.1387 61.708 19.3145 61.6494C19.4961 61.585 19.6748 61.5117 19.8506 61.4297L20.1758 61.7549L20.29 63.5127C20.4482 63.2197 20.6211 62.9473 20.8086 62.6953C21.002 62.4434 21.2041 62.2236 21.415 62.0361C21.6318 61.8486 21.8574 61.7021 22.0918 61.5967C22.332 61.4854 22.5781 61.4297 22.8301 61.4297C23.0352 61.4297 23.249 61.4561 23.4717 61.5088C23.6943 61.5615 23.9141 61.6494 24.1309 61.7725Z" fill="white"/>
<path d="M25.0713 69.8672V69.4014C25.4697 69.3193 25.7686 69.2314 25.9678 69.1377C26.1729 69.0381 26.2754 68.9473 26.2754 68.8652V64.04C26.2754 63.7412 26.2695 63.501 26.2578 63.3193C26.252 63.1318 26.2109 62.9883 26.1348 62.8887C26.0645 62.7832 25.9473 62.707 25.7832 62.6602C25.6191 62.6133 25.3818 62.5752 25.0713 62.5459V62.1064C25.4873 62.0361 25.9062 61.9424 26.3281 61.8252C26.7559 61.708 27.1367 61.5762 27.4707 61.4297H27.8574V68.8652C27.8574 68.9355 27.9512 69.0234 28.1387 69.1289C28.332 69.2285 28.6426 69.3193 29.0703 69.4014V69.8672H25.0713ZM28.1475 58.7842C28.1475 58.96 28.1152 59.124 28.0508 59.2764C27.9922 59.4287 27.9102 59.5605 27.8047 59.6719C27.6992 59.7832 27.5732 59.8711 27.4268 59.9355C27.2861 60 27.1338 60.0322 26.9697 60.0322C26.6885 60.0322 26.4688 59.959 26.3105 59.8125C26.1582 59.6602 26.082 59.4375 26.082 59.1445C26.082 58.9688 26.1113 58.8047 26.1699 58.6523C26.2344 58.5 26.3193 58.3682 26.4248 58.2568C26.5303 58.1455 26.6533 58.0605 26.7939 58.002C26.9346 57.9375 27.084 57.9053 27.2422 57.9053C27.5176 57.9053 27.7373 57.9785 27.9014 58.125C28.0654 58.2656 28.1475 58.4854 28.1475 58.7842Z" fill="white"/>
<path d="M37.0771 68.1973C36.6963 68.6426 36.3535 68.9941 36.0488 69.252C35.75 69.5039 35.4688 69.6973 35.2051 69.832C34.9473 69.9609 34.6953 70.043 34.4492 70.0781C34.2031 70.1133 33.9424 70.1309 33.667 70.1309C33.2217 70.1309 32.791 70.0371 32.375 69.8496C31.959 69.6562 31.5898 69.3809 31.2676 69.0234C30.9453 68.666 30.6846 68.2295 30.4854 67.7139C30.292 67.1982 30.1953 66.6152 30.1953 65.9648C30.1953 65.332 30.3096 64.7402 30.5381 64.1895C30.7725 63.6387 31.0918 63.1611 31.4961 62.7568C31.9062 62.3467 32.3896 62.0244 32.9463 61.79C33.5088 61.5498 34.1152 61.4297 34.7656 61.4297C34.959 61.4297 35.1641 61.4473 35.3809 61.4824C35.5977 61.5117 35.8057 61.5586 36.0049 61.623C36.21 61.6816 36.3945 61.7549 36.5586 61.8428C36.7285 61.9248 36.8633 62.0186 36.9629 62.124C36.9746 62.1943 36.9629 62.3086 36.9277 62.4668C36.8926 62.625 36.8428 62.7949 36.7783 62.9766C36.7197 63.1523 36.6553 63.3223 36.585 63.4863C36.5146 63.6445 36.4531 63.7646 36.4004 63.8467L35.9873 63.7588C35.9229 63.5947 35.835 63.4336 35.7236 63.2754C35.6182 63.1172 35.4834 62.9766 35.3193 62.8535C35.1611 62.7305 34.9736 62.6309 34.7568 62.5547C34.5459 62.4785 34.2998 62.4404 34.0186 62.4404C33.7256 62.4404 33.4443 62.5049 33.1748 62.6338C32.9053 62.7627 32.668 62.9619 32.4629 63.2314C32.2578 63.501 32.0908 63.8408 31.9619 64.251C31.8389 64.6553 31.7773 65.1357 31.7773 65.6924C31.7773 66.1787 31.8477 66.6182 31.9883 67.0107C32.1289 67.4033 32.3164 67.7373 32.5508 68.0127C32.7852 68.2881 33.0576 68.502 33.3682 68.6543C33.6787 68.8008 34.0039 68.874 34.3438 68.874C34.5078 68.874 34.6631 68.8652 34.8096 68.8477C34.9561 68.8301 35.1143 68.7861 35.2842 68.7158C35.4541 68.6455 35.6504 68.5371 35.873 68.3906C36.0957 68.2383 36.3682 68.0303 36.6904 67.7666L37.0771 68.1973Z" fill="white"/>
<path d="M40.7861 68.8564C41.0908 68.8564 41.4219 68.7773 41.7793 68.6191C42.1426 68.4551 42.5469 68.1826 42.9922 67.8018V65.6396C42.5469 65.71 42.1777 65.7803 41.8848 65.8506C41.5918 65.9209 41.3486 65.9941 41.1553 66.0703C40.9619 66.1406 40.8066 66.2168 40.6895 66.2988C40.5781 66.375 40.4785 66.46 40.3906 66.5537C40.2383 66.7119 40.1152 66.8877 40.0215 67.0811C39.9277 67.2744 39.8809 67.5029 39.8809 67.7666C39.8809 67.9893 39.9131 68.1709 39.9775 68.3115C40.042 68.4521 40.1211 68.5635 40.2148 68.6455C40.3086 68.7275 40.4082 68.7832 40.5137 68.8125C40.6191 68.8418 40.71 68.8564 40.7861 68.8564ZM45.9189 69.0586C45.4209 69.4043 44.9756 69.6709 44.583 69.8584C44.1963 70.04 43.9121 70.1309 43.7305 70.1309C43.5254 70.1309 43.3555 69.999 43.2207 69.7354C43.0918 69.4717 43.0156 69.1084 42.9922 68.6455C42.7285 68.915 42.4648 69.1436 42.2012 69.3311C41.9375 69.5186 41.6797 69.6738 41.4277 69.7969C41.1816 69.9141 40.9443 69.999 40.7158 70.0518C40.4873 70.1045 40.2793 70.1309 40.0918 70.1309C39.8691 70.1309 39.6436 70.0928 39.415 70.0166C39.1924 69.9463 38.9873 69.832 38.7998 69.6738C38.6182 69.5156 38.4688 69.3135 38.3516 69.0674C38.2344 68.8213 38.1758 68.5283 38.1758 68.1885C38.1758 67.7607 38.252 67.4004 38.4043 67.1074C38.5566 66.8145 38.7412 66.5596 38.958 66.3428C39.0986 66.2021 39.2598 66.0674 39.4414 65.9385C39.623 65.8096 39.8604 65.6865 40.1533 65.5693C40.4521 65.4521 40.8271 65.3408 41.2783 65.2354C41.7354 65.124 42.3066 65.0156 42.9922 64.9102V63.7412C42.9922 63.5479 42.9717 63.3691 42.9307 63.2051C42.8896 63.0352 42.8164 62.8916 42.7109 62.7744C42.6055 62.6514 42.4648 62.5576 42.2891 62.4932C42.1133 62.4229 41.8936 62.3906 41.6299 62.3965C41.4541 62.3965 41.2842 62.4258 41.1201 62.4844C40.9561 62.543 40.8096 62.6221 40.6807 62.7217C40.5518 62.8213 40.4521 62.9443 40.3818 63.0908C40.3115 63.2314 40.2852 63.3896 40.3027 63.5654C40.3086 63.6006 40.2734 63.6416 40.1973 63.6885C40.127 63.7354 40.0332 63.7822 39.916 63.8291C39.8047 63.876 39.6787 63.9199 39.5381 63.9609C39.4033 64.002 39.2686 64.0371 39.1338 64.0664C39.0049 64.0957 38.8848 64.1191 38.7734 64.1367C38.668 64.1484 38.5918 64.1484 38.5449 64.1367L38.4043 63.75C38.5391 63.4395 38.75 63.1436 39.0371 62.8623C39.3242 62.5811 39.6523 62.335 40.0215 62.124C40.3906 61.9131 40.7861 61.7461 41.208 61.623C41.6299 61.4941 42.0459 61.4297 42.4561 61.4297C43.1533 61.4297 43.6807 61.6084 44.0381 61.9658C44.3955 62.3232 44.5742 62.8037 44.5742 63.4072V68.127C44.5742 68.373 44.6064 68.5488 44.6709 68.6543C44.7354 68.7598 44.8203 68.8125 44.9258 68.8125C45.0078 68.8125 45.1104 68.7979 45.2334 68.7686C45.3564 68.7393 45.5352 68.6748 45.7695 68.5752L45.9189 69.0586Z" fill="white"/>
<path d="M51.8955 69.8672V69.4014C52.3174 69.29 52.6221 69.1934 52.8096 69.1113C53.0029 69.0293 53.0996 68.9473 53.0996 68.8652V64.4355C53.0996 64.0898 53.082 63.8057 53.0469 63.583C53.0117 63.3604 52.9502 63.1875 52.8623 63.0645C52.7803 62.9355 52.6719 62.8477 52.5371 62.8008C52.4023 62.748 52.2383 62.7217 52.0449 62.7217C51.875 62.7217 51.6875 62.7568 51.4824 62.8271C51.2832 62.8975 51.0664 63.0146 50.832 63.1787C50.6035 63.3369 50.3574 63.5479 50.0938 63.8115C49.8301 64.0693 49.5576 64.3916 49.2764 64.7783V68.8652C49.2764 68.9531 49.3818 69.0439 49.5928 69.1377C49.8096 69.2314 50.1084 69.3193 50.4893 69.4014V69.8672H46.4902V69.4014C46.877 69.3018 47.1729 69.2139 47.3779 69.1377C47.5889 69.0557 47.6943 68.9648 47.6943 68.8652V63.6797C47.6943 63.4512 47.6855 63.2695 47.668 63.1348C47.6562 63 47.6123 62.8945 47.5361 62.8184C47.46 62.7422 47.3398 62.6865 47.1758 62.6514C47.0176 62.6162 46.7891 62.5811 46.4902 62.5459V62.1064C46.9414 62.042 47.3516 61.9541 47.7207 61.8428C48.0898 61.7314 48.4561 61.5938 48.8193 61.4297L49.1445 61.7549L49.2412 63.6357C49.5283 63.2783 49.8271 62.9619 50.1377 62.6865C50.4541 62.4111 50.7646 62.1826 51.0693 62.001C51.3799 61.8135 51.6787 61.6729 51.9658 61.5791C52.2529 61.4795 52.5107 61.4297 52.7393 61.4297C52.9912 61.4297 53.2344 61.4707 53.4688 61.5527C53.7031 61.6289 53.9082 61.749 54.084 61.9131C54.2656 62.0771 54.4092 62.2881 54.5146 62.5459C54.626 62.7979 54.6816 63.1025 54.6816 63.46V68.8652C54.6816 68.9062 54.7021 68.9473 54.7432 68.9883C54.7842 69.0234 54.8516 69.0615 54.9453 69.1025C55.0391 69.1436 55.1621 69.1904 55.3145 69.2432C55.4727 69.29 55.666 69.3428 55.8945 69.4014V69.8672H51.8955Z" fill="white"/>
<path d="M66.9072 65.1211L65.3955 60.7441L63.9541 65.1211H66.9072ZM63.6641 66L62.7324 68.8037C62.6738 68.9854 62.75 69.1172 62.9609 69.1992C63.1719 69.2812 63.5176 69.3486 63.998 69.4014V69.8672H60.2803V69.4014C60.6787 69.3311 60.9922 69.2578 61.2207 69.1816C61.4492 69.1055 61.5928 68.9795 61.6514 68.8037L64.8506 59.083C65.0381 58.9072 65.2549 58.752 65.501 58.6172C65.7529 58.4824 65.9814 58.374 66.1865 58.292L69.8779 68.8037C69.9072 68.8857 69.9453 68.959 69.9922 69.0234C70.0449 69.0879 70.1152 69.1436 70.2031 69.1904C70.291 69.2373 70.3994 69.2783 70.5283 69.3135C70.6631 69.3486 70.8242 69.3779 71.0117 69.4014V69.8672H67.083V69.4014C67.54 69.3721 67.8535 69.3135 68.0234 69.2256C68.1934 69.1377 68.2461 68.9971 68.1816 68.8037L67.2148 66H63.6641Z" fill="white"/>
<path d="M78.2715 61.7725C78.3242 61.8076 78.3447 61.9248 78.333 62.124C78.3213 62.3174 78.2891 62.543 78.2363 62.8008C78.1895 63.0586 78.1279 63.3193 78.0518 63.583C77.9756 63.8408 77.9023 64.0488 77.832 64.207H77.3662C77.3018 63.7324 77.1846 63.3779 77.0146 63.1436C76.8447 62.9092 76.6367 62.792 76.3906 62.792C76.2676 62.792 76.124 62.8359 75.96 62.9238C75.8018 63.0117 75.6348 63.1553 75.459 63.3545C75.2832 63.5479 75.1074 63.8027 74.9316 64.1191C74.7617 64.4355 74.6006 64.8252 74.4482 65.2881V68.8652C74.4482 68.9531 74.5625 69.0439 74.791 69.1377C75.0195 69.2314 75.4092 69.3193 75.96 69.4014V69.8672H71.6621V69.4014C72.0488 69.3135 72.3447 69.2285 72.5498 69.1465C72.7607 69.0586 72.8662 68.9648 72.8662 68.8652V63.8994C72.8662 63.7061 72.8604 63.5449 72.8486 63.416C72.8369 63.2812 72.8223 63.1729 72.8047 63.0908C72.7871 63.0088 72.7637 62.9443 72.7344 62.8975C72.7109 62.8506 72.6875 62.8125 72.6641 62.7832C72.623 62.7422 72.5791 62.71 72.5322 62.6865C72.4854 62.6572 72.4238 62.6338 72.3477 62.6162C72.2715 62.5986 72.1777 62.5869 72.0664 62.5811C71.9609 62.5693 71.8262 62.5576 71.6621 62.5459V62.1064C71.8965 62.0596 72.1162 62.0127 72.3213 61.9658C72.5264 61.9189 72.7227 61.8691 72.9102 61.8164C73.0977 61.7637 73.2793 61.708 73.4551 61.6494C73.6367 61.585 73.8154 61.5117 73.9912 61.4297L74.3164 61.7549L74.4307 63.5127C74.5889 63.2197 74.7617 62.9473 74.9492 62.6953C75.1426 62.4434 75.3447 62.2236 75.5557 62.0361C75.7725 61.8486 75.998 61.7021 76.2324 61.5967C76.4727 61.4854 76.7188 61.4297 76.9707 61.4297C77.1758 61.4297 77.3896 61.4561 77.6123 61.5088C77.835 61.5615 78.0547 61.6494 78.2715 61.7725Z" fill="white"/>
<path d="M84.7314 68.7246C84.0869 69.1992 83.498 69.5537 82.9648 69.7881C82.4316 70.0166 82.0098 70.1309 81.6992 70.1309C81.4824 70.1309 81.2744 70.0869 81.0752 69.999C80.876 69.917 80.7002 69.7852 80.5479 69.6035C80.4014 69.4219 80.2842 69.1875 80.1963 68.9004C80.1084 68.6133 80.0645 68.2646 80.0645 67.8545V62.6162H78.957L78.7461 62.3438L79.4316 61.6934H80.0645V59.6367L81.3564 58.5908L81.6465 58.8369V61.6934H84.459L84.7314 61.9658C84.6787 62.0537 84.6113 62.1475 84.5293 62.2471C84.4531 62.3467 84.374 62.4404 84.292 62.5283C84.21 62.6162 84.1279 62.6953 84.0459 62.7656C83.9697 62.8359 83.9023 62.8887 83.8438 62.9238C83.7031 62.8535 83.4893 62.7861 83.2021 62.7217C82.9209 62.6514 82.5693 62.6162 82.1475 62.6162H81.6465V67.0811C81.6465 67.415 81.6641 67.6934 81.6992 67.916C81.7344 68.1387 81.7871 68.3203 81.8574 68.4609C81.9277 68.5957 82.0186 68.6924 82.1299 68.751C82.2412 68.8037 82.373 68.8301 82.5254 68.8301C82.7305 68.8301 82.9824 68.7891 83.2812 68.707C83.5801 68.6191 83.9639 68.4551 84.4326 68.2148L84.7314 68.7246Z" fill="white"/>
<path d="M98.2314 68.0127C97.8564 68.4053 97.4932 68.7363 97.1416 69.0059C96.7959 69.2754 96.4561 69.4951 96.1221 69.665C95.7881 69.8291 95.46 69.9463 95.1377 70.0166C94.8213 70.0928 94.5049 70.1309 94.1885 70.1309C93.6318 70.1309 93.084 70.0078 92.5449 69.7617C92.0059 69.5156 91.5254 69.1611 91.1035 68.6982C90.6816 68.2354 90.3418 67.6699 90.084 67.002C89.8262 66.3281 89.6973 65.5664 89.6973 64.7168C89.6973 63.7793 89.8379 62.9297 90.1191 62.168C90.4062 61.4062 90.7959 60.7559 91.2881 60.2168C91.7803 59.6777 92.3545 59.2617 93.0107 58.9688C93.667 58.6758 94.3672 58.5293 95.1113 58.5293C95.4277 58.5293 95.7295 58.5527 96.0166 58.5996C96.3096 58.6465 96.582 58.7109 96.834 58.793C97.0859 58.8691 97.3145 58.96 97.5195 59.0654C97.7305 59.1709 97.9121 59.2852 98.0645 59.4082C98.0996 59.4375 98.0879 59.5107 98.0293 59.6279C97.9707 59.7451 97.8916 59.877 97.792 60.0234C97.6982 60.1641 97.5986 60.3047 97.4932 60.4453C97.3877 60.5801 97.2998 60.6826 97.2295 60.7529L96.834 60.6738C96.5352 60.3223 96.1836 60.0498 95.7793 59.8564C95.3809 59.6572 94.9268 59.5576 94.417 59.5576C94.2178 59.5576 94.001 59.5928 93.7666 59.6631C93.5381 59.7334 93.3096 59.8477 93.0811 60.0059C92.8584 60.1582 92.6416 60.3604 92.4307 60.6123C92.2197 60.8584 92.0352 61.1602 91.877 61.5176C91.7188 61.875 91.5898 62.291 91.4902 62.7656C91.3965 63.2402 91.3496 63.7822 91.3496 64.3916C91.3496 65.1592 91.458 65.8301 91.6748 66.4043C91.8916 66.9727 92.1699 67.4473 92.5098 67.8281C92.8496 68.2031 93.2305 68.4844 93.6523 68.6719C94.0742 68.8535 94.4873 68.9443 94.8916 68.9443C95.0498 68.9443 95.2344 68.9209 95.4453 68.874C95.6562 68.8271 95.8877 68.751 96.1396 68.6455C96.3916 68.5342 96.6611 68.3906 96.9482 68.2148C97.2412 68.0332 97.5459 67.8105 97.8623 67.5469C97.8916 67.5645 97.9238 67.5967 97.959 67.6436C97.9941 67.6846 98.0293 67.7314 98.0645 67.7842C98.0996 67.8311 98.1318 67.8779 98.1611 67.9248C98.1904 67.9658 98.2139 67.9951 98.2314 68.0127Z" fill="white"/>
<path d="M105.992 61.7725C106.045 61.8076 106.065 61.9248 106.054 62.124C106.042 62.3174 106.01 62.543 105.957 62.8008C105.91 63.0586 105.849 63.3193 105.772 63.583C105.696 63.8408 105.623 64.0488 105.553 64.207H105.087C105.022 63.7324 104.905 63.3779 104.735 63.1436C104.565 62.9092 104.357 62.792 104.111 62.792C103.988 62.792 103.845 62.8359 103.681 62.9238C103.522 63.0117 103.355 63.1553 103.18 63.3545C103.004 63.5479 102.828 63.8027 102.652 64.1191C102.482 64.4355 102.321 64.8252 102.169 65.2881V68.8652C102.169 68.9531 102.283 69.0439 102.512 69.1377C102.74 69.2314 103.13 69.3193 103.681 69.4014V69.8672H99.3828V69.4014C99.7695 69.3135 100.065 69.2285 100.271 69.1465C100.481 69.0586 100.587 68.9648 100.587 68.8652V63.8994C100.587 63.7061 100.581 63.5449 100.569 63.416C100.558 63.2812 100.543 63.1729 100.525 63.0908C100.508 63.0088 100.484 62.9443 100.455 62.8975C100.432 62.8506 100.408 62.8125 100.385 62.7832C100.344 62.7422 100.3 62.71 100.253 62.6865C100.206 62.6572 100.145 62.6338 100.068 62.6162C99.9922 62.5986 99.8984 62.5869 99.7871 62.5811C99.6816 62.5693 99.5469 62.5576 99.3828 62.5459V62.1064C99.6172 62.0596 99.8369 62.0127 100.042 61.9658C100.247 61.9189 100.443 61.8691 100.631 61.8164C100.818 61.7637 101 61.708 101.176 61.6494C101.357 61.585 101.536 61.5117 101.712 61.4297L102.037 61.7549L102.151 63.5127C102.31 63.2197 102.482 62.9473 102.67 62.6953C102.863 62.4434 103.065 62.2236 103.276 62.0361C103.493 61.8486 103.719 61.7021 103.953 61.5967C104.193 61.4854 104.439 61.4297 104.691 61.4297C104.896 61.4297 105.11 61.4561 105.333 61.5088C105.556 61.5615 105.775 61.6494 105.992 61.7725Z" fill="white"/>
<path d="M106.933 69.8672V69.4014C107.331 69.3193 107.63 69.2314 107.829 69.1377C108.034 69.0381 108.137 68.9473 108.137 68.8652V64.04C108.137 63.7412 108.131 63.501 108.119 63.3193C108.113 63.1318 108.072 62.9883 107.996 62.8887C107.926 62.7832 107.809 62.707 107.645 62.6602C107.48 62.6133 107.243 62.5752 106.933 62.5459V62.1064C107.349 62.0361 107.768 61.9424 108.189 61.8252C108.617 61.708 108.998 61.5762 109.332 61.4297H109.719V68.8652C109.719 68.9355 109.812 69.0234 110 69.1289C110.193 69.2285 110.504 69.3193 110.932 69.4014V69.8672H106.933ZM110.009 58.7842C110.009 58.96 109.977 59.124 109.912 59.2764C109.854 59.4287 109.771 59.5605 109.666 59.6719C109.561 59.7832 109.435 59.8711 109.288 59.9355C109.147 60 108.995 60.0322 108.831 60.0322C108.55 60.0322 108.33 59.959 108.172 59.8125C108.02 59.6602 107.943 59.4375 107.943 59.1445C107.943 58.9688 107.973 58.8047 108.031 58.6523C108.096 58.5 108.181 58.3682 108.286 58.2568C108.392 58.1455 108.515 58.0605 108.655 58.002C108.796 57.9375 108.945 57.9053 109.104 57.9053C109.379 57.9053 109.599 57.9785 109.763 58.125C109.927 58.2656 110.009 58.4854 110.009 58.7842Z" fill="white"/>
<path d="M117.515 68.7246C116.87 69.1992 116.281 69.5537 115.748 69.7881C115.215 70.0166 114.793 70.1309 114.482 70.1309C114.266 70.1309 114.058 70.0869 113.858 69.999C113.659 69.917 113.483 69.7852 113.331 69.6035C113.185 69.4219 113.067 69.1875 112.979 68.9004C112.892 68.6133 112.848 68.2646 112.848 67.8545V62.6162H111.74L111.529 62.3438L112.215 61.6934H112.848V59.6367L114.14 58.5908L114.43 58.8369V61.6934H117.242L117.515 61.9658C117.462 62.0537 117.395 62.1475 117.312 62.2471C117.236 62.3467 117.157 62.4404 117.075 62.5283C116.993 62.6162 116.911 62.6953 116.829 62.7656C116.753 62.8359 116.686 62.8887 116.627 62.9238C116.486 62.8535 116.272 62.7861 115.985 62.7217C115.704 62.6514 115.353 62.6162 114.931 62.6162H114.43V67.0811C114.43 67.415 114.447 67.6934 114.482 67.916C114.518 68.1387 114.57 68.3203 114.641 68.4609C114.711 68.5957 114.802 68.6924 114.913 68.751C115.024 68.8037 115.156 68.8301 115.309 68.8301C115.514 68.8301 115.766 68.7891 116.064 68.707C116.363 68.6191 116.747 68.4551 117.216 68.2148L117.515 68.7246Z" fill="white"/>
<path d="M118.358 69.8672V69.4014C118.757 69.3193 119.056 69.2314 119.255 69.1377C119.46 69.0381 119.562 68.9473 119.562 68.8652V64.04C119.562 63.7412 119.557 63.501 119.545 63.3193C119.539 63.1318 119.498 62.9883 119.422 62.8887C119.352 62.7832 119.234 62.707 119.07 62.6602C118.906 62.6133 118.669 62.5752 118.358 62.5459V62.1064C118.774 62.0361 119.193 61.9424 119.615 61.8252C120.043 61.708 120.424 61.5762 120.758 61.4297H121.145V68.8652C121.145 68.9355 121.238 69.0234 121.426 69.1289C121.619 69.2285 121.93 69.3193 122.357 69.4014V69.8672H118.358ZM121.435 58.7842C121.435 58.96 121.402 59.124 121.338 59.2764C121.279 59.4287 121.197 59.5605 121.092 59.6719C120.986 59.7832 120.86 59.8711 120.714 59.9355C120.573 60 120.421 60.0322 120.257 60.0322C119.976 60.0322 119.756 59.959 119.598 59.8125C119.445 59.6602 119.369 59.4375 119.369 59.1445C119.369 58.9688 119.398 58.8047 119.457 58.6523C119.521 58.5 119.606 58.3682 119.712 58.2568C119.817 58.1455 119.94 58.0605 120.081 58.002C120.222 57.9375 120.371 57.9053 120.529 57.9053C120.805 57.9053 121.024 57.9785 121.188 58.125C121.353 58.2656 121.435 58.4854 121.435 58.7842Z" fill="white"/>
<path d="M130.364 68.1973C129.983 68.6426 129.641 68.9941 129.336 69.252C129.037 69.5039 128.756 69.6973 128.492 69.832C128.234 69.9609 127.982 70.043 127.736 70.0781C127.49 70.1133 127.229 70.1309 126.954 70.1309C126.509 70.1309 126.078 70.0371 125.662 69.8496C125.246 69.6562 124.877 69.3809 124.555 69.0234C124.232 68.666 123.972 68.2295 123.772 67.7139C123.579 67.1982 123.482 66.6152 123.482 65.9648C123.482 65.332 123.597 64.7402 123.825 64.1895C124.06 63.6387 124.379 63.1611 124.783 62.7568C125.193 62.3467 125.677 62.0244 126.233 61.79C126.796 61.5498 127.402 61.4297 128.053 61.4297C128.246 61.4297 128.451 61.4473 128.668 61.4824C128.885 61.5117 129.093 61.5586 129.292 61.623C129.497 61.6816 129.682 61.7549 129.846 61.8428C130.016 61.9248 130.15 62.0186 130.25 62.124C130.262 62.1943 130.25 62.3086 130.215 62.4668C130.18 62.625 130.13 62.7949 130.065 62.9766C130.007 63.1523 129.942 63.3223 129.872 63.4863C129.802 63.6445 129.74 63.7646 129.688 63.8467L129.274 63.7588C129.21 63.5947 129.122 63.4336 129.011 63.2754C128.905 63.1172 128.771 62.9766 128.606 62.8535C128.448 62.7305 128.261 62.6309 128.044 62.5547C127.833 62.4785 127.587 62.4404 127.306 62.4404C127.013 62.4404 126.731 62.5049 126.462 62.6338C126.192 62.7627 125.955 62.9619 125.75 63.2314C125.545 63.501 125.378 63.8408 125.249 64.251C125.126 64.6553 125.064 65.1357 125.064 65.6924C125.064 66.1787 125.135 66.6182 125.275 67.0107C125.416 67.4033 125.604 67.7373 125.838 68.0127C126.072 68.2881 126.345 68.502 126.655 68.6543C126.966 68.8008 127.291 68.874 127.631 68.874C127.795 68.874 127.95 68.8652 128.097 68.8477C128.243 68.8301 128.401 68.7861 128.571 68.7158C128.741 68.6455 128.938 68.5371 129.16 68.3906C129.383 68.2383 129.655 68.0303 129.978 67.7666L130.364 68.1973Z" fill="white"/>
<path d="M134.073 68.8564C134.378 68.8564 134.709 68.7773 135.066 68.6191C135.43 68.4551 135.834 68.1826 136.279 67.8018V65.6396C135.834 65.71 135.465 65.7803 135.172 65.8506C134.879 65.9209 134.636 65.9941 134.442 66.0703C134.249 66.1406 134.094 66.2168 133.977 66.2988C133.865 66.375 133.766 66.46 133.678 66.5537C133.525 66.7119 133.402 66.8877 133.309 67.0811C133.215 67.2744 133.168 67.5029 133.168 67.7666C133.168 67.9893 133.2 68.1709 133.265 68.3115C133.329 68.4521 133.408 68.5635 133.502 68.6455C133.596 68.7275 133.695 68.7832 133.801 68.8125C133.906 68.8418 133.997 68.8564 134.073 68.8564ZM139.206 69.0586C138.708 69.4043 138.263 69.6709 137.87 69.8584C137.483 70.04 137.199 70.1309 137.018 70.1309C136.812 70.1309 136.643 69.999 136.508 69.7354C136.379 69.4717 136.303 69.1084 136.279 68.6455C136.016 68.915 135.752 69.1436 135.488 69.3311C135.225 69.5186 134.967 69.6738 134.715 69.7969C134.469 69.9141 134.231 69.999 134.003 70.0518C133.774 70.1045 133.566 70.1309 133.379 70.1309C133.156 70.1309 132.931 70.0928 132.702 70.0166C132.479 69.9463 132.274 69.832 132.087 69.6738C131.905 69.5156 131.756 69.3135 131.639 69.0674C131.521 68.8213 131.463 68.5283 131.463 68.1885C131.463 67.7607 131.539 67.4004 131.691 67.1074C131.844 66.8145 132.028 66.5596 132.245 66.3428C132.386 66.2021 132.547 66.0674 132.729 65.9385C132.91 65.8096 133.147 65.6865 133.44 65.5693C133.739 65.4521 134.114 65.3408 134.565 65.2354C135.022 65.124 135.594 65.0156 136.279 64.9102V63.7412C136.279 63.5479 136.259 63.3691 136.218 63.2051C136.177 63.0352 136.104 62.8916 135.998 62.7744C135.893 62.6514 135.752 62.5576 135.576 62.4932C135.4 62.4229 135.181 62.3906 134.917 62.3965C134.741 62.3965 134.571 62.4258 134.407 62.4844C134.243 62.543 134.097 62.6221 133.968 62.7217C133.839 62.8213 133.739 62.9443 133.669 63.0908C133.599 63.2314 133.572 63.3896 133.59 63.5654C133.596 63.6006 133.561 63.6416 133.484 63.6885C133.414 63.7354 133.32 63.7822 133.203 63.8291C133.092 63.876 132.966 63.9199 132.825 63.9609C132.69 64.002 132.556 64.0371 132.421 64.0664C132.292 64.0957 132.172 64.1191 132.061 64.1367C131.955 64.1484 131.879 64.1484 131.832 64.1367L131.691 63.75C131.826 63.4395 132.037 63.1436 132.324 62.8623C132.611 62.5811 132.939 62.335 133.309 62.124C133.678 61.9131 134.073 61.7461 134.495 61.623C134.917 61.4941 135.333 61.4297 135.743 61.4297C136.44 61.4297 136.968 61.6084 137.325 61.9658C137.683 62.3232 137.861 62.8037 137.861 63.4072V68.127C137.861 68.373 137.894 68.5488 137.958 68.6543C138.022 68.7598 138.107 68.8125 138.213 68.8125C138.295 68.8125 138.397 68.7979 138.521 68.7686C138.644 68.7393 138.822 68.6748 139.057 68.5752L139.206 69.0586Z" fill="white"/>
<path d="M139.821 69.8672V69.4014C140.073 69.3604 140.281 69.3193 140.445 69.2783C140.615 69.2314 140.747 69.1875 140.841 69.1465C140.94 69.0996 141.011 69.0527 141.052 69.0059C141.093 68.959 141.113 68.9121 141.113 68.8652V58.5645C141.113 58.3008 141.096 58.0957 141.061 57.9492C141.031 57.8027 140.97 57.6943 140.876 57.624C140.788 57.5479 140.665 57.498 140.507 57.4746C140.354 57.4453 140.155 57.416 139.909 57.3867V56.9473C140.144 56.9062 140.366 56.8652 140.577 56.8242C140.788 56.7773 140.993 56.7275 141.192 56.6748C141.392 56.6221 141.585 56.5605 141.772 56.4902C141.966 56.4199 142.162 56.3379 142.361 56.2441L142.695 56.5605V68.8652C142.695 68.9531 142.792 69.0439 142.985 69.1377C143.179 69.2314 143.516 69.3193 143.996 69.4014V69.8672H139.821Z" fill="white"/>
<path d="M152.478 59.3291C152.378 59.3291 152.275 59.332 152.17 59.3379C152.07 59.3379 151.968 59.3408 151.862 59.3467V63.75C152.021 63.7793 152.158 63.7969 152.275 63.8027C152.393 63.8086 152.516 63.8115 152.645 63.8115C153.529 63.8115 154.197 63.6094 154.648 63.2051C155.105 62.8008 155.334 62.2207 155.334 61.4648C155.334 61.1602 155.281 60.8789 155.176 60.6211C155.076 60.3574 154.912 60.1318 154.684 59.9443C154.455 59.751 154.159 59.6016 153.796 59.4961C153.433 59.3848 152.993 59.3291 152.478 59.3291ZM148.944 69.8672V69.4014C149.343 69.3193 149.65 69.2314 149.867 69.1377C150.084 69.0381 150.192 68.9473 150.192 68.8652V59.5137C149.981 59.543 149.771 59.5723 149.56 59.6016C149.354 59.6309 149.149 59.6602 148.944 59.6895L148.848 59.0566C149.135 58.9863 149.428 58.9219 149.727 58.8633C150.025 58.7988 150.336 58.7432 150.658 58.6963C150.986 58.6436 151.329 58.6025 151.687 58.5732C152.044 58.5439 152.422 58.5293 152.82 58.5293C153.541 58.5293 154.162 58.5967 154.684 58.7314C155.205 58.8662 155.636 59.0537 155.976 59.2939C156.315 59.5342 156.567 59.8184 156.731 60.1465C156.896 60.4688 156.978 60.8174 156.978 61.1924C156.978 61.6084 156.916 61.9863 156.793 62.3262C156.676 62.666 156.509 62.9707 156.292 63.2402C156.075 63.5098 155.814 63.7412 155.51 63.9346C155.205 64.1279 154.871 64.2803 154.508 64.3916L157.206 68.5137C157.294 68.6367 157.385 68.7363 157.479 68.8125C157.578 68.8887 157.687 68.9473 157.804 68.9883C157.927 69.0234 158.062 69.0439 158.208 69.0498C158.36 69.0557 158.536 69.0498 158.735 69.0322L158.841 69.498C158.647 69.5625 158.448 69.624 158.243 69.6826C158.038 69.7412 157.839 69.7939 157.646 69.8408C157.458 69.8877 157.279 69.9229 157.109 69.9463C156.945 69.9756 156.808 69.9902 156.696 69.9902C156.526 69.9902 156.359 69.9434 156.195 69.8496C156.037 69.7559 155.917 69.6416 155.835 69.5068L153.225 64.6201C153.154 64.626 153.081 64.6318 153.005 64.6377C152.935 64.6377 152.864 64.6377 152.794 64.6377C152.642 64.6377 152.489 64.6318 152.337 64.6201C152.185 64.6025 152.026 64.5762 151.862 64.541V68.8652C151.862 68.9355 151.965 69.0234 152.17 69.1289C152.375 69.2285 152.691 69.3193 153.119 69.4014V69.8672H148.944Z" fill="white"/>
<path d="M163.297 62.3965C163.004 62.3965 162.737 62.4551 162.497 62.5723C162.263 62.6836 162.058 62.8447 161.882 63.0557C161.706 63.2607 161.56 63.5098 161.442 63.8027C161.331 64.0957 161.252 64.418 161.205 64.7695H164.686C164.82 64.7695 164.908 64.749 164.949 64.708C164.996 64.6611 165.02 64.5762 165.02 64.4531C165.02 64.2891 164.996 64.0898 164.949 63.8555C164.902 63.6211 164.814 63.3955 164.686 63.1787C164.562 62.9619 164.39 62.7773 164.167 62.625C163.944 62.4727 163.654 62.3965 163.297 62.3965ZM166.681 64.9893C166.575 65.1064 166.42 65.2236 166.215 65.3408C166.01 65.4521 165.813 65.5459 165.626 65.6221H161.161C161.167 66.0674 161.229 66.4893 161.346 66.8877C161.463 67.2803 161.627 67.623 161.838 67.916C162.049 68.209 162.304 68.4434 162.603 68.6191C162.907 68.7891 163.25 68.874 163.631 68.874C163.812 68.874 163.988 68.8623 164.158 68.8389C164.334 68.8154 164.521 68.7656 164.721 68.6895C164.92 68.6074 165.143 68.4902 165.389 68.3379C165.635 68.1855 165.925 67.9805 166.259 67.7227C166.335 67.7637 166.408 67.834 166.479 67.9336C166.549 68.0332 166.599 68.1064 166.628 68.1533C166.229 68.5752 165.878 68.915 165.573 69.1729C165.269 69.4307 164.979 69.6328 164.703 69.7793C164.434 69.9199 164.164 70.0137 163.895 70.0605C163.631 70.1074 163.341 70.1309 163.024 70.1309C162.556 70.1309 162.11 70.0342 161.688 69.8408C161.272 69.6416 160.906 69.3633 160.59 69.0059C160.273 68.6484 160.021 68.2178 159.834 67.7139C159.646 67.21 159.553 66.6475 159.553 66.0264C159.553 65.6338 159.594 65.25 159.676 64.875C159.764 64.5 159.887 64.1484 160.045 63.8203C160.209 63.4922 160.408 63.1875 160.643 62.9062C160.877 62.625 161.146 62.3789 161.451 62.168C161.592 62.0684 161.747 61.9746 161.917 61.8867C162.087 61.7988 162.263 61.7227 162.444 61.6582C162.632 61.5879 162.822 61.5322 163.016 61.4912C163.209 61.4502 163.394 61.4297 163.569 61.4297C163.95 61.4297 164.293 61.4795 164.598 61.5791C164.902 61.6787 165.169 61.8164 165.397 61.9922C165.632 62.1621 165.828 62.3643 165.986 62.5986C166.15 62.833 166.282 63.082 166.382 63.3457C166.487 63.6094 166.563 63.8818 166.61 64.1631C166.657 64.4443 166.681 64.7197 166.681 64.9893Z" fill="white"/>
<path d="M173.738 67.3799C173.738 67.7959 173.677 68.1533 173.554 68.4521C173.437 68.7451 173.281 68.9941 173.088 69.1992C172.9 69.4043 172.687 69.5684 172.446 69.6914C172.212 69.8145 171.975 69.9082 171.734 69.9727C171.5 70.0371 171.277 70.0781 171.066 70.0957C170.861 70.1191 170.694 70.1309 170.565 70.1309C170.407 70.1309 170.234 70.1162 170.047 70.0869C169.859 70.0635 169.663 70.0254 169.458 69.9727C169.259 69.9199 169.054 69.8525 168.843 69.7705C168.632 69.6885 168.43 69.5947 168.236 69.4893C168.195 69.4717 168.166 69.375 168.148 69.1992C168.137 69.0176 168.131 68.8096 168.131 68.5752C168.137 68.335 168.154 68.0889 168.184 67.8369C168.213 67.585 168.251 67.3799 168.298 67.2217L168.781 67.3184C168.811 67.5879 168.887 67.8369 169.01 68.0654C169.133 68.2881 169.291 68.4844 169.484 68.6543C169.678 68.8184 169.9 68.9473 170.152 69.041C170.404 69.1348 170.674 69.1816 170.961 69.1816C171.383 69.1816 171.717 69.0732 171.963 68.8564C172.209 68.6338 172.332 68.3262 172.332 67.9336C172.332 67.6992 172.271 67.4912 172.147 67.3096C172.024 67.1279 171.86 66.9609 171.655 66.8086C171.456 66.6562 171.228 66.5127 170.97 66.3779C170.712 66.2432 170.448 66.1055 170.179 65.9648C169.933 65.8418 169.692 65.71 169.458 65.5693C169.224 65.4229 169.013 65.2617 168.825 65.0859C168.644 64.9043 168.497 64.7051 168.386 64.4883C168.274 64.2656 168.219 64.0137 168.219 63.7324C168.219 63.3691 168.298 63.0439 168.456 62.7568C168.614 62.4697 168.822 62.2295 169.08 62.0361C169.338 61.8369 169.634 61.6875 169.968 61.5879C170.308 61.4824 170.653 61.4297 171.005 61.4297C171.21 61.4297 171.427 61.4473 171.655 61.4824C171.89 61.5117 172.115 61.5557 172.332 61.6143C172.555 61.6729 172.76 61.7432 172.947 61.8252C173.141 61.9072 173.299 62.001 173.422 62.1064C173.457 62.1357 173.463 62.2207 173.439 62.3613C173.416 62.4961 173.375 62.6484 173.316 62.8184C173.264 62.9824 173.202 63.1436 173.132 63.3018C173.067 63.4541 173.012 63.5596 172.965 63.6182L172.534 63.5479C172.3 63.0967 172.033 62.7715 171.734 62.5723C171.441 62.3672 171.137 62.2646 170.82 62.2646C170.633 62.2646 170.463 62.2939 170.311 62.3525C170.164 62.4111 170.038 62.4873 169.933 62.5811C169.833 62.6689 169.757 62.7715 169.704 62.8887C169.651 63.0059 169.625 63.126 169.625 63.249C169.625 63.4365 169.678 63.6064 169.783 63.7588C169.889 63.9053 170.029 64.0459 170.205 64.1807C170.387 64.3096 170.595 64.4355 170.829 64.5586C171.069 64.6816 171.321 64.8135 171.585 64.9541C171.837 65.083 172.092 65.2207 172.35 65.3672C172.607 65.5137 172.839 65.6836 173.044 65.877C173.249 66.0645 173.416 66.2812 173.545 66.5273C173.674 66.7676 173.738 67.0518 173.738 67.3799Z" fill="white"/>
<path d="M181.385 65.9121C181.385 65.4492 181.317 65.0098 181.183 64.5938C181.048 64.1719 180.869 63.8027 180.646 63.4863C180.43 63.1641 180.178 62.9092 179.891 62.7217C179.609 62.5342 179.319 62.4404 179.021 62.4404C178.599 62.4404 178.247 62.5254 177.966 62.6953C177.685 62.8594 177.459 63.0879 177.289 63.3809C177.119 63.6738 176.996 64.0195 176.92 64.418C176.85 64.8164 176.814 65.2471 176.814 65.71C176.814 66.1729 176.885 66.6123 177.025 67.0283C177.172 67.4385 177.359 67.7988 177.588 68.1094C177.816 68.4199 178.071 68.666 178.353 68.8477C178.634 69.0293 178.909 69.1201 179.179 69.1201C179.571 69.1201 179.905 69.0469 180.181 68.9004C180.462 68.748 180.69 68.5342 180.866 68.2588C181.048 67.9834 181.18 67.6465 181.262 67.248C181.344 66.8496 181.385 66.4043 181.385 65.9121ZM183.028 65.6045C183.028 66.1904 182.917 66.7559 182.694 67.3008C182.478 67.8457 182.182 68.3291 181.807 68.751C181.432 69.167 180.995 69.501 180.497 69.7529C180.005 70.0049 179.483 70.1309 178.933 70.1309C178.358 70.1309 177.84 70.0254 177.377 69.8145C176.914 69.6035 176.519 69.3135 176.19 68.9443C175.862 68.5752 175.607 68.1357 175.426 67.626C175.25 67.1162 175.162 66.5625 175.162 65.9648C175.162 65.5781 175.209 65.1973 175.303 64.8223C175.402 64.4473 175.54 64.0928 175.716 63.7588C175.892 63.4189 176.103 63.1084 176.349 62.8271C176.601 62.54 176.879 62.2939 177.184 62.0889C177.488 61.8838 177.816 61.7227 178.168 61.6055C178.52 61.4883 178.889 61.4297 179.275 61.4297C179.844 61.4297 180.356 61.5352 180.813 61.7461C181.276 61.957 181.672 62.25 182 62.625C182.328 62.9941 182.58 63.4336 182.756 63.9434C182.938 64.4531 183.028 65.0068 183.028 65.6045Z" fill="white"/>
<path d="M193.312 69.0586C193.095 69.1992 192.875 69.334 192.652 69.4629C192.436 69.5918 192.23 69.7061 192.037 69.8057C191.844 69.9053 191.671 69.9844 191.519 70.043C191.372 70.1016 191.264 70.1309 191.193 70.1309C191.088 70.1309 190.991 70.1016 190.903 70.043C190.815 69.9844 190.736 69.8906 190.666 69.7617C190.596 69.6328 190.534 69.4658 190.481 69.2607C190.435 69.0498 190.399 68.7949 190.376 68.4961C190.013 68.8477 189.682 69.1318 189.383 69.3486C189.084 69.5596 188.809 69.7236 188.557 69.8408C188.311 69.958 188.082 70.0342 187.871 70.0693C187.666 70.1104 187.47 70.1309 187.282 70.1309C187.007 70.1309 186.74 70.0928 186.482 70.0166C186.23 69.9404 186.005 69.8027 185.806 69.6035C185.606 69.3984 185.445 69.1201 185.322 68.7686C185.205 68.417 185.146 67.9658 185.146 67.415V63.6797C185.146 63.3984 185.138 63.1816 185.12 63.0293C185.108 62.8711 185.067 62.7539 184.997 62.6777C184.927 62.5957 184.815 62.54 184.663 62.5107C184.517 62.4814 184.309 62.4521 184.039 62.4229V61.9834C184.273 61.96 184.493 61.9336 184.698 61.9043C184.903 61.8691 185.1 61.8311 185.287 61.79C185.48 61.7432 185.671 61.6904 185.858 61.6318C186.052 61.5732 186.254 61.5059 186.465 61.4297L186.729 61.79V66.9053C186.729 67.3037 186.755 67.6318 186.808 67.8896C186.866 68.1475 186.948 68.3525 187.054 68.5049C187.159 68.6572 187.288 68.7656 187.44 68.8301C187.599 68.8887 187.774 68.918 187.968 68.918C188.132 68.918 188.302 68.8945 188.478 68.8477C188.659 68.8008 188.847 68.7246 189.04 68.6191C189.239 68.5137 189.447 68.376 189.664 68.2061C189.887 68.0303 190.124 67.8164 190.376 67.5645V63.6797C190.376 63.416 190.364 63.2051 190.341 63.0469C190.317 62.8887 190.262 62.7656 190.174 62.6777C190.092 62.5898 189.972 62.5283 189.813 62.4932C189.655 62.458 189.441 62.4346 189.172 62.4229V61.9834C189.646 61.9307 190.092 61.8545 190.508 61.7549C190.924 61.6494 191.313 61.541 191.677 61.4297L191.958 61.79V67.5469C191.958 67.9102 191.97 68.1914 191.993 68.3906C192.022 68.5898 192.078 68.7188 192.16 68.7773C192.23 68.8242 192.342 68.8359 192.494 68.8125C192.652 68.7832 192.881 68.7041 193.18 68.5752L193.312 69.0586Z" fill="white"/>
<path d="M200.51 61.7725C200.562 61.8076 200.583 61.9248 200.571 62.124C200.56 62.3174 200.527 62.543 200.475 62.8008C200.428 63.0586 200.366 63.3193 200.29 63.583C200.214 63.8408 200.141 64.0488 200.07 64.207H199.604C199.54 63.7324 199.423 63.3779 199.253 63.1436C199.083 62.9092 198.875 62.792 198.629 62.792C198.506 62.792 198.362 62.8359 198.198 62.9238C198.04 63.0117 197.873 63.1553 197.697 63.3545C197.521 63.5479 197.346 63.8027 197.17 64.1191C197 64.4355 196.839 64.8252 196.687 65.2881V68.8652C196.687 68.9531 196.801 69.0439 197.029 69.1377C197.258 69.2314 197.647 69.3193 198.198 69.4014V69.8672H193.9V69.4014C194.287 69.3135 194.583 69.2285 194.788 69.1465C194.999 69.0586 195.104 68.9648 195.104 68.8652V63.8994C195.104 63.7061 195.099 63.5449 195.087 63.416C195.075 63.2812 195.061 63.1729 195.043 63.0908C195.025 63.0088 195.002 62.9443 194.973 62.8975C194.949 62.8506 194.926 62.8125 194.902 62.7832C194.861 62.7422 194.817 62.71 194.771 62.6865C194.724 62.6572 194.662 62.6338 194.586 62.6162C194.51 62.5986 194.416 62.5869 194.305 62.5811C194.199 62.5693 194.064 62.5576 193.9 62.5459V62.1064C194.135 62.0596 194.354 62.0127 194.56 61.9658C194.765 61.9189 194.961 61.8691 195.148 61.8164C195.336 61.7637 195.518 61.708 195.693 61.6494C195.875 61.585 196.054 61.5117 196.229 61.4297L196.555 61.7549L196.669 63.5127C196.827 63.2197 197 62.9473 197.188 62.6953C197.381 62.4434 197.583 62.2236 197.794 62.0361C198.011 61.8486 198.236 61.7021 198.471 61.5967C198.711 61.4854 198.957 61.4297 199.209 61.4297C199.414 61.4297 199.628 61.4561 199.851 61.5088C200.073 61.5615 200.293 61.6494 200.51 61.7725Z" fill="white"/>
<path d="M208.394 68.1973C208.013 68.6426 207.67 68.9941 207.365 69.252C207.066 69.5039 206.785 69.6973 206.521 69.832C206.264 69.9609 206.012 70.043 205.766 70.0781C205.52 70.1133 205.259 70.1309 204.983 70.1309C204.538 70.1309 204.107 70.0371 203.691 69.8496C203.275 69.6562 202.906 69.3809 202.584 69.0234C202.262 68.666 202.001 68.2295 201.802 67.7139C201.608 67.1982 201.512 66.6152 201.512 65.9648C201.512 65.332 201.626 64.7402 201.854 64.1895C202.089 63.6387 202.408 63.1611 202.812 62.7568C203.223 62.3467 203.706 62.0244 204.263 61.79C204.825 61.5498 205.432 61.4297 206.082 61.4297C206.275 61.4297 206.48 61.4473 206.697 61.4824C206.914 61.5117 207.122 61.5586 207.321 61.623C207.526 61.6816 207.711 61.7549 207.875 61.8428C208.045 61.9248 208.18 62.0186 208.279 62.124C208.291 62.1943 208.279 62.3086 208.244 62.4668C208.209 62.625 208.159 62.7949 208.095 62.9766C208.036 63.1523 207.972 63.3223 207.901 63.4863C207.831 63.6445 207.77 63.7646 207.717 63.8467L207.304 63.7588C207.239 63.5947 207.151 63.4336 207.04 63.2754C206.935 63.1172 206.8 62.9766 206.636 62.8535C206.478 62.7305 206.29 62.6309 206.073 62.5547C205.862 62.4785 205.616 62.4404 205.335 62.4404C205.042 62.4404 204.761 62.5049 204.491 62.6338C204.222 62.7627 203.984 62.9619 203.779 63.2314C203.574 63.501 203.407 63.8408 203.278 64.251C203.155 64.6553 203.094 65.1357 203.094 65.6924C203.094 66.1787 203.164 66.6182 203.305 67.0107C203.445 67.4033 203.633 67.7373 203.867 68.0127C204.102 68.2881 204.374 68.502 204.685 68.6543C204.995 68.8008 205.32 68.874 205.66 68.874C205.824 68.874 205.979 68.8652 206.126 68.8477C206.272 68.8301 206.431 68.7861 206.601 68.7158C206.771 68.6455 206.967 68.5371 207.189 68.3906C207.412 68.2383 207.685 68.0303 208.007 67.7666L208.394 68.1973Z" fill="white"/>
<path d="M213.236 62.3965C212.943 62.3965 212.677 62.4551 212.437 62.5723C212.202 62.6836 211.997 62.8447 211.821 63.0557C211.646 63.2607 211.499 63.5098 211.382 63.8027C211.271 64.0957 211.191 64.418 211.145 64.7695H214.625C214.76 64.7695 214.848 64.749 214.889 64.708C214.936 64.6611 214.959 64.5762 214.959 64.4531C214.959 64.2891 214.936 64.0898 214.889 63.8555C214.842 63.6211 214.754 63.3955 214.625 63.1787C214.502 62.9619 214.329 62.7773 214.106 62.625C213.884 62.4727 213.594 62.3965 213.236 62.3965ZM216.62 64.9893C216.515 65.1064 216.359 65.2236 216.154 65.3408C215.949 65.4521 215.753 65.5459 215.565 65.6221H211.101C211.106 66.0674 211.168 66.4893 211.285 66.8877C211.402 67.2803 211.566 67.623 211.777 67.916C211.988 68.209 212.243 68.4434 212.542 68.6191C212.847 68.7891 213.189 68.874 213.57 68.874C213.752 68.874 213.928 68.8623 214.098 68.8389C214.273 68.8154 214.461 68.7656 214.66 68.6895C214.859 68.6074 215.082 68.4902 215.328 68.3379C215.574 68.1855 215.864 67.9805 216.198 67.7227C216.274 67.7637 216.348 67.834 216.418 67.9336C216.488 68.0332 216.538 68.1064 216.567 68.1533C216.169 68.5752 215.817 68.915 215.513 69.1729C215.208 69.4307 214.918 69.6328 214.643 69.7793C214.373 69.9199 214.104 70.0137 213.834 70.0605C213.57 70.1074 213.28 70.1309 212.964 70.1309C212.495 70.1309 212.05 70.0342 211.628 69.8408C211.212 69.6416 210.846 69.3633 210.529 69.0059C210.213 68.6484 209.961 68.2178 209.773 67.7139C209.586 67.21 209.492 66.6475 209.492 66.0264C209.492 65.6338 209.533 65.25 209.615 64.875C209.703 64.5 209.826 64.1484 209.984 63.8203C210.148 63.4922 210.348 63.1875 210.582 62.9062C210.816 62.625 211.086 62.3789 211.391 62.168C211.531 62.0684 211.687 61.9746 211.856 61.8867C212.026 61.7988 212.202 61.7227 212.384 61.6582C212.571 61.5879 212.762 61.5322 212.955 61.4912C213.148 61.4502 213.333 61.4297 213.509 61.4297C213.89 61.4297 214.232 61.4795 214.537 61.5791C214.842 61.6787 215.108 61.8164 215.337 61.9922C215.571 62.1621 215.768 62.3643 215.926 62.5986C216.09 62.833 216.222 63.082 216.321 63.3457C216.427 63.6094 216.503 63.8818 216.55 64.1631C216.597 64.4443 216.62 64.7197 216.62 64.9893Z" fill="white"/>
<path d="M223.678 67.3799C223.678 67.7959 223.616 68.1533 223.493 68.4521C223.376 68.7451 223.221 68.9941 223.027 69.1992C222.84 69.4043 222.626 69.5684 222.386 69.6914C222.151 69.8145 221.914 69.9082 221.674 69.9727C221.439 70.0371 221.217 70.0781 221.006 70.0957C220.801 70.1191 220.634 70.1309 220.505 70.1309C220.347 70.1309 220.174 70.1162 219.986 70.0869C219.799 70.0635 219.603 70.0254 219.397 69.9727C219.198 69.9199 218.993 69.8525 218.782 69.7705C218.571 69.6885 218.369 69.5947 218.176 69.4893C218.135 69.4717 218.105 69.375 218.088 69.1992C218.076 69.0176 218.07 68.8096 218.07 68.5752C218.076 68.335 218.094 68.0889 218.123 67.8369C218.152 67.585 218.19 67.3799 218.237 67.2217L218.721 67.3184C218.75 67.5879 218.826 67.8369 218.949 68.0654C219.072 68.2881 219.23 68.4844 219.424 68.6543C219.617 68.8184 219.84 68.9473 220.092 69.041C220.344 69.1348 220.613 69.1816 220.9 69.1816C221.322 69.1816 221.656 69.0732 221.902 68.8564C222.148 68.6338 222.271 68.3262 222.271 67.9336C222.271 67.6992 222.21 67.4912 222.087 67.3096C221.964 67.1279 221.8 66.9609 221.595 66.8086C221.396 66.6562 221.167 66.5127 220.909 66.3779C220.651 66.2432 220.388 66.1055 220.118 65.9648C219.872 65.8418 219.632 65.71 219.397 65.5693C219.163 65.4229 218.952 65.2617 218.765 65.0859C218.583 64.9043 218.437 64.7051 218.325 64.4883C218.214 64.2656 218.158 64.0137 218.158 63.7324C218.158 63.3691 218.237 63.0439 218.396 62.7568C218.554 62.4697 218.762 62.2295 219.02 62.0361C219.277 61.8369 219.573 61.6875 219.907 61.5879C220.247 61.4824 220.593 61.4297 220.944 61.4297C221.149 61.4297 221.366 61.4473 221.595 61.4824C221.829 61.5117 222.055 61.5557 222.271 61.6143C222.494 61.6729 222.699 61.7432 222.887 61.8252C223.08 61.9072 223.238 62.001 223.361 62.1064C223.396 62.1357 223.402 62.2207 223.379 62.3613C223.355 62.4961 223.314 62.6484 223.256 62.8184C223.203 62.9824 223.142 63.1436 223.071 63.3018C223.007 63.4541 222.951 63.5596 222.904 63.6182L222.474 63.5479C222.239 63.0967 221.973 62.7715 221.674 62.5723C221.381 62.3672 221.076 62.2646 220.76 62.2646C220.572 62.2646 220.402 62.2939 220.25 62.3525C220.104 62.4111 219.978 62.4873 219.872 62.5811C219.772 62.6689 219.696 62.7715 219.644 62.8887C219.591 63.0059 219.564 63.126 219.564 63.249C219.564 63.4365 219.617 63.6064 219.723 63.7588C219.828 63.9053 219.969 64.0459 220.145 64.1807C220.326 64.3096 220.534 64.4355 220.769 64.5586C221.009 64.6816 221.261 64.8135 221.524 64.9541C221.776 65.083 222.031 65.2207 222.289 65.3672C222.547 65.5137 222.778 65.6836 222.983 65.877C223.188 66.0645 223.355 66.2812 223.484 66.5273C223.613 66.7676 223.678 67.0518 223.678 67.3799Z" fill="white"/>
<path d="M235.218 65.1211L233.706 60.7441L232.265 65.1211H235.218ZM231.975 66L231.043 68.8037C230.984 68.9854 231.061 69.1172 231.271 69.1992C231.482 69.2812 231.828 69.3486 232.309 69.4014V69.8672H228.591V69.4014C228.989 69.3311 229.303 69.2578 229.531 69.1816C229.76 69.1055 229.903 68.9795 229.962 68.8037L233.161 59.083C233.349 58.9072 233.565 58.752 233.812 58.6172C234.063 58.4824 234.292 58.374 234.497 58.292L238.188 68.8037C238.218 68.8857 238.256 68.959 238.303 69.0234C238.355 69.0879 238.426 69.1436 238.514 69.1904C238.602 69.2373 238.71 69.2783 238.839 69.3135C238.974 69.3486 239.135 69.3779 239.322 69.4014V69.8672H235.394V69.4014C235.851 69.3721 236.164 69.3135 236.334 69.2256C236.504 69.1377 236.557 68.9971 236.492 68.8037L235.525 66H231.975Z" fill="white"/>
<path d="M246.582 61.7725C246.635 61.8076 246.655 61.9248 246.644 62.124C246.632 62.3174 246.6 62.543 246.547 62.8008C246.5 63.0586 246.438 63.3193 246.362 63.583C246.286 63.8408 246.213 64.0488 246.143 64.207H245.677C245.612 63.7324 245.495 63.3779 245.325 63.1436C245.155 62.9092 244.947 62.792 244.701 62.792C244.578 62.792 244.435 62.8359 244.271 62.9238C244.112 63.0117 243.945 63.1553 243.77 63.3545C243.594 63.5479 243.418 63.8027 243.242 64.1191C243.072 64.4355 242.911 64.8252 242.759 65.2881V68.8652C242.759 68.9531 242.873 69.0439 243.102 69.1377C243.33 69.2314 243.72 69.3193 244.271 69.4014V69.8672H239.973V69.4014C240.359 69.3135 240.655 69.2285 240.86 69.1465C241.071 69.0586 241.177 68.9648 241.177 68.8652V63.8994C241.177 63.7061 241.171 63.5449 241.159 63.416C241.147 63.2812 241.133 63.1729 241.115 63.0908C241.098 63.0088 241.074 62.9443 241.045 62.8975C241.021 62.8506 240.998 62.8125 240.975 62.7832C240.934 62.7422 240.89 62.71 240.843 62.6865C240.796 62.6572 240.734 62.6338 240.658 62.6162C240.582 62.5986 240.488 62.5869 240.377 62.5811C240.271 62.5693 240.137 62.5576 239.973 62.5459V62.1064C240.207 62.0596 240.427 62.0127 240.632 61.9658C240.837 61.9189 241.033 61.8691 241.221 61.8164C241.408 61.7637 241.59 61.708 241.766 61.6494C241.947 61.585 242.126 61.5117 242.302 61.4297L242.627 61.7549L242.741 63.5127C242.899 63.2197 243.072 62.9473 243.26 62.6953C243.453 62.4434 243.655 62.2236 243.866 62.0361C244.083 61.8486 244.309 61.7021 244.543 61.5967C244.783 61.4854 245.029 61.4297 245.281 61.4297C245.486 61.4297 245.7 61.4561 245.923 61.5088C246.146 61.5615 246.365 61.6494 246.582 61.7725Z" fill="white"/>
<path d="M254.466 68.1973C254.085 68.6426 253.742 68.9941 253.438 69.252C253.139 69.5039 252.857 69.6973 252.594 69.832C252.336 69.9609 252.084 70.043 251.838 70.0781C251.592 70.1133 251.331 70.1309 251.056 70.1309C250.61 70.1309 250.18 70.0371 249.764 69.8496C249.348 69.6562 248.979 69.3809 248.656 69.0234C248.334 68.666 248.073 68.2295 247.874 67.7139C247.681 67.1982 247.584 66.6152 247.584 65.9648C247.584 65.332 247.698 64.7402 247.927 64.1895C248.161 63.6387 248.48 63.1611 248.885 62.7568C249.295 62.3467 249.778 62.0244 250.335 61.79C250.897 61.5498 251.504 61.4297 252.154 61.4297C252.348 61.4297 252.553 61.4473 252.77 61.4824C252.986 61.5117 253.194 61.5586 253.394 61.623C253.599 61.6816 253.783 61.7549 253.947 61.8428C254.117 61.9248 254.252 62.0186 254.352 62.124C254.363 62.1943 254.352 62.3086 254.316 62.4668C254.281 62.625 254.231 62.7949 254.167 62.9766C254.108 63.1523 254.044 63.3223 253.974 63.4863C253.903 63.6445 253.842 63.7646 253.789 63.8467L253.376 63.7588C253.312 63.5947 253.224 63.4336 253.112 63.2754C253.007 63.1172 252.872 62.9766 252.708 62.8535C252.55 62.7305 252.362 62.6309 252.146 62.5547C251.935 62.4785 251.688 62.4404 251.407 62.4404C251.114 62.4404 250.833 62.5049 250.563 62.6338C250.294 62.7627 250.057 62.9619 249.852 63.2314C249.646 63.501 249.479 63.8408 249.351 64.251C249.228 64.6553 249.166 65.1357 249.166 65.6924C249.166 66.1787 249.236 66.6182 249.377 67.0107C249.518 67.4033 249.705 67.7373 249.939 68.0127C250.174 68.2881 250.446 68.502 250.757 68.6543C251.067 68.8008 251.393 68.874 251.732 68.874C251.896 68.874 252.052 68.8652 252.198 68.8477C252.345 68.8301 252.503 68.7861 252.673 68.7158C252.843 68.6455 253.039 68.5371 253.262 68.3906C253.484 68.2383 253.757 68.0303 254.079 67.7666L254.466 68.1973Z" fill="white"/>
<path d="M260.776 69.8672V69.4014C261.198 69.29 261.503 69.1934 261.69 69.1113C261.884 69.0293 261.98 68.9473 261.98 68.8652V64.4795C261.98 64.1221 261.96 63.832 261.919 63.6094C261.878 63.3809 261.813 63.2021 261.726 63.0732C261.638 62.9385 261.523 62.8477 261.383 62.8008C261.248 62.748 261.087 62.7217 260.899 62.7217C260.513 62.7217 260.082 62.8945 259.607 63.2402C259.139 63.5859 258.655 64.0986 258.157 64.7783V68.8652C258.157 68.9531 258.263 69.0439 258.474 69.1377C258.69 69.2314 258.989 69.3193 259.37 69.4014V69.8672H255.371V69.4014C255.758 69.3018 256.054 69.2139 256.259 69.1377C256.47 69.0557 256.575 68.9648 256.575 68.8652V58.5469C256.575 58.3008 256.563 58.1104 256.54 57.9756C256.522 57.835 256.473 57.7266 256.391 57.6504C256.314 57.5742 256.194 57.5215 256.03 57.4922C255.872 57.457 255.652 57.4219 255.371 57.3867V56.9473C255.646 56.9004 255.893 56.8535 256.109 56.8066C256.332 56.7598 256.537 56.71 256.725 56.6572C256.918 56.5986 257.1 56.5371 257.27 56.4727C257.445 56.4082 257.627 56.332 257.814 56.2441L258.157 56.5605V63.5654C258.438 63.2256 258.734 62.9238 259.045 62.6602C259.355 62.3906 259.663 62.165 259.968 61.9834C260.272 61.8018 260.565 61.6641 260.847 61.5703C261.134 61.4766 261.392 61.4297 261.62 61.4297C261.872 61.4297 262.115 61.4707 262.35 61.5527C262.584 61.6289 262.789 61.749 262.965 61.9131C263.146 62.0771 263.29 62.2881 263.396 62.5459C263.507 62.7979 263.562 63.1025 263.562 63.46V68.8652C263.562 68.9062 263.583 68.9473 263.624 68.9883C263.665 69.0234 263.732 69.0615 263.826 69.1025C263.92 69.1436 264.043 69.1904 264.195 69.2432C264.354 69.29 264.547 69.3428 264.775 69.4014V69.8672H260.776Z" fill="white"/>
<path d="M265.61 69.8672V69.4014C266.009 69.3193 266.308 69.2314 266.507 69.1377C266.712 69.0381 266.814 68.9473 266.814 68.8652V64.04C266.814 63.7412 266.809 63.501 266.797 63.3193C266.791 63.1318 266.75 62.9883 266.674 62.8887C266.604 62.7832 266.486 62.707 266.322 62.6602C266.158 62.6133 265.921 62.5752 265.61 62.5459V62.1064C266.026 62.0361 266.445 61.9424 266.867 61.8252C267.295 61.708 267.676 61.5762 268.01 61.4297H268.396V68.8652C268.396 68.9355 268.49 69.0234 268.678 69.1289C268.871 69.2285 269.182 69.3193 269.609 69.4014V69.8672H265.61ZM268.687 58.7842C268.687 58.96 268.654 59.124 268.59 59.2764C268.531 59.4287 268.449 59.5605 268.344 59.6719C268.238 59.7832 268.112 59.8711 267.966 59.9355C267.825 60 267.673 60.0322 267.509 60.0322C267.228 60.0322 267.008 59.959 266.85 59.8125C266.697 59.6602 266.621 59.4375 266.621 59.1445C266.621 58.9688 266.65 58.8047 266.709 58.6523C266.773 58.5 266.858 58.3682 266.964 58.2568C267.069 58.1455 267.192 58.0605 267.333 58.002C267.474 57.9375 267.623 57.9053 267.781 57.9053C268.057 57.9053 268.276 57.9785 268.44 58.125C268.604 58.2656 268.687 58.4854 268.687 58.7842Z" fill="white"/>
<path d="M278.882 62.1592C278.706 62.2002 278.562 62.2383 278.451 62.2734C278.346 62.3086 278.258 62.3496 278.188 62.3965C278.123 62.4375 278.073 62.4873 278.038 62.5459C278.003 62.5986 277.968 62.6689 277.933 62.7568L275.445 69.2783C275.393 69.4072 275.313 69.5215 275.208 69.6211C275.108 69.7148 274.997 69.7969 274.874 69.8672C274.751 69.9375 274.625 69.9932 274.496 70.0342C274.367 70.0752 274.253 70.1074 274.153 70.1309L271.183 62.7568C271.124 62.5928 271.024 62.4697 270.884 62.3877C270.743 62.2998 270.526 62.2236 270.233 62.1592V61.6934H273.819V62.1592C273.591 62.1885 273.406 62.2178 273.266 62.2471C273.125 62.2764 273.02 62.3145 272.949 62.3613C272.879 62.4023 272.838 62.4551 272.826 62.5195C272.82 62.584 272.835 62.6631 272.87 62.7568L274.944 67.9863L276.887 62.7568C276.922 62.6689 276.937 62.5957 276.931 62.5371C276.925 62.4727 276.89 62.4199 276.825 62.3789C276.767 62.332 276.673 62.2939 276.544 62.2646C276.421 62.2295 276.254 62.1943 276.043 62.1592V61.6934H278.882V62.1592Z" fill="white"/>
<path d="M283.443 62.3965C283.15 62.3965 282.884 62.4551 282.644 62.5723C282.409 62.6836 282.204 62.8447 282.028 63.0557C281.853 63.2607 281.706 63.5098 281.589 63.8027C281.478 64.0957 281.398 64.418 281.352 64.7695H284.832C284.967 64.7695 285.055 64.749 285.096 64.708C285.143 64.6611 285.166 64.5762 285.166 64.4531C285.166 64.2891 285.143 64.0898 285.096 63.8555C285.049 63.6211 284.961 63.3955 284.832 63.1787C284.709 62.9619 284.536 62.7773 284.313 62.625C284.091 62.4727 283.801 62.3965 283.443 62.3965ZM286.827 64.9893C286.722 65.1064 286.566 65.2236 286.361 65.3408C286.156 65.4521 285.96 65.5459 285.772 65.6221H281.308C281.313 66.0674 281.375 66.4893 281.492 66.8877C281.609 67.2803 281.773 67.623 281.984 67.916C282.195 68.209 282.45 68.4434 282.749 68.6191C283.054 68.7891 283.396 68.874 283.777 68.874C283.959 68.874 284.135 68.8623 284.305 68.8389C284.48 68.8154 284.668 68.7656 284.867 68.6895C285.066 68.6074 285.289 68.4902 285.535 68.3379C285.781 68.1855 286.071 67.9805 286.405 67.7227C286.481 67.7637 286.555 67.834 286.625 67.9336C286.695 68.0332 286.745 68.1064 286.774 68.1533C286.376 68.5752 286.024 68.915 285.72 69.1729C285.415 69.4307 285.125 69.6328 284.85 69.7793C284.58 69.9199 284.311 70.0137 284.041 70.0605C283.777 70.1074 283.487 70.1309 283.171 70.1309C282.702 70.1309 282.257 70.0342 281.835 69.8408C281.419 69.6416 281.053 69.3633 280.736 69.0059C280.42 68.6484 280.168 68.2178 279.98 67.7139C279.793 67.21 279.699 66.6475 279.699 66.0264C279.699 65.6338 279.74 65.25 279.822 64.875C279.91 64.5 280.033 64.1484 280.191 63.8203C280.355 63.4922 280.555 63.1875 280.789 62.9062C281.023 62.625 281.293 62.3789 281.598 62.168C281.738 62.0684 281.894 61.9746 282.063 61.8867C282.233 61.7988 282.409 61.7227 282.591 61.6582C282.778 61.5879 282.969 61.5322 283.162 61.4912C283.355 61.4502 283.54 61.4297 283.716 61.4297C284.097 61.4297 284.439 61.4795 284.744 61.5791C285.049 61.6787 285.315 61.8164 285.544 61.9922C285.778 62.1621 285.975 62.3643 286.133 62.5986C286.297 62.833 286.429 63.082 286.528 63.3457C286.634 63.6094 286.71 63.8818 286.757 64.1631C286.804 64.4443 286.827 64.7197 286.827 64.9893Z" fill="white"/>
<path d="M74.2373 78.0879C74.2373 78.1523 74.1875 78.2402 74.0879 78.3516C73.9941 78.4629 73.8799 78.5771 73.7451 78.6943C73.6162 78.8115 73.4814 78.9229 73.3408 79.0283C73.2061 79.1279 73.0947 79.1982 73.0068 79.2393C72.7256 78.958 72.4473 78.7529 72.1719 78.624C71.9023 78.4951 71.6826 78.4307 71.5127 78.4307C71.3604 78.4307 71.2021 78.4805 71.0381 78.5801C70.8799 78.6797 70.7334 78.8613 70.5986 79.125C70.4639 79.3828 70.3525 79.7402 70.2646 80.1973C70.1768 80.6484 70.1328 81.2285 70.1328 81.9375V82.6934H72.374L72.6553 82.9658C72.6025 83.0537 72.5352 83.1475 72.4531 83.2471C72.377 83.3467 72.2979 83.4404 72.2158 83.5283C72.1396 83.6162 72.0635 83.6953 71.9873 83.7656C71.9111 83.8359 71.8467 83.8887 71.7939 83.9238C71.6592 83.8535 71.4658 83.7861 71.2139 83.7217C70.9619 83.6514 70.6016 83.6162 70.1328 83.6162V89.8828C70.1328 89.918 70.1621 89.9531 70.2207 89.9883C70.2852 90.0234 70.3877 90.0615 70.5283 90.1025C70.6689 90.1377 70.8535 90.1816 71.082 90.2344C71.3164 90.2812 71.6064 90.3369 71.9521 90.4014V90.8672H67.3467V90.4014C67.751 90.3311 68.0527 90.2461 68.252 90.1465C68.4512 90.041 68.5508 89.9531 68.5508 89.8828V83.6162H67.417L67.2148 83.3438L67.9004 82.6934H68.5508V82.4209C68.5508 81.7998 68.5918 81.2666 68.6738 80.8213C68.7617 80.376 68.8789 79.9922 69.0254 79.6699C69.1777 79.3477 69.3535 79.0693 69.5527 78.835C69.7578 78.6006 69.9775 78.3838 70.2119 78.1846C70.3877 78.0322 70.5781 77.8975 70.7832 77.7803C70.9883 77.6631 71.1875 77.5664 71.3809 77.4902C71.5801 77.4082 71.7705 77.3467 71.9521 77.3057C72.1338 77.2646 72.292 77.2441 72.4268 77.2441C72.6377 77.2441 72.8486 77.2793 73.0596 77.3496C73.2764 77.4199 73.4697 77.502 73.6396 77.5957C73.8154 77.6836 73.959 77.7744 74.0703 77.8682C74.1816 77.9619 74.2373 78.0352 74.2373 78.0879Z" fill="white"/>
<path d="M79.502 86.9121C79.502 86.4492 79.4346 86.0098 79.2998 85.5938C79.165 85.1719 78.9863 84.8027 78.7637 84.4863C78.5469 84.1641 78.2949 83.9092 78.0078 83.7217C77.7266 83.5342 77.4365 83.4404 77.1377 83.4404C76.7158 83.4404 76.3643 83.5254 76.083 83.6953C75.8018 83.8594 75.5762 84.0879 75.4062 84.3809C75.2363 84.6738 75.1133 85.0195 75.0371 85.418C74.9668 85.8164 74.9316 86.2471 74.9316 86.71C74.9316 87.1729 75.002 87.6123 75.1426 88.0283C75.2891 88.4385 75.4766 88.7988 75.7051 89.1094C75.9336 89.4199 76.1885 89.666 76.4697 89.8477C76.751 90.0293 77.0264 90.1201 77.2959 90.1201C77.6885 90.1201 78.0225 90.0469 78.2979 89.9004C78.5791 89.748 78.8076 89.5342 78.9834 89.2588C79.165 88.9834 79.2969 88.6465 79.3789 88.248C79.4609 87.8496 79.502 87.4043 79.502 86.9121ZM81.1455 86.6045C81.1455 87.1904 81.0342 87.7559 80.8115 88.3008C80.5947 88.8457 80.2988 89.3291 79.9238 89.751C79.5488 90.167 79.1123 90.501 78.6143 90.7529C78.1221 91.0049 77.6006 91.1309 77.0498 91.1309C76.4756 91.1309 75.957 91.0254 75.4941 90.8145C75.0312 90.6035 74.6357 90.3135 74.3076 89.9443C73.9795 89.5752 73.7246 89.1357 73.543 88.626C73.3672 88.1162 73.2793 87.5625 73.2793 86.9648C73.2793 86.5781 73.3262 86.1973 73.4199 85.8223C73.5195 85.4473 73.6572 85.0928 73.833 84.7588C74.0088 84.4189 74.2197 84.1084 74.4658 83.8271C74.7178 83.54 74.9961 83.2939 75.3008 83.0889C75.6055 82.8838 75.9336 82.7227 76.2852 82.6055C76.6367 82.4883 77.0059 82.4297 77.3926 82.4297C77.9609 82.4297 78.4736 82.5352 78.9307 82.7461C79.3936 82.957 79.7891 83.25 80.1172 83.625C80.4453 83.9941 80.6973 84.4336 80.873 84.9434C81.0547 85.4531 81.1455 86.0068 81.1455 86.6045Z" fill="white"/>
<path d="M88.8887 82.7725C88.9414 82.8076 88.9619 82.9248 88.9502 83.124C88.9385 83.3174 88.9062 83.543 88.8535 83.8008C88.8066 84.0586 88.7451 84.3193 88.6689 84.583C88.5928 84.8408 88.5195 85.0488 88.4492 85.207H87.9834C87.9189 84.7324 87.8018 84.3779 87.6318 84.1436C87.4619 83.9092 87.2539 83.792 87.0078 83.792C86.8848 83.792 86.7412 83.8359 86.5771 83.9238C86.4189 84.0117 86.252 84.1553 86.0762 84.3545C85.9004 84.5479 85.7246 84.8027 85.5488 85.1191C85.3789 85.4355 85.2178 85.8252 85.0654 86.2881V89.8652C85.0654 89.9531 85.1797 90.0439 85.4082 90.1377C85.6367 90.2314 86.0264 90.3193 86.5771 90.4014V90.8672H82.2793V90.4014C82.666 90.3135 82.9619 90.2285 83.167 90.1465C83.3779 90.0586 83.4834 89.9648 83.4834 89.8652V84.8994C83.4834 84.7061 83.4775 84.5449 83.4658 84.416C83.4541 84.2812 83.4395 84.1729 83.4219 84.0908C83.4043 84.0088 83.3809 83.9443 83.3516 83.8975C83.3281 83.8506 83.3047 83.8125 83.2812 83.7832C83.2402 83.7422 83.1963 83.71 83.1494 83.6865C83.1025 83.6572 83.041 83.6338 82.9648 83.6162C82.8887 83.5986 82.7949 83.5869 82.6836 83.5811C82.5781 83.5693 82.4434 83.5576 82.2793 83.5459V83.1064C82.5137 83.0596 82.7334 83.0127 82.9385 82.9658C83.1436 82.9189 83.3398 82.8691 83.5273 82.8164C83.7148 82.7637 83.8965 82.708 84.0723 82.6494C84.2539 82.585 84.4326 82.5117 84.6084 82.4297L84.9336 82.7549L85.0479 84.5127C85.2061 84.2197 85.3789 83.9473 85.5664 83.6953C85.7598 83.4434 85.9619 83.2236 86.1729 83.0361C86.3896 82.8486 86.6152 82.7021 86.8496 82.5967C87.0898 82.4854 87.3359 82.4297 87.5879 82.4297C87.793 82.4297 88.0068 82.4561 88.2295 82.5088C88.4521 82.5615 88.6719 82.6494 88.8887 82.7725Z" fill="white"/>
<path d="M93.8018 90.8672V90.4014C94.2002 90.3193 94.5078 90.2314 94.7246 90.1377C94.9414 90.0381 95.0498 89.9473 95.0498 89.8652V80.8037C95.0498 80.7334 94.9473 80.6455 94.7422 80.54C94.5371 80.4346 94.2236 80.3408 93.8018 80.2588V79.793H97.9766V80.2588C97.5781 80.3408 97.2676 80.4316 97.0449 80.5312C96.8281 80.6309 96.7197 80.7217 96.7197 80.8037V84.627H101.817V80.8037C101.817 80.7334 101.715 80.6455 101.51 80.54C101.305 80.4346 100.991 80.3408 100.569 80.2588V79.793H104.744V80.2588C104.346 80.3408 104.035 80.4316 103.812 80.5312C103.596 80.6309 103.487 80.7217 103.487 80.8037V89.8652C103.487 89.9355 103.59 90.0234 103.795 90.1289C104.006 90.2285 104.322 90.3193 104.744 90.4014V90.8672H100.569V90.4014C100.968 90.3193 101.275 90.2314 101.492 90.1377C101.709 90.0381 101.817 89.9473 101.817 89.8652V85.5059H96.7197V89.8652C96.7197 89.9355 96.8223 90.0234 97.0273 90.1289C97.2324 90.2285 97.5488 90.3193 97.9766 90.4014V90.8672H93.8018Z" fill="white"/>
<path d="M105.931 90.8672V90.4014C106.329 90.3193 106.628 90.2314 106.827 90.1377C107.032 90.0381 107.135 89.9473 107.135 89.8652V85.04C107.135 84.7412 107.129 84.501 107.117 84.3193C107.111 84.1318 107.07 83.9883 106.994 83.8887C106.924 83.7832 106.807 83.707 106.643 83.6602C106.479 83.6133 106.241 83.5752 105.931 83.5459V83.1064C106.347 83.0361 106.766 82.9424 107.188 82.8252C107.615 82.708 107.996 82.5762 108.33 82.4297H108.717V89.8652C108.717 89.9355 108.811 90.0234 108.998 90.1289C109.191 90.2285 109.502 90.3193 109.93 90.4014V90.8672H105.931ZM109.007 79.7842C109.007 79.96 108.975 80.124 108.91 80.2764C108.852 80.4287 108.77 80.5605 108.664 80.6719C108.559 80.7832 108.433 80.8711 108.286 80.9355C108.146 81 107.993 81.0322 107.829 81.0322C107.548 81.0322 107.328 80.959 107.17 80.8125C107.018 80.6602 106.941 80.4375 106.941 80.1445C106.941 79.9688 106.971 79.8047 107.029 79.6523C107.094 79.5 107.179 79.3682 107.284 79.2568C107.39 79.1455 107.513 79.0605 107.653 79.002C107.794 78.9375 107.943 78.9053 108.102 78.9053C108.377 78.9053 108.597 78.9785 108.761 79.125C108.925 79.2656 109.007 79.4854 109.007 79.7842Z" fill="white"/>
<path d="M116.398 85.5938C116.398 85.2891 116.352 85.002 116.258 84.7324C116.164 84.457 116.023 84.2168 115.836 84.0117C115.648 83.8066 115.417 83.6455 115.142 83.5283C114.866 83.4111 114.547 83.3525 114.184 83.3525C114.037 83.3525 113.879 83.3906 113.709 83.4668C113.539 83.5371 113.381 83.6455 113.234 83.792C113.088 83.9326 112.965 84.1113 112.865 84.3281C112.771 84.5391 112.725 84.7881 112.725 85.0752C112.725 85.3799 112.769 85.6699 112.856 85.9453C112.944 86.2148 113.079 86.4521 113.261 86.6572C113.442 86.8564 113.671 87.0146 113.946 87.1318C114.228 87.249 114.559 87.3076 114.939 87.3076C115.109 87.3076 115.279 87.2725 115.449 87.2021C115.625 87.1318 115.783 87.0264 115.924 86.8857C116.064 86.7393 116.179 86.5605 116.267 86.3496C116.354 86.1328 116.398 85.8809 116.398 85.5938ZM115.062 91.0166C114.816 90.9873 114.588 90.9551 114.377 90.9199C114.172 90.8848 113.976 90.8467 113.788 90.8057C113.425 91.0166 113.138 91.207 112.927 91.377C112.716 91.5527 112.555 91.708 112.443 91.8428C112.338 91.9834 112.271 92.1064 112.241 92.2119C112.212 92.3232 112.197 92.4258 112.197 92.5195C112.197 92.748 112.273 92.9648 112.426 93.1699C112.584 93.375 112.798 93.5537 113.067 93.7061C113.337 93.8584 113.65 93.9785 114.008 94.0664C114.365 94.1602 114.743 94.207 115.142 94.207C115.517 94.207 115.854 94.1572 116.152 94.0576C116.457 93.958 116.712 93.8232 116.917 93.6533C117.122 93.4834 117.28 93.2812 117.392 93.0469C117.503 92.8125 117.559 92.5605 117.559 92.291C117.559 92.1445 117.523 92.0068 117.453 91.8779C117.383 91.749 117.254 91.6289 117.066 91.5176C116.885 91.4121 116.633 91.3154 116.311 91.2275C115.988 91.1455 115.572 91.0752 115.062 91.0166ZM117.893 85.2334C117.893 85.6846 117.79 86.0977 117.585 86.4727C117.386 86.8418 117.122 87.1611 116.794 87.4307C116.466 87.6943 116.088 87.9023 115.66 88.0547C115.232 88.2012 114.796 88.2744 114.351 88.2744H114.298C114.04 88.4971 113.864 88.6816 113.771 88.8281C113.683 88.9746 113.639 89.0654 113.639 89.1006C113.639 89.165 113.665 89.2295 113.718 89.2939C113.771 89.3525 113.873 89.4111 114.025 89.4697C114.184 89.5283 114.403 89.5869 114.685 89.6455C114.972 89.6982 115.344 89.7539 115.801 89.8125C116.457 89.8887 116.999 89.9971 117.427 90.1377C117.854 90.2725 118.194 90.4307 118.446 90.6123C118.698 90.7881 118.874 90.9844 118.974 91.2012C119.073 91.418 119.123 91.6436 119.123 91.8779C119.123 92.1826 119.062 92.4785 118.938 92.7656C118.815 93.0527 118.646 93.3193 118.429 93.5654C118.212 93.8174 117.957 94.0459 117.664 94.251C117.377 94.4561 117.066 94.6318 116.732 94.7783C116.398 94.9248 116.05 95.0391 115.687 95.1211C115.323 95.2031 114.966 95.2441 114.614 95.2441C114.327 95.2441 114.028 95.2236 113.718 95.1826C113.413 95.1475 113.111 95.0889 112.812 95.0068C112.52 94.9248 112.238 94.8193 111.969 94.6904C111.705 94.5674 111.471 94.415 111.266 94.2334C111.066 94.0576 110.908 93.8555 110.791 93.627C110.674 93.4043 110.615 93.1494 110.615 92.8623C110.615 92.71 110.645 92.5518 110.703 92.3877C110.762 92.2295 110.873 92.0566 111.037 91.8691C111.207 91.6875 111.441 91.4883 111.74 91.2715C112.039 91.0547 112.432 90.8145 112.918 90.5508C112.555 90.416 112.294 90.2695 112.136 90.1113C111.983 89.9473 111.907 89.7803 111.907 89.6104C111.907 89.5576 111.925 89.4873 111.96 89.3994C112.001 89.3115 112.071 89.2061 112.171 89.083C112.276 88.96 112.417 88.8223 112.593 88.6699C112.774 88.5117 113.003 88.3359 113.278 88.1426C112.974 88.0547 112.695 87.9346 112.443 87.7822C112.191 87.624 111.975 87.4365 111.793 87.2197C111.617 86.9971 111.479 86.748 111.38 86.4727C111.28 86.1973 111.23 85.8984 111.23 85.5762C111.23 85.1484 111.33 84.7441 111.529 84.3633C111.729 83.9766 111.992 83.6426 112.32 83.3613C112.648 83.0742 113.023 82.8486 113.445 82.6846C113.873 82.5146 114.315 82.4297 114.772 82.4297C115.142 82.4297 115.484 82.4824 115.801 82.5879C116.123 82.6875 116.416 82.8281 116.68 83.0098C117.26 82.9453 117.743 82.8545 118.13 82.7373C118.522 82.6201 118.842 82.5176 119.088 82.4297L119.29 82.7109C119.226 82.8633 119.155 83.0186 119.079 83.1768C119.009 83.335 118.912 83.4873 118.789 83.6338C118.578 83.6689 118.364 83.7012 118.147 83.7305C117.937 83.7539 117.699 83.7715 117.436 83.7832C117.582 83.9941 117.693 84.2227 117.77 84.4688C117.852 84.7148 117.893 84.9697 117.893 85.2334Z" fill="white"/>
<path d="M125.231 90.8672V90.4014C125.653 90.29 125.958 90.1934 126.146 90.1113C126.339 90.0293 126.436 89.9473 126.436 89.8652V85.4795C126.436 85.1221 126.415 84.832 126.374 84.6094C126.333 84.3809 126.269 84.2021 126.181 84.0732C126.093 83.9385 125.979 83.8477 125.838 83.8008C125.703 83.748 125.542 83.7217 125.354 83.7217C124.968 83.7217 124.537 83.8945 124.062 84.2402C123.594 84.5859 123.11 85.0986 122.612 85.7783V89.8652C122.612 89.9531 122.718 90.0439 122.929 90.1377C123.146 90.2314 123.444 90.3193 123.825 90.4014V90.8672H119.826V90.4014C120.213 90.3018 120.509 90.2139 120.714 90.1377C120.925 90.0557 121.03 89.9648 121.03 89.8652V79.5469C121.03 79.3008 121.019 79.1104 120.995 78.9756C120.978 78.835 120.928 78.7266 120.846 78.6504C120.77 78.5742 120.649 78.5215 120.485 78.4922C120.327 78.457 120.107 78.4219 119.826 78.3867V77.9473C120.102 77.9004 120.348 77.8535 120.564 77.8066C120.787 77.7598 120.992 77.71 121.18 77.6572C121.373 77.5986 121.555 77.5371 121.725 77.4727C121.9 77.4082 122.082 77.332 122.27 77.2441L122.612 77.5605V84.5654C122.894 84.2256 123.189 83.9238 123.5 83.6602C123.811 83.3906 124.118 83.165 124.423 82.9834C124.728 82.8018 125.021 82.6641 125.302 82.5703C125.589 82.4766 125.847 82.4297 126.075 82.4297C126.327 82.4297 126.57 82.4707 126.805 82.5527C127.039 82.6289 127.244 82.749 127.42 82.9131C127.602 83.0771 127.745 83.2881 127.851 83.5459C127.962 83.7979 128.018 84.1025 128.018 84.46V89.8652C128.018 89.9062 128.038 89.9473 128.079 89.9883C128.12 90.0234 128.188 90.0615 128.281 90.1025C128.375 90.1436 128.498 90.1904 128.65 90.2432C128.809 90.29 129.002 90.3428 129.23 90.4014V90.8672H125.231Z" fill="white"/>
<path d="M133.871 83.3965C133.578 83.3965 133.312 83.4551 133.071 83.5723C132.837 83.6836 132.632 83.8447 132.456 84.0557C132.28 84.2607 132.134 84.5098 132.017 84.8027C131.905 85.0957 131.826 85.418 131.779 85.7695H135.26C135.395 85.7695 135.482 85.749 135.523 85.708C135.57 85.6611 135.594 85.5762 135.594 85.4531C135.594 85.2891 135.57 85.0898 135.523 84.8555C135.477 84.6211 135.389 84.3955 135.26 84.1787C135.137 83.9619 134.964 83.7773 134.741 83.625C134.519 83.4727 134.229 83.3965 133.871 83.3965ZM137.255 85.9893C137.149 86.1064 136.994 86.2236 136.789 86.3408C136.584 86.4521 136.388 86.5459 136.2 86.6221H131.735C131.741 87.0674 131.803 87.4893 131.92 87.8877C132.037 88.2803 132.201 88.623 132.412 88.916C132.623 89.209 132.878 89.4434 133.177 89.6191C133.481 89.7891 133.824 89.874 134.205 89.874C134.387 89.874 134.562 89.8623 134.732 89.8389C134.908 89.8154 135.096 89.7656 135.295 89.6895C135.494 89.6074 135.717 89.4902 135.963 89.3379C136.209 89.1855 136.499 88.9805 136.833 88.7227C136.909 88.7637 136.982 88.834 137.053 88.9336C137.123 89.0332 137.173 89.1064 137.202 89.1533C136.804 89.5752 136.452 89.915 136.147 90.1729C135.843 90.4307 135.553 90.6328 135.277 90.7793C135.008 90.9199 134.738 91.0137 134.469 91.0605C134.205 91.1074 133.915 91.1309 133.599 91.1309C133.13 91.1309 132.685 91.0342 132.263 90.8408C131.847 90.6416 131.48 90.3633 131.164 90.0059C130.848 89.6484 130.596 89.2178 130.408 88.7139C130.221 88.21 130.127 87.6475 130.127 87.0264C130.127 86.6338 130.168 86.25 130.25 85.875C130.338 85.5 130.461 85.1484 130.619 84.8203C130.783 84.4922 130.982 84.1875 131.217 83.9062C131.451 83.625 131.721 83.3789 132.025 83.168C132.166 83.0684 132.321 82.9746 132.491 82.8867C132.661 82.7988 132.837 82.7227 133.019 82.6582C133.206 82.5879 133.396 82.5322 133.59 82.4912C133.783 82.4502 133.968 82.4297 134.144 82.4297C134.524 82.4297 134.867 82.4795 135.172 82.5791C135.477 82.6787 135.743 82.8164 135.972 82.9922C136.206 83.1621 136.402 83.3643 136.561 83.5986C136.725 83.833 136.856 84.082 136.956 84.3457C137.062 84.6094 137.138 84.8818 137.185 85.1631C137.231 85.4443 137.255 85.7197 137.255 85.9893Z" fill="white"/>
<path d="M144.998 82.7725C145.051 82.8076 145.071 82.9248 145.06 83.124C145.048 83.3174 145.016 83.543 144.963 83.8008C144.916 84.0586 144.854 84.3193 144.778 84.583C144.702 84.8408 144.629 85.0488 144.559 85.207H144.093C144.028 84.7324 143.911 84.3779 143.741 84.1436C143.571 83.9092 143.363 83.792 143.117 83.792C142.994 83.792 142.851 83.8359 142.687 83.9238C142.528 84.0117 142.361 84.1553 142.186 84.3545C142.01 84.5479 141.834 84.8027 141.658 85.1191C141.488 85.4355 141.327 85.8252 141.175 86.2881V89.8652C141.175 89.9531 141.289 90.0439 141.518 90.1377C141.746 90.2314 142.136 90.3193 142.687 90.4014V90.8672H138.389V90.4014C138.775 90.3135 139.071 90.2285 139.276 90.1465C139.487 90.0586 139.593 89.9648 139.593 89.8652V84.8994C139.593 84.7061 139.587 84.5449 139.575 84.416C139.563 84.2812 139.549 84.1729 139.531 84.0908C139.514 84.0088 139.49 83.9443 139.461 83.8975C139.438 83.8506 139.414 83.8125 139.391 83.7832C139.35 83.7422 139.306 83.71 139.259 83.6865C139.212 83.6572 139.15 83.6338 139.074 83.6162C138.998 83.5986 138.904 83.5869 138.793 83.5811C138.688 83.5693 138.553 83.5576 138.389 83.5459V83.1064C138.623 83.0596 138.843 83.0127 139.048 82.9658C139.253 82.9189 139.449 82.8691 139.637 82.8164C139.824 82.7637 140.006 82.708 140.182 82.6494C140.363 82.585 140.542 82.5117 140.718 82.4297L141.043 82.7549L141.157 84.5127C141.315 84.2197 141.488 83.9473 141.676 83.6953C141.869 83.4434 142.071 83.2236 142.282 83.0361C142.499 82.8486 142.725 82.7021 142.959 82.5967C143.199 82.4854 143.445 82.4297 143.697 82.4297C143.902 82.4297 144.116 82.4561 144.339 82.5088C144.562 82.5615 144.781 82.6494 144.998 82.7725Z" fill="white"/>
<path d="M158.094 88.5469C158.07 88.7988 158.044 89.0449 158.015 89.2852C157.985 89.5254 157.953 89.751 157.918 89.9619C157.883 90.167 157.848 90.3486 157.812 90.5068C157.783 90.6592 157.757 90.7793 157.733 90.8672H149.911V90.4014C150.31 90.3193 150.617 90.2314 150.834 90.1377C151.051 90.0381 151.159 89.9473 151.159 89.8652V80.8037C151.159 80.7334 151.057 80.6455 150.852 80.54C150.646 80.4346 150.333 80.3408 149.911 80.2588V79.793H157.215L157.522 80.0303C157.511 80.1826 157.493 80.3584 157.47 80.5576C157.446 80.751 157.417 80.9502 157.382 81.1553C157.347 81.3545 157.309 81.5449 157.268 81.7266C157.232 81.9082 157.197 82.0547 157.162 82.166H156.679C156.649 81.627 156.576 81.2432 156.459 81.0146C156.342 80.7861 156.175 80.6719 155.958 80.6719H152.829V84.4072H156.371L156.617 84.6709C156.57 84.7529 156.512 84.8438 156.441 84.9434C156.377 85.043 156.307 85.1396 156.23 85.2334C156.16 85.3271 156.087 85.415 156.011 85.4971C155.94 85.5791 155.873 85.6436 155.809 85.6904C155.721 85.6025 155.624 85.5293 155.519 85.4707C155.419 85.4121 155.302 85.3623 155.167 85.3213C155.038 85.2803 154.883 85.251 154.701 85.2334C154.525 85.2158 154.314 85.207 154.068 85.207H152.829V89.4258C152.829 89.5137 152.85 89.5928 152.891 89.6631C152.932 89.7275 153.017 89.7861 153.146 89.8389C153.274 89.8857 153.456 89.9238 153.69 89.9531C153.925 89.9766 154.235 89.9883 154.622 89.9883H155.668C155.938 89.9883 156.166 89.9678 156.354 89.9268C156.547 89.8857 156.717 89.8066 156.863 89.6895C157.01 89.5723 157.142 89.4082 157.259 89.1973C157.382 88.9863 157.505 88.708 157.628 88.3623L158.094 88.5469Z" fill="white"/>
<path d="M168.096 90.041C167.551 90.4043 167.094 90.6768 166.725 90.8584C166.355 91.04 166.089 91.1309 165.925 91.1309C165.72 91.1309 165.553 90.999 165.424 90.7354C165.301 90.4717 165.216 90.0439 165.169 89.4521C164.929 89.7217 164.7 89.9619 164.483 90.1729C164.267 90.3779 164.044 90.5537 163.815 90.7002C163.587 90.8408 163.35 90.9463 163.104 91.0166C162.857 91.0928 162.588 91.1309 162.295 91.1309C161.949 91.1309 161.595 91.0371 161.231 90.8496C160.874 90.6562 160.549 90.3809 160.256 90.0234C159.963 89.666 159.723 89.2295 159.535 88.7139C159.348 88.1982 159.254 87.6152 159.254 86.9648C159.254 86.6074 159.298 86.25 159.386 85.8926C159.479 85.5293 159.611 85.1807 159.781 84.8467C159.957 84.5068 160.168 84.1904 160.414 83.8975C160.666 83.6045 160.947 83.3496 161.258 83.1328C161.568 82.916 161.905 82.7461 162.269 82.623C162.638 82.4941 163.027 82.4297 163.438 82.4297C163.713 82.4297 163.985 82.4648 164.255 82.5352C164.53 82.5996 164.826 82.7432 165.143 82.9658V79.7578C165.143 79.4355 165.134 79.1807 165.116 78.9932C165.104 78.7998 165.058 78.6533 164.976 78.5537C164.899 78.4482 164.776 78.3779 164.606 78.3428C164.442 78.3018 164.205 78.2695 163.895 78.2461V77.8154C164.428 77.751 164.908 77.666 165.336 77.5605C165.764 77.4492 166.13 77.3438 166.435 77.2441L166.725 77.5254V88.5029C166.725 88.708 166.728 88.8838 166.733 89.0303C166.745 89.1709 166.76 89.291 166.777 89.3906C166.795 89.4844 166.815 89.5605 166.839 89.6191C166.862 89.6777 166.892 89.7246 166.927 89.7598C166.956 89.7891 166.991 89.8096 167.032 89.8213C167.079 89.8271 167.141 89.8242 167.217 89.8125C167.299 89.7949 167.396 89.7686 167.507 89.7334C167.624 89.6982 167.768 89.6455 167.938 89.5752L168.096 90.041ZM165.143 88.5557V84.5215C164.943 84.1816 164.674 83.9209 164.334 83.7393C164 83.5518 163.625 83.458 163.209 83.458C162.863 83.458 162.544 83.5225 162.251 83.6514C161.964 83.7803 161.715 83.9766 161.504 84.2402C161.293 84.5039 161.129 84.835 161.012 85.2334C160.895 85.626 160.836 86.0889 160.836 86.6221C160.836 87.1084 160.903 87.5508 161.038 87.9492C161.173 88.3418 161.346 88.6758 161.557 88.9512C161.768 89.2266 162.002 89.4404 162.26 89.5928C162.518 89.7393 162.767 89.8125 163.007 89.8125C163.194 89.8125 163.376 89.7803 163.552 89.7158C163.733 89.6455 163.912 89.5547 164.088 89.4434C164.264 89.3262 164.439 89.1914 164.615 89.0391C164.791 88.8867 164.967 88.7256 165.143 88.5557Z" fill="white"/>
<path d="M177.825 90.0586C177.608 90.1992 177.389 90.334 177.166 90.4629C176.949 90.5918 176.744 90.7061 176.551 90.8057C176.357 90.9053 176.185 90.9844 176.032 91.043C175.886 91.1016 175.777 91.1309 175.707 91.1309C175.602 91.1309 175.505 91.1016 175.417 91.043C175.329 90.9844 175.25 90.8906 175.18 90.7617C175.109 90.6328 175.048 90.4658 174.995 90.2607C174.948 90.0498 174.913 89.7949 174.89 89.4961C174.526 89.8477 174.195 90.1318 173.896 90.3486C173.598 90.5596 173.322 90.7236 173.07 90.8408C172.824 90.958 172.596 91.0342 172.385 91.0693C172.18 91.1104 171.983 91.1309 171.796 91.1309C171.521 91.1309 171.254 91.0928 170.996 91.0166C170.744 90.9404 170.519 90.8027 170.319 90.6035C170.12 90.3984 169.959 90.1201 169.836 89.7686C169.719 89.417 169.66 88.9658 169.66 88.415V84.6797C169.66 84.3984 169.651 84.1816 169.634 84.0293C169.622 83.8711 169.581 83.7539 169.511 83.6777C169.44 83.5957 169.329 83.54 169.177 83.5107C169.03 83.4814 168.822 83.4521 168.553 83.4229V82.9834C168.787 82.96 169.007 82.9336 169.212 82.9043C169.417 82.8691 169.613 82.8311 169.801 82.79C169.994 82.7432 170.185 82.6904 170.372 82.6318C170.565 82.5732 170.768 82.5059 170.979 82.4297L171.242 82.79V87.9053C171.242 88.3037 171.269 88.6318 171.321 88.8896C171.38 89.1475 171.462 89.3525 171.567 89.5049C171.673 89.6572 171.802 89.7656 171.954 89.8301C172.112 89.8887 172.288 89.918 172.481 89.918C172.646 89.918 172.815 89.8945 172.991 89.8477C173.173 89.8008 173.36 89.7246 173.554 89.6191C173.753 89.5137 173.961 89.376 174.178 89.2061C174.4 89.0303 174.638 88.8164 174.89 88.5645V84.6797C174.89 84.416 174.878 84.2051 174.854 84.0469C174.831 83.8887 174.775 83.7656 174.688 83.6777C174.605 83.5898 174.485 83.5283 174.327 83.4932C174.169 83.458 173.955 83.4346 173.686 83.4229V82.9834C174.16 82.9307 174.605 82.8545 175.021 82.7549C175.438 82.6494 175.827 82.541 176.19 82.4297L176.472 82.79V88.5469C176.472 88.9102 176.483 89.1914 176.507 89.3906C176.536 89.5898 176.592 89.7188 176.674 89.7773C176.744 89.8242 176.855 89.8359 177.008 89.8125C177.166 89.7832 177.395 89.7041 177.693 89.5752L177.825 90.0586Z" fill="white"/>
<path d="M185.489 89.1973C185.108 89.6426 184.766 89.9941 184.461 90.252C184.162 90.5039 183.881 90.6973 183.617 90.832C183.359 90.9609 183.107 91.043 182.861 91.0781C182.615 91.1133 182.354 91.1309 182.079 91.1309C181.634 91.1309 181.203 91.0371 180.787 90.8496C180.371 90.6562 180.002 90.3809 179.68 90.0234C179.357 89.666 179.097 89.2295 178.897 88.7139C178.704 88.1982 178.607 87.6152 178.607 86.9648C178.607 86.332 178.722 85.7402 178.95 85.1895C179.185 84.6387 179.504 84.1611 179.908 83.7568C180.318 83.3467 180.802 83.0244 181.358 82.79C181.921 82.5498 182.527 82.4297 183.178 82.4297C183.371 82.4297 183.576 82.4473 183.793 82.4824C184.01 82.5117 184.218 82.5586 184.417 82.623C184.622 82.6816 184.807 82.7549 184.971 82.8428C185.141 82.9248 185.275 83.0186 185.375 83.124C185.387 83.1943 185.375 83.3086 185.34 83.4668C185.305 83.625 185.255 83.7949 185.19 83.9766C185.132 84.1523 185.067 84.3223 184.997 84.4863C184.927 84.6445 184.865 84.7646 184.812 84.8467L184.399 84.7588C184.335 84.5947 184.247 84.4336 184.136 84.2754C184.03 84.1172 183.896 83.9766 183.731 83.8535C183.573 83.7305 183.386 83.6309 183.169 83.5547C182.958 83.4785 182.712 83.4404 182.431 83.4404C182.138 83.4404 181.856 83.5049 181.587 83.6338C181.317 83.7627 181.08 83.9619 180.875 84.2314C180.67 84.501 180.503 84.8408 180.374 85.251C180.251 85.6553 180.189 86.1357 180.189 86.6924C180.189 87.1787 180.26 87.6182 180.4 88.0107C180.541 88.4033 180.729 88.7373 180.963 89.0127C181.197 89.2881 181.47 89.502 181.78 89.6543C182.091 89.8008 182.416 89.874 182.756 89.874C182.92 89.874 183.075 89.8652 183.222 89.8477C183.368 89.8301 183.526 89.7861 183.696 89.7158C183.866 89.6455 184.062 89.5371 184.285 89.3906C184.508 89.2383 184.78 89.0303 185.103 88.7666L185.489 89.1973Z" fill="white"/>
<path d="M189.198 89.8564C189.503 89.8564 189.834 89.7773 190.191 89.6191C190.555 89.4551 190.959 89.1826 191.404 88.8018V86.6396C190.959 86.71 190.59 86.7803 190.297 86.8506C190.004 86.9209 189.761 86.9941 189.567 87.0703C189.374 87.1406 189.219 87.2168 189.102 87.2988C188.99 87.375 188.891 87.46 188.803 87.5537C188.65 87.7119 188.527 87.8877 188.434 88.0811C188.34 88.2744 188.293 88.5029 188.293 88.7666C188.293 88.9893 188.325 89.1709 188.39 89.3115C188.454 89.4521 188.533 89.5635 188.627 89.6455C188.721 89.7275 188.82 89.7832 188.926 89.8125C189.031 89.8418 189.122 89.8564 189.198 89.8564ZM194.331 90.0586C193.833 90.4043 193.388 90.6709 192.995 90.8584C192.608 91.04 192.324 91.1309 192.143 91.1309C191.938 91.1309 191.768 90.999 191.633 90.7354C191.504 90.4717 191.428 90.1084 191.404 89.6455C191.141 89.915 190.877 90.1436 190.613 90.3311C190.35 90.5186 190.092 90.6738 189.84 90.7969C189.594 90.9141 189.356 90.999 189.128 91.0518C188.899 91.1045 188.691 91.1309 188.504 91.1309C188.281 91.1309 188.056 91.0928 187.827 91.0166C187.604 90.9463 187.399 90.832 187.212 90.6738C187.03 90.5156 186.881 90.3135 186.764 90.0674C186.646 89.8213 186.588 89.5283 186.588 89.1885C186.588 88.7607 186.664 88.4004 186.816 88.1074C186.969 87.8145 187.153 87.5596 187.37 87.3428C187.511 87.2021 187.672 87.0674 187.854 86.9385C188.035 86.8096 188.272 86.6865 188.565 86.5693C188.864 86.4521 189.239 86.3408 189.69 86.2354C190.147 86.124 190.719 86.0156 191.404 85.9102V84.7412C191.404 84.5479 191.384 84.3691 191.343 84.2051C191.302 84.0352 191.229 83.8916 191.123 83.7744C191.018 83.6514 190.877 83.5576 190.701 83.4932C190.525 83.4229 190.306 83.3906 190.042 83.3965C189.866 83.3965 189.696 83.4258 189.532 83.4844C189.368 83.543 189.222 83.6221 189.093 83.7217C188.964 83.8213 188.864 83.9443 188.794 84.0908C188.724 84.2314 188.697 84.3896 188.715 84.5654C188.721 84.6006 188.686 84.6416 188.609 84.6885C188.539 84.7354 188.445 84.7822 188.328 84.8291C188.217 84.876 188.091 84.9199 187.95 84.9609C187.815 85.002 187.681 85.0371 187.546 85.0664C187.417 85.0957 187.297 85.1191 187.186 85.1367C187.08 85.1484 187.004 85.1484 186.957 85.1367L186.816 84.75C186.951 84.4395 187.162 84.1436 187.449 83.8623C187.736 83.5811 188.064 83.335 188.434 83.124C188.803 82.9131 189.198 82.7461 189.62 82.623C190.042 82.4941 190.458 82.4297 190.868 82.4297C191.565 82.4297 192.093 82.6084 192.45 82.9658C192.808 83.3232 192.986 83.8037 192.986 84.4072V89.127C192.986 89.373 193.019 89.5488 193.083 89.6543C193.147 89.7598 193.232 89.8125 193.338 89.8125C193.42 89.8125 193.522 89.7979 193.646 89.7686C193.769 89.7393 193.947 89.6748 194.182 89.5752L194.331 90.0586Z" fill="white"/>
<path d="M200.554 89.7246C199.909 90.1992 199.32 90.5537 198.787 90.7881C198.254 91.0166 197.832 91.1309 197.521 91.1309C197.305 91.1309 197.097 91.0869 196.897 90.999C196.698 90.917 196.522 90.7852 196.37 90.6035C196.224 90.4219 196.106 90.1875 196.019 89.9004C195.931 89.6133 195.887 89.2646 195.887 88.8545V83.6162H194.779L194.568 83.3438L195.254 82.6934H195.887V80.6367L197.179 79.5908L197.469 79.8369V82.6934H200.281L200.554 82.9658C200.501 83.0537 200.434 83.1475 200.352 83.2471C200.275 83.3467 200.196 83.4404 200.114 83.5283C200.032 83.6162 199.95 83.6953 199.868 83.7656C199.792 83.8359 199.725 83.8887 199.666 83.9238C199.525 83.8535 199.312 83.7861 199.024 83.7217C198.743 83.6514 198.392 83.6162 197.97 83.6162H197.469V88.0811C197.469 88.415 197.486 88.6934 197.521 88.916C197.557 89.1387 197.609 89.3203 197.68 89.4609C197.75 89.5957 197.841 89.6924 197.952 89.751C198.063 89.8037 198.195 89.8301 198.348 89.8301C198.553 89.8301 198.805 89.7891 199.104 89.707C199.402 89.6191 199.786 89.4551 200.255 89.2148L200.554 89.7246Z" fill="white"/>
<path d="M201.397 90.8672V90.4014C201.796 90.3193 202.095 90.2314 202.294 90.1377C202.499 90.0381 202.602 89.9473 202.602 89.8652V85.04C202.602 84.7412 202.596 84.501 202.584 84.3193C202.578 84.1318 202.537 83.9883 202.461 83.8887C202.391 83.7832 202.273 83.707 202.109 83.6602C201.945 83.6133 201.708 83.5752 201.397 83.5459V83.1064C201.813 83.0361 202.232 82.9424 202.654 82.8252C203.082 82.708 203.463 82.5762 203.797 82.4297H204.184V89.8652C204.184 89.9355 204.277 90.0234 204.465 90.1289C204.658 90.2285 204.969 90.3193 205.396 90.4014V90.8672H201.397ZM204.474 79.7842C204.474 79.96 204.441 80.124 204.377 80.2764C204.318 80.4287 204.236 80.5605 204.131 80.6719C204.025 80.7832 203.899 80.8711 203.753 80.9355C203.612 81 203.46 81.0322 203.296 81.0322C203.015 81.0322 202.795 80.959 202.637 80.8125C202.484 80.6602 202.408 80.4375 202.408 80.1445C202.408 79.9688 202.438 79.8047 202.496 79.6523C202.561 79.5 202.646 79.3682 202.751 79.2568C202.856 79.1455 202.979 79.0605 203.12 79.002C203.261 78.9375 203.41 78.9053 203.568 78.9053C203.844 78.9053 204.063 78.9785 204.228 79.125C204.392 79.2656 204.474 79.4854 204.474 79.7842Z" fill="white"/>
<path d="M212.744 86.9121C212.744 86.4492 212.677 86.0098 212.542 85.5938C212.407 85.1719 212.229 84.8027 212.006 84.4863C211.789 84.1641 211.537 83.9092 211.25 83.7217C210.969 83.5342 210.679 83.4404 210.38 83.4404C209.958 83.4404 209.606 83.5254 209.325 83.6953C209.044 83.8594 208.818 84.0879 208.648 84.3809C208.479 84.6738 208.355 85.0195 208.279 85.418C208.209 85.8164 208.174 86.2471 208.174 86.71C208.174 87.1729 208.244 87.6123 208.385 88.0283C208.531 88.4385 208.719 88.7988 208.947 89.1094C209.176 89.4199 209.431 89.666 209.712 89.8477C209.993 90.0293 210.269 90.1201 210.538 90.1201C210.931 90.1201 211.265 90.0469 211.54 89.9004C211.821 89.748 212.05 89.5342 212.226 89.2588C212.407 88.9834 212.539 88.6465 212.621 88.248C212.703 87.8496 212.744 87.4043 212.744 86.9121ZM214.388 86.6045C214.388 87.1904 214.276 87.7559 214.054 88.3008C213.837 88.8457 213.541 89.3291 213.166 89.751C212.791 90.167 212.354 90.501 211.856 90.7529C211.364 91.0049 210.843 91.1309 210.292 91.1309C209.718 91.1309 209.199 91.0254 208.736 90.8145C208.273 90.6035 207.878 90.3135 207.55 89.9443C207.222 89.5752 206.967 89.1357 206.785 88.626C206.609 88.1162 206.521 87.5625 206.521 86.9648C206.521 86.5781 206.568 86.1973 206.662 85.8223C206.762 85.4473 206.899 85.0928 207.075 84.7588C207.251 84.4189 207.462 84.1084 207.708 83.8271C207.96 83.54 208.238 83.2939 208.543 83.0889C208.848 82.8838 209.176 82.7227 209.527 82.6055C209.879 82.4883 210.248 82.4297 210.635 82.4297C211.203 82.4297 211.716 82.5352 212.173 82.7461C212.636 82.957 213.031 83.25 213.359 83.625C213.688 83.9941 213.939 84.4336 214.115 84.9434C214.297 85.4531 214.388 86.0068 214.388 86.6045Z" fill="white"/>
<path d="M220.927 90.8672V90.4014C221.349 90.29 221.653 90.1934 221.841 90.1113C222.034 90.0293 222.131 89.9473 222.131 89.8652V85.4355C222.131 85.0898 222.113 84.8057 222.078 84.583C222.043 84.3604 221.981 84.1875 221.894 84.0645C221.812 83.9355 221.703 83.8477 221.568 83.8008C221.434 83.748 221.27 83.7217 221.076 83.7217C220.906 83.7217 220.719 83.7568 220.514 83.8271C220.314 83.8975 220.098 84.0146 219.863 84.1787C219.635 84.3369 219.389 84.5479 219.125 84.8115C218.861 85.0693 218.589 85.3916 218.308 85.7783V89.8652C218.308 89.9531 218.413 90.0439 218.624 90.1377C218.841 90.2314 219.14 90.3193 219.521 90.4014V90.8672H215.521V90.4014C215.908 90.3018 216.204 90.2139 216.409 90.1377C216.62 90.0557 216.726 89.9648 216.726 89.8652V84.6797C216.726 84.4512 216.717 84.2695 216.699 84.1348C216.688 84 216.644 83.8945 216.567 83.8184C216.491 83.7422 216.371 83.6865 216.207 83.6514C216.049 83.6162 215.82 83.5811 215.521 83.5459V83.1064C215.973 83.042 216.383 82.9541 216.752 82.8428C217.121 82.7314 217.487 82.5938 217.851 82.4297L218.176 82.7549L218.272 84.6357C218.56 84.2783 218.858 83.9619 219.169 83.6865C219.485 83.4111 219.796 83.1826 220.101 83.001C220.411 82.8135 220.71 82.6729 220.997 82.5791C221.284 82.4795 221.542 82.4297 221.771 82.4297C222.022 82.4297 222.266 82.4707 222.5 82.5527C222.734 82.6289 222.939 82.749 223.115 82.9131C223.297 83.0771 223.44 83.2881 223.546 83.5459C223.657 83.7979 223.713 84.1025 223.713 84.46V89.8652C223.713 89.9062 223.733 89.9473 223.774 89.9883C223.815 90.0234 223.883 90.0615 223.977 90.1025C224.07 90.1436 224.193 90.1904 224.346 90.2432C224.504 90.29 224.697 90.3428 224.926 90.4014V90.8672H220.927Z" fill="white"/>
</svg>
