<svg width="120" height="75" viewBox="0 0 120 75" fill="none" xmlns="http://www.w3.org/2000/svg">
<rect x="0.5" y="0.5" width="119" height="74" fill="white" stroke="#8D8D8D"/>
<path d="M77.5156 26.9465C76.3062 26.4902 74.4219 26.0059 72.0781 26.0059C66.0781 26.0059 61.8438 29.0309 61.8125 33.3652C61.775 36.5527 64.825 38.3465 67.1281 39.4152C69.4938 40.509 70.2844 41.1965 70.2781 42.1809C70.2625 43.6715 68.3875 44.3465 66.6469 44.3465C64.2531 44.3465 62.9406 44.0121 60.925 43.1746L60.1781 42.8277L59.3313 47.8215C60.7875 48.4309 63.4125 48.9527 66.1281 48.9934C72.5062 48.9934 76.675 45.9902 76.725 41.3715C76.775 38.8309 75.1312 36.9027 71.6594 35.3152C69.5531 34.284 68.2406 33.5934 68.2406 32.5465C68.2406 31.6215 69.3625 30.634 71.7063 30.634C73.7219 30.6027 75.1313 31.0371 76.2531 31.4871L76.8156 31.7402L77.6625 26.9152L77.5156 26.9465ZM93.0875 26.4152H88.4C86.9406 26.4152 85.85 26.8121 85.2094 28.2621L76.1937 48.6809H82.5719L83.8469 45.3371L91.6281 45.3434C91.8187 46.1246 92.3781 48.6809 92.3781 48.6809H98L93.0875 26.4152ZM53.1875 26.2277H59.2594L55.4625 48.5059H49.3875L53.1875 26.2215V26.2277ZM37.7531 38.5059L38.3844 41.5996L44.325 26.4152H50.7594L41.1938 48.6496H34.775L29.525 29.8184C29.4156 29.4965 29.2812 29.2777 28.9625 29.0777C27.1875 28.1496 25.2031 27.3934 23 26.8684L23.0781 26.3996H32.8625C34.1875 26.4496 35.2563 26.8684 35.6219 28.2871L37.7531 38.5152V38.5059ZM85.5906 40.7777L88.0125 34.5465C87.9813 34.609 88.5125 33.259 88.8187 32.4215L89.2344 34.3434L90.6375 40.7715H85.5906V40.7777Z" fill="#1A1F71"/>
</svg>
