<svg width="268" height="18" viewBox="0 0 268 18" fill="none" xmlns="http://www.w3.org/2000/svg">
<path d="M0.67857 14V1.526H8.56257V3.452H2.94657V6.638H7.93257V8.564H2.94657V14H0.67857ZM15.3916 6.548C15.2116 6.488 14.9596 6.428 14.6356 6.368C14.3236 6.296 13.9576 6.26 13.5376 6.26C13.2976 6.26 13.0396 6.284 12.7636 6.332C12.4996 6.38 12.3136 6.422 12.2056 6.458V14H10.0276V5.036C10.4476 4.88 10.9696 4.736 11.5936 4.604C12.2296 4.46 12.9316 4.388 13.6996 4.388C13.8436 4.388 14.0116 4.4 14.2036 4.424C14.3956 4.436 14.5876 4.46 14.7796 4.496C14.9716 4.52 15.1576 4.556 15.3376 4.604C15.5176 4.64 15.6616 4.676 15.7696 4.712L15.3916 6.548ZM20.5994 12.47C21.2714 12.47 21.7814 12.434 22.1294 12.362V9.95C22.0094 9.914 21.8354 9.878 21.6074 9.842C21.3794 9.806 21.1274 9.788 20.8514 9.788C20.6114 9.788 20.3654 9.806 20.1134 9.842C19.8734 9.878 19.6514 9.944 19.4474 10.04C19.2554 10.136 19.0994 10.274 18.9794 10.454C18.8594 10.622 18.7994 10.838 18.7994 11.102C18.7994 11.618 18.9614 11.978 19.2854 12.182C19.6094 12.374 20.0474 12.47 20.5994 12.47ZM20.4194 4.352C21.1394 4.352 21.7454 4.442 22.2374 4.622C22.7294 4.802 23.1194 5.054 23.4074 5.378C23.7074 5.702 23.9174 6.098 24.0374 6.566C24.1694 7.022 24.2354 7.526 24.2354 8.078V13.784C23.8994 13.856 23.3894 13.94 22.7054 14.036C22.0334 14.144 21.2714 14.198 20.4194 14.198C19.8554 14.198 19.3394 14.144 18.8714 14.036C18.4034 13.928 18.0014 13.754 17.6654 13.514C17.3414 13.274 17.0834 12.962 16.8914 12.578C16.7114 12.194 16.6214 11.72 16.6214 11.156C16.6214 10.616 16.7234 10.16 16.9274 9.788C17.1434 9.416 17.4314 9.116 17.7914 8.888C18.1514 8.648 18.5654 8.48 19.0334 8.384C19.5134 8.276 20.0114 8.222 20.5274 8.222C20.7674 8.222 21.0194 8.24 21.2834 8.276C21.5474 8.3 21.8294 8.348 22.1294 8.42V8.06C22.1294 7.808 22.0994 7.568 22.0394 7.34C21.9794 7.112 21.8714 6.914 21.7154 6.746C21.5714 6.566 21.3734 6.428 21.1214 6.332C20.8814 6.236 20.5754 6.188 20.2034 6.188C19.6994 6.188 19.2374 6.224 18.8174 6.296C18.3974 6.368 18.0554 6.452 17.7914 6.548L17.5214 4.784C17.7974 4.688 18.1994 4.592 18.7274 4.496C19.2554 4.4 19.8194 4.352 20.4194 4.352ZM32.2666 9.05C32.2666 8.066 32.1406 7.358 31.8886 6.926C31.6486 6.482 31.1926 6.26 30.5206 6.26C30.2806 6.26 30.0166 6.278 29.7286 6.314C29.4406 6.35 29.2246 6.38 29.0806 6.404V14H26.9026V4.892C27.3226 4.772 27.8686 4.658 28.5406 4.55C29.2246 4.442 29.9446 4.388 30.7006 4.388C31.3486 4.388 31.8766 4.472 32.2846 4.64C32.7046 4.808 33.0526 5.03 33.3286 5.306C33.4606 5.21 33.6286 5.108 33.8326 5C34.0366 4.892 34.2646 4.796 34.5166 4.712C34.7686 4.616 35.0326 4.538 35.3086 4.478C35.5966 4.418 35.8846 4.388 36.1726 4.388C36.9046 4.388 37.5046 4.496 37.9726 4.712C38.4526 4.916 38.8246 5.21 39.0886 5.594C39.3646 5.966 39.5506 6.422 39.6466 6.962C39.7546 7.49 39.8086 8.072 39.8086 8.708V14H37.6306V9.05C37.6306 8.066 37.5106 7.358 37.2706 6.926C37.0306 6.482 36.5686 6.26 35.8846 6.26C35.5366 6.26 35.2066 6.32 34.8946 6.44C34.5826 6.548 34.3486 6.656 34.1926 6.764C34.2886 7.064 34.3546 7.382 34.3906 7.718C34.4266 8.054 34.4446 8.414 34.4446 8.798V14H32.2666V9.05ZM44.6728 14H42.4948V4.586H44.6728V14ZM44.9068 1.832C44.9068 2.24 44.7748 2.564 44.5108 2.804C44.2468 3.044 43.9348 3.164 43.5748 3.164C43.2028 3.164 42.8848 3.044 42.6208 2.804C42.3568 2.564 42.2248 2.24 42.2248 1.832C42.2248 1.412 42.3568 1.082 42.6208 0.842C42.8848 0.601999 43.2028 0.481999 43.5748 0.481999C43.9348 0.481999 44.2468 0.601999 44.5108 0.842C44.7748 1.082 44.9068 1.412 44.9068 1.832ZM47.4514 4.892C47.8714 4.772 48.4174 4.658 49.0894 4.55C49.7614 4.442 50.5054 4.388 51.3214 4.388C52.0894 4.388 52.7314 4.496 53.2474 4.712C53.7634 4.916 54.1714 5.21 54.4714 5.594C54.7834 5.966 54.9994 6.422 55.1194 6.962C55.2514 7.49 55.3174 8.072 55.3174 8.708V14H53.1394V9.05C53.1394 8.546 53.1034 8.12 53.0314 7.772C52.9714 7.412 52.8634 7.124 52.7074 6.908C52.5634 6.68 52.3594 6.518 52.0954 6.422C51.8434 6.314 51.5314 6.26 51.1594 6.26C50.8834 6.26 50.5954 6.278 50.2954 6.314C49.9954 6.35 49.7734 6.38 49.6294 6.404V14H47.4514V4.892ZM59.6907 9.05C59.6907 9.974 59.8887 10.652 60.2847 11.084C60.6927 11.504 61.2147 11.714 61.8507 11.714C62.1987 11.714 62.5227 11.666 62.8227 11.57C63.1347 11.474 63.3867 11.36 63.5787 11.228V6.35C63.4227 6.314 63.2307 6.284 63.0027 6.26C62.7747 6.224 62.4867 6.206 62.1387 6.206C61.3467 6.206 60.7407 6.47 60.3207 6.998C59.9007 7.514 59.6907 8.198 59.6907 9.05ZM65.7567 13.046C65.7567 14.546 65.3727 15.644 64.6047 16.34C63.8487 17.036 62.6847 17.384 61.1127 17.384C60.5367 17.384 59.9727 17.336 59.4207 17.24C58.8807 17.144 58.3887 17.018 57.9447 16.862L58.3407 15.008C58.7127 15.164 59.1327 15.29 59.6007 15.386C60.0807 15.482 60.5967 15.53 61.1487 15.53C62.0247 15.53 62.6487 15.35 63.0207 14.99C63.3927 14.63 63.5787 14.096 63.5787 13.388V13.028C63.3627 13.136 63.0747 13.244 62.7147 13.352C62.3667 13.46 61.9647 13.514 61.5087 13.514C60.9087 13.514 60.3567 13.418 59.8527 13.226C59.3607 13.034 58.9347 12.752 58.5747 12.38C58.2267 12.008 57.9507 11.546 57.7467 10.994C57.5547 10.43 57.4587 9.782 57.4587 9.05C57.4587 8.366 57.5607 7.736 57.7647 7.16C57.9807 6.584 58.2867 6.092 58.6827 5.684C59.0907 5.276 59.5827 4.958 60.1587 4.73C60.7347 4.502 61.3887 4.388 62.1207 4.388C62.8287 4.388 63.5007 4.442 64.1367 4.55C64.7727 4.658 65.3127 4.772 65.7567 4.892V13.046ZM80.4148 4.586C79.4428 8.162 78.3148 11.402 77.0308 14.306C76.7908 14.846 76.5448 15.308 76.2928 15.692C76.0408 16.076 75.7588 16.394 75.4468 16.646C75.1348 16.898 74.7868 17.078 74.4028 17.186C74.0188 17.306 73.5748 17.366 73.0708 17.366C72.7348 17.366 72.3988 17.33 72.0628 17.258C71.7388 17.186 71.4928 17.108 71.3248 17.024L71.7208 15.278C72.1528 15.446 72.5788 15.53 72.9988 15.53C73.5628 15.53 74.0008 15.392 74.3128 15.116C74.6368 14.852 74.9188 14.438 75.1588 13.874C74.4748 12.554 73.8148 11.114 73.1788 9.554C72.5548 7.994 71.9968 6.338 71.5048 4.586H73.8268C73.9468 5.09 74.0908 5.636 74.2588 6.224C74.4388 6.812 74.6308 7.412 74.8348 8.024C75.0388 8.624 75.2548 9.224 75.4828 9.824C75.7108 10.424 75.9388 10.982 76.1668 11.498C76.5508 10.43 76.9108 9.296 77.2468 8.096C77.5828 6.884 77.8888 5.714 78.1648 4.586H80.4148ZM90.5768 9.284C90.5768 10.028 90.4688 10.706 90.2528 11.318C90.0368 11.93 89.7308 12.452 89.3348 12.884C88.9388 13.316 88.4588 13.652 87.8948 13.892C87.3428 14.132 86.7308 14.252 86.0588 14.252C85.3868 14.252 84.7748 14.132 84.2228 13.892C83.6708 13.652 83.1968 13.316 82.8008 12.884C82.4048 12.452 82.0928 11.93 81.8648 11.318C81.6488 10.706 81.5408 10.028 81.5408 9.284C81.5408 8.54 81.6488 7.868 81.8648 7.268C82.0928 6.656 82.4048 6.134 82.8008 5.702C83.2088 5.27 83.6888 4.94 84.2408 4.712C84.7928 4.472 85.3988 4.352 86.0588 4.352C86.7188 4.352 87.3248 4.472 87.8768 4.712C88.4408 4.94 88.9208 5.27 89.3168 5.702C89.7128 6.134 90.0188 6.656 90.2348 7.268C90.4628 7.868 90.5768 8.54 90.5768 9.284ZM88.3448 9.284C88.3448 8.348 88.1408 7.61 87.7328 7.07C87.3368 6.518 86.7788 6.242 86.0588 6.242C85.3388 6.242 84.7748 6.518 84.3668 7.07C83.9708 7.61 83.7728 8.348 83.7728 9.284C83.7728 10.232 83.9708 10.982 84.3668 11.534C84.7748 12.086 85.3388 12.362 86.0588 12.362C86.7788 12.362 87.3368 12.086 87.7328 11.534C88.1408 10.982 88.3448 10.232 88.3448 9.284ZM100.543 13.712C100.123 13.82 99.5766 13.928 98.9046 14.036C98.2326 14.156 97.4946 14.216 96.6906 14.216C95.9346 14.216 95.2986 14.108 94.7826 13.892C94.2786 13.676 93.8706 13.376 93.5586 12.992C93.2586 12.608 93.0426 12.152 92.9106 11.624C92.7786 11.084 92.7126 10.496 92.7126 9.86V4.586H94.8906V9.518C94.8906 10.526 95.0346 11.246 95.3226 11.678C95.6226 12.11 96.1386 12.326 96.8706 12.326C97.1346 12.326 97.4106 12.314 97.6986 12.29C97.9986 12.266 98.2206 12.236 98.3646 12.2V4.586H100.543V13.712ZM108.679 6.548C108.499 6.488 108.247 6.428 107.923 6.368C107.611 6.296 107.245 6.26 106.825 6.26C106.585 6.26 106.327 6.284 106.051 6.332C105.787 6.38 105.601 6.422 105.493 6.458V14H103.315V5.036C103.735 4.88 104.257 4.736 104.881 4.604C105.517 4.46 106.219 4.388 106.987 4.388C107.131 4.388 107.299 4.4 107.491 4.424C107.683 4.436 107.875 4.46 108.067 4.496C108.259 4.52 108.445 4.556 108.625 4.604C108.805 4.64 108.949 4.676 109.057 4.712L108.679 6.548ZM118.088 12.47C118.76 12.47 119.27 12.434 119.618 12.362V9.95C119.498 9.914 119.324 9.878 119.096 9.842C118.868 9.806 118.616 9.788 118.34 9.788C118.1 9.788 117.854 9.806 117.602 9.842C117.362 9.878 117.14 9.944 116.936 10.04C116.744 10.136 116.588 10.274 116.468 10.454C116.348 10.622 116.288 10.838 116.288 11.102C116.288 11.618 116.45 11.978 116.774 12.182C117.098 12.374 117.536 12.47 118.088 12.47ZM117.908 4.352C118.628 4.352 119.234 4.442 119.726 4.622C120.218 4.802 120.608 5.054 120.896 5.378C121.196 5.702 121.406 6.098 121.526 6.566C121.658 7.022 121.724 7.526 121.724 8.078V13.784C121.388 13.856 120.878 13.94 120.194 14.036C119.522 14.144 118.76 14.198 117.908 14.198C117.344 14.198 116.828 14.144 116.36 14.036C115.892 13.928 115.49 13.754 115.154 13.514C114.83 13.274 114.572 12.962 114.38 12.578C114.2 12.194 114.11 11.72 114.11 11.156C114.11 10.616 114.212 10.16 114.416 9.788C114.632 9.416 114.92 9.116 115.28 8.888C115.64 8.648 116.054 8.48 116.522 8.384C117.002 8.276 117.5 8.222 118.016 8.222C118.256 8.222 118.508 8.24 118.772 8.276C119.036 8.3 119.318 8.348 119.618 8.42V8.06C119.618 7.808 119.588 7.568 119.528 7.34C119.468 7.112 119.36 6.914 119.204 6.746C119.06 6.566 118.862 6.428 118.61 6.332C118.37 6.236 118.064 6.188 117.692 6.188C117.188 6.188 116.726 6.224 116.306 6.296C115.886 6.368 115.544 6.452 115.28 6.548L115.01 4.784C115.286 4.688 115.688 4.592 116.216 4.496C116.744 4.4 117.308 4.352 117.908 4.352ZM129.755 6.548C129.575 6.488 129.323 6.428 128.999 6.368C128.687 6.296 128.321 6.26 127.901 6.26C127.661 6.26 127.403 6.284 127.127 6.332C126.863 6.38 126.677 6.422 126.569 6.458V14H124.391V5.036C124.811 4.88 125.333 4.736 125.957 4.604C126.593 4.46 127.295 4.388 128.063 4.388C128.207 4.388 128.375 4.4 128.567 4.424C128.759 4.436 128.951 4.46 129.143 4.496C129.335 4.52 129.521 4.556 129.701 4.604C129.881 4.64 130.025 4.676 130.133 4.712L129.755 6.548ZM131.543 2.102L133.721 1.742V4.586H137.069V6.404H133.721V10.238C133.721 10.994 133.841 11.534 134.081 11.858C134.321 12.182 134.729 12.344 135.305 12.344C135.701 12.344 136.049 12.302 136.349 12.218C136.661 12.134 136.907 12.056 137.087 11.984L137.447 13.712C137.195 13.82 136.865 13.928 136.457 14.036C136.049 14.156 135.569 14.216 135.017 14.216C134.345 14.216 133.781 14.126 133.325 13.946C132.881 13.766 132.527 13.508 132.263 13.172C131.999 12.824 131.813 12.41 131.705 11.93C131.597 11.438 131.543 10.88 131.543 10.256V2.102ZM141.37 14H139.192V4.586H141.37V14ZM141.604 1.832C141.604 2.24 141.472 2.564 141.208 2.804C140.944 3.044 140.632 3.164 140.272 3.164C139.9 3.164 139.582 3.044 139.318 2.804C139.054 2.564 138.922 2.24 138.922 1.832C138.922 1.412 139.054 1.082 139.318 0.842C139.582 0.601999 139.9 0.481999 140.272 0.481999C140.632 0.481999 140.944 0.601999 141.208 0.842C141.472 1.082 141.604 1.412 141.604 1.832ZM146.507 12.434C147.083 12.434 147.503 12.368 147.767 12.236C148.031 12.092 148.163 11.852 148.163 11.516C148.163 11.204 148.019 10.946 147.731 10.742C147.455 10.538 146.993 10.316 146.345 10.076C145.949 9.932 145.583 9.782 145.247 9.626C144.923 9.458 144.641 9.266 144.401 9.05C144.161 8.834 143.969 8.576 143.825 8.276C143.693 7.964 143.627 7.586 143.627 7.142C143.627 6.278 143.945 5.6 144.581 5.108C145.217 4.604 146.081 4.352 147.173 4.352C147.725 4.352 148.253 4.406 148.757 4.514C149.261 4.61 149.639 4.706 149.891 4.802L149.495 6.566C149.255 6.458 148.949 6.362 148.577 6.278C148.205 6.182 147.773 6.134 147.281 6.134C146.837 6.134 146.477 6.212 146.201 6.368C145.925 6.512 145.787 6.74 145.787 7.052C145.787 7.208 145.811 7.346 145.859 7.466C145.919 7.586 146.015 7.7 146.147 7.808C146.279 7.904 146.453 8.006 146.669 8.114C146.885 8.21 147.149 8.312 147.461 8.42C147.977 8.612 148.415 8.804 148.775 8.996C149.135 9.176 149.429 9.386 149.657 9.626C149.897 9.854 150.071 10.118 150.179 10.418C150.287 10.718 150.341 11.078 150.341 11.498C150.341 12.398 150.005 13.082 149.333 13.55C148.673 14.006 147.725 14.234 146.489 14.234C145.661 14.234 144.995 14.162 144.491 14.018C143.987 13.886 143.633 13.778 143.429 13.694L143.807 11.876C144.131 12.008 144.515 12.134 144.959 12.254C145.415 12.374 145.931 12.434 146.507 12.434ZM152.267 2.102L154.445 1.742V4.586H157.793V6.404H154.445V10.238C154.445 10.994 154.565 11.534 154.805 11.858C155.045 12.182 155.453 12.344 156.029 12.344C156.425 12.344 156.773 12.302 157.073 12.218C157.385 12.134 157.631 12.056 157.811 11.984L158.171 13.712C157.919 13.82 157.589 13.928 157.181 14.036C156.773 14.156 156.293 14.216 155.741 14.216C155.069 14.216 154.505 14.126 154.049 13.946C153.605 13.766 153.251 13.508 152.987 13.172C152.723 12.824 152.537 12.41 152.429 11.93C152.321 11.438 152.267 10.88 152.267 10.256V2.102ZM162.095 14H159.917V4.586H162.095V14ZM162.329 1.832C162.329 2.24 162.197 2.564 161.933 2.804C161.669 3.044 161.357 3.164 160.997 3.164C160.625 3.164 160.307 3.044 160.043 2.804C159.779 2.564 159.647 2.24 159.647 1.832C159.647 1.412 159.779 1.082 160.043 0.842C160.307 0.601999 160.625 0.481999 160.997 0.481999C161.357 0.481999 161.669 0.601999 161.933 0.842C162.197 1.082 162.329 1.412 162.329 1.832ZM164.351 9.302C164.351 8.606 164.459 7.958 164.675 7.358C164.891 6.746 165.197 6.218 165.593 5.774C166.001 5.33 166.493 4.982 167.069 4.73C167.645 4.478 168.293 4.352 169.013 4.352C169.901 4.352 170.741 4.514 171.533 4.838L171.065 6.62C170.813 6.512 170.525 6.422 170.201 6.35C169.889 6.278 169.553 6.242 169.193 6.242C168.341 6.242 167.693 6.512 167.249 7.052C166.805 7.58 166.583 8.33 166.583 9.302C166.583 10.238 166.793 10.982 167.213 11.534C167.633 12.074 168.341 12.344 169.337 12.344C169.709 12.344 170.075 12.308 170.435 12.236C170.795 12.164 171.107 12.074 171.371 11.966L171.677 13.766C171.437 13.886 171.071 13.994 170.579 14.09C170.099 14.186 169.601 14.234 169.085 14.234C168.281 14.234 167.579 14.114 166.979 13.874C166.391 13.622 165.899 13.28 165.503 12.848C165.119 12.404 164.831 11.882 164.639 11.282C164.447 10.67 164.351 10.01 164.351 9.302ZM177.043 9.338C177.043 8.51 177.163 7.784 177.403 7.16C177.655 6.536 177.985 6.02 178.393 5.612C178.801 5.192 179.269 4.88 179.797 4.676C180.325 4.46 180.865 4.352 181.417 4.352C182.713 4.352 183.721 4.754 184.441 5.558C185.173 6.362 185.539 7.562 185.539 9.158C185.539 9.278 185.533 9.416 185.521 9.572C185.521 9.716 185.515 9.848 185.503 9.968H179.293C179.353 10.724 179.617 11.312 180.085 11.732C180.565 12.14 181.255 12.344 182.155 12.344C182.683 12.344 183.163 12.296 183.595 12.2C184.039 12.104 184.387 12.002 184.639 11.894L184.927 13.676C184.807 13.736 184.639 13.802 184.423 13.874C184.219 13.934 183.979 13.988 183.703 14.036C183.439 14.096 183.151 14.144 182.839 14.18C182.527 14.216 182.209 14.234 181.885 14.234C181.057 14.234 180.337 14.114 179.725 13.874C179.113 13.622 178.609 13.28 178.213 12.848C177.817 12.404 177.523 11.888 177.331 11.3C177.139 10.7 177.043 10.046 177.043 9.338ZM183.361 8.366C183.361 8.066 183.319 7.784 183.235 7.52C183.151 7.244 183.025 7.01 182.857 6.818C182.701 6.614 182.503 6.458 182.263 6.35C182.035 6.23 181.759 6.17 181.435 6.17C181.099 6.17 180.805 6.236 180.553 6.368C180.301 6.488 180.085 6.65 179.905 6.854C179.737 7.058 179.605 7.292 179.509 7.556C179.413 7.82 179.347 8.09 179.311 8.366H183.361ZM191.232 7.664L193.23 4.586H195.516L192.42 9.032C193.068 9.872 193.686 10.724 194.274 11.588C194.874 12.44 195.366 13.244 195.75 14H193.392C193.284 13.772 193.14 13.514 192.96 13.226C192.792 12.926 192.606 12.62 192.402 12.308C192.21 11.984 192.006 11.666 191.79 11.354C191.574 11.042 191.364 10.748 191.16 10.472C190.74 11.012 190.326 11.612 189.918 12.272C189.522 12.92 189.192 13.496 188.928 14H186.696C186.876 13.64 187.092 13.256 187.344 12.848C187.596 12.44 187.866 12.026 188.154 11.606C188.442 11.174 188.736 10.748 189.036 10.328C189.348 9.896 189.654 9.488 189.954 9.104L186.84 4.586H189.234L191.232 7.664ZM203.621 9.338C203.621 8.366 203.399 7.61 202.955 7.07C202.523 6.53 201.821 6.26 200.849 6.26C200.645 6.26 200.429 6.272 200.201 6.296C199.985 6.308 199.769 6.344 199.553 6.404V11.786C199.745 11.918 199.997 12.044 200.309 12.164C200.633 12.272 200.975 12.326 201.335 12.326C202.127 12.326 202.703 12.056 203.063 11.516C203.435 10.976 203.621 10.25 203.621 9.338ZM205.853 9.302C205.853 10.022 205.757 10.682 205.565 11.282C205.385 11.882 205.121 12.398 204.773 12.83C204.425 13.262 203.987 13.598 203.459 13.838C202.943 14.078 202.355 14.198 201.695 14.198C201.251 14.198 200.843 14.144 200.471 14.036C200.099 13.928 199.793 13.808 199.553 13.676V17.33H197.375V4.892C197.819 4.772 198.365 4.658 199.013 4.55C199.661 4.442 200.345 4.388 201.065 4.388C201.809 4.388 202.475 4.502 203.063 4.73C203.651 4.958 204.149 5.288 204.557 5.72C204.977 6.14 205.295 6.656 205.511 7.268C205.739 7.868 205.853 8.546 205.853 9.302ZM207.576 9.338C207.576 8.51 207.696 7.784 207.936 7.16C208.188 6.536 208.518 6.02 208.926 5.612C209.334 5.192 209.802 4.88 210.33 4.676C210.858 4.46 211.398 4.352 211.95 4.352C213.246 4.352 214.254 4.754 214.974 5.558C215.706 6.362 216.072 7.562 216.072 9.158C216.072 9.278 216.066 9.416 216.054 9.572C216.054 9.716 216.048 9.848 216.036 9.968H209.826C209.886 10.724 210.15 11.312 210.618 11.732C211.098 12.14 211.788 12.344 212.688 12.344C213.216 12.344 213.696 12.296 214.128 12.2C214.572 12.104 214.92 12.002 215.172 11.894L215.46 13.676C215.34 13.736 215.172 13.802 214.956 13.874C214.752 13.934 214.512 13.988 214.236 14.036C213.972 14.096 213.684 14.144 213.372 14.18C213.06 14.216 212.742 14.234 212.418 14.234C211.59 14.234 210.87 14.114 210.258 13.874C209.646 13.622 209.142 13.28 208.746 12.848C208.35 12.404 208.056 11.888 207.864 11.3C207.672 10.7 207.576 10.046 207.576 9.338ZM213.894 8.366C213.894 8.066 213.852 7.784 213.768 7.52C213.684 7.244 213.558 7.01 213.39 6.818C213.234 6.614 213.036 6.458 212.796 6.35C212.568 6.23 212.292 6.17 211.968 6.17C211.632 6.17 211.338 6.236 211.086 6.368C210.834 6.488 210.618 6.65 210.438 6.854C210.27 7.058 210.138 7.292 210.042 7.556C209.946 7.82 209.88 8.09 209.844 8.366H213.894ZM223.745 6.548C223.565 6.488 223.313 6.428 222.989 6.368C222.677 6.296 222.311 6.26 221.891 6.26C221.651 6.26 221.393 6.284 221.117 6.332C220.853 6.38 220.667 6.422 220.559 6.458V14H218.381V5.036C218.801 4.88 219.323 4.736 219.947 4.604C220.583 4.46 221.285 4.388 222.053 4.388C222.197 4.388 222.365 4.4 222.557 4.424C222.749 4.436 222.941 4.46 223.133 4.496C223.325 4.52 223.511 4.556 223.691 4.604C223.871 4.64 224.015 4.676 224.123 4.712L223.745 6.548ZM227.837 14H225.659V4.586H227.837V14ZM228.071 1.832C228.071 2.24 227.939 2.564 227.675 2.804C227.411 3.044 227.099 3.164 226.739 3.164C226.367 3.164 226.049 3.044 225.785 2.804C225.521 2.564 225.389 2.24 225.389 1.832C225.389 1.412 225.521 1.082 225.785 0.842C226.049 0.601999 226.367 0.481999 226.739 0.481999C227.099 0.481999 227.411 0.601999 227.675 0.842C227.939 1.082 228.071 1.412 228.071 1.832ZM230.093 9.338C230.093 8.51 230.213 7.784 230.453 7.16C230.705 6.536 231.035 6.02 231.443 5.612C231.851 5.192 232.319 4.88 232.847 4.676C233.375 4.46 233.915 4.352 234.467 4.352C235.763 4.352 236.771 4.754 237.491 5.558C238.223 6.362 238.589 7.562 238.589 9.158C238.589 9.278 238.583 9.416 238.571 9.572C238.571 9.716 238.565 9.848 238.553 9.968H232.343C232.403 10.724 232.667 11.312 233.135 11.732C233.615 12.14 234.305 12.344 235.205 12.344C235.733 12.344 236.213 12.296 236.645 12.2C237.089 12.104 237.437 12.002 237.689 11.894L237.977 13.676C237.857 13.736 237.689 13.802 237.473 13.874C237.269 13.934 237.029 13.988 236.753 14.036C236.489 14.096 236.201 14.144 235.889 14.18C235.577 14.216 235.259 14.234 234.935 14.234C234.107 14.234 233.387 14.114 232.775 13.874C232.163 13.622 231.659 13.28 231.263 12.848C230.867 12.404 230.573 11.888 230.381 11.3C230.189 10.7 230.093 10.046 230.093 9.338ZM236.411 8.366C236.411 8.066 236.369 7.784 236.285 7.52C236.201 7.244 236.075 7.01 235.907 6.818C235.751 6.614 235.553 6.458 235.313 6.35C235.085 6.23 234.809 6.17 234.485 6.17C234.149 6.17 233.855 6.236 233.603 6.368C233.351 6.488 233.135 6.65 232.955 6.854C232.787 7.058 232.655 7.292 232.559 7.556C232.463 7.82 232.397 8.09 232.361 8.366H236.411ZM240.899 4.892C241.319 4.772 241.865 4.658 242.537 4.55C243.209 4.442 243.953 4.388 244.769 4.388C245.537 4.388 246.179 4.496 246.695 4.712C247.211 4.916 247.619 5.21 247.919 5.594C248.231 5.966 248.447 6.422 248.567 6.962C248.699 7.49 248.765 8.072 248.765 8.708V14H246.587V9.05C246.587 8.546 246.551 8.12 246.479 7.772C246.419 7.412 246.311 7.124 246.155 6.908C246.011 6.68 245.807 6.518 245.543 6.422C245.291 6.314 244.979 6.26 244.607 6.26C244.331 6.26 244.043 6.278 243.743 6.314C243.443 6.35 243.221 6.38 243.077 6.404V14H240.899V4.892ZM250.906 9.302C250.906 8.606 251.014 7.958 251.23 7.358C251.446 6.746 251.752 6.218 252.148 5.774C252.556 5.33 253.048 4.982 253.624 4.73C254.2 4.478 254.848 4.352 255.568 4.352C256.456 4.352 257.296 4.514 258.088 4.838L257.62 6.62C257.368 6.512 257.08 6.422 256.756 6.35C256.444 6.278 256.108 6.242 255.748 6.242C254.896 6.242 254.248 6.512 253.804 7.052C253.36 7.58 253.138 8.33 253.138 9.302C253.138 10.238 253.348 10.982 253.768 11.534C254.188 12.074 254.896 12.344 255.892 12.344C256.264 12.344 256.63 12.308 256.99 12.236C257.35 12.164 257.662 12.074 257.926 11.966L258.232 13.766C257.992 13.886 257.626 13.994 257.134 14.09C256.654 14.186 256.156 14.234 255.64 14.234C254.836 14.234 254.134 14.114 253.534 13.874C252.946 13.622 252.454 13.28 252.058 12.848C251.674 12.404 251.386 11.882 251.194 11.282C251.002 10.67 250.906 10.01 250.906 9.302ZM259.396 9.338C259.396 8.51 259.516 7.784 259.756 7.16C260.008 6.536 260.338 6.02 260.746 5.612C261.154 5.192 261.622 4.88 262.15 4.676C262.678 4.46 263.218 4.352 263.77 4.352C265.066 4.352 266.074 4.754 266.794 5.558C267.526 6.362 267.892 7.562 267.892 9.158C267.892 9.278 267.886 9.416 267.874 9.572C267.874 9.716 267.868 9.848 267.856 9.968H261.646C261.706 10.724 261.97 11.312 262.438 11.732C262.918 12.14 263.608 12.344 264.508 12.344C265.036 12.344 265.516 12.296 265.948 12.2C266.392 12.104 266.74 12.002 266.992 11.894L267.28 13.676C267.16 13.736 266.992 13.802 266.776 13.874C266.572 13.934 266.332 13.988 266.056 14.036C265.792 14.096 265.504 14.144 265.192 14.18C264.88 14.216 264.562 14.234 264.238 14.234C263.41 14.234 262.69 14.114 262.078 13.874C261.466 13.622 260.962 13.28 260.566 12.848C260.17 12.404 259.876 11.888 259.684 11.3C259.492 10.7 259.396 10.046 259.396 9.338ZM265.714 8.366C265.714 8.066 265.672 7.784 265.588 7.52C265.504 7.244 265.378 7.01 265.21 6.818C265.054 6.614 264.856 6.458 264.616 6.35C264.388 6.23 264.112 6.17 263.788 6.17C263.452 6.17 263.158 6.236 262.906 6.368C262.654 6.488 262.438 6.65 262.258 6.854C262.09 7.058 261.958 7.292 261.862 7.556C261.766 7.82 261.7 8.09 261.664 8.366H265.714Z" fill="#FF321A"/>
</svg>
