<svg width="400" height="109" viewBox="0 0 400 109" fill="none" xmlns="http://www.w3.org/2000/svg">
<path d="M14.3772 85.9302C14.3193 85.506 14.1361 85.1492 13.8276 84.8599C13.519 84.5706 13.1333 84.3392 12.6705 84.1656C12.2269 83.9921 11.7255 83.8763 11.1662 83.8185C10.6262 83.7414 10.0862 83.7028 9.54623 83.7028C7.63699 83.7028 6.13273 84.1367 5.03347 85.0045C4.12706 85.7374 3.44243 86.7113 2.97958 87.9263C2.53602 89.1412 2.31424 90.4719 2.31424 91.9183C2.31424 93.2876 2.50709 94.4929 2.8928 95.5343C3.29779 96.5564 3.84742 97.4146 4.54169 98.1089C5.23596 98.8032 6.05559 99.3335 7.00057 99.7C7.96484 100.047 9.00624 100.221 10.1248 100.221C10.9155 100.221 11.8219 100.115 12.844 99.9024C13.8854 99.671 14.869 99.2371 15.7947 98.6007L16.084 98.9189L15.4475 100.221C14.4833 100.741 13.519 101.127 12.5547 101.378C11.6098 101.609 10.6262 101.725 9.60409 101.725C8.15769 101.725 6.84629 101.493 5.66988 101.031C4.49348 100.568 3.481 99.9121 2.63245 99.0635C1.80318 98.1957 1.15712 97.1736 0.694271 95.9972C0.231424 94.8015 0 93.4804 0 92.034C0 90.6841 0.202496 89.4112 0.607488 88.2155C1.03176 87.0006 1.64889 85.9495 2.45888 85.0624C3.28815 84.1753 4.30063 83.4714 5.49632 82.9507C6.71129 82.4299 8.11912 82.1696 9.7198 82.1696C10.0669 82.1696 10.4719 82.1889 10.9348 82.2275C11.4169 82.2467 11.9183 82.295 12.439 82.3721C12.9597 82.4492 13.4901 82.5553 14.0301 82.6903C14.5701 82.806 15.0908 82.9603 15.5922 83.1531L15.679 83.4135L15.3029 86.0459H14.464L14.3772 85.9302Z" fill="white"/>
<path d="M22.3726 91.1662C22.5655 90.7998 22.7776 90.4141 23.009 90.0091C23.2597 89.6041 23.5394 89.228 23.848 88.8809C24.1565 88.5338 24.5037 88.2445 24.8894 88.013C25.2943 87.7816 25.7476 87.6659 26.249 87.6659C26.5961 87.6659 26.9818 87.7238 27.4061 87.8395C27.8497 87.9359 28.1486 88.0709 28.3029 88.2445L28.5343 88.5048L28.1871 90.7323H27.2325C27.1747 90.4623 27.0204 90.2212 26.7697 90.0091C26.5383 89.7777 26.1718 89.6619 25.6704 89.6619C25.1883 89.6619 24.7447 89.8066 24.3397 90.0959C23.9347 90.3659 23.578 90.713 23.2694 91.1373C22.9801 91.5615 22.7487 92.0148 22.5751 92.4969C22.4208 92.9597 22.3437 93.384 22.3437 93.7697V96.3443C22.3437 96.7686 22.3437 97.1157 22.3437 97.3857C22.363 97.6364 22.3726 97.8582 22.3726 98.0511C22.3919 98.2246 22.4016 98.3789 22.4016 98.5139C22.4208 98.6296 22.4305 98.755 22.4305 98.89L22.4594 99.1503C22.498 99.4396 22.5365 99.7192 22.5751 99.9892C22.633 100.24 22.739 100.433 22.8933 100.568C22.9898 100.645 23.1248 100.703 23.2983 100.741C23.4912 100.78 23.684 100.809 23.8769 100.828C24.089 100.847 24.2915 100.867 24.4844 100.886C24.6772 100.886 24.8315 100.886 24.9472 100.886L25.0919 101.031L25.1497 101.407L25.0919 101.522C24.9569 101.522 24.7351 101.513 24.4265 101.493C24.1372 101.474 23.8287 101.455 23.5008 101.436C23.173 101.436 22.8548 101.426 22.5462 101.407C22.2569 101.407 22.0448 101.407 21.9098 101.407H21.2155C21.0805 101.407 20.8684 101.407 20.5791 101.407C20.3091 101.426 20.0198 101.436 19.7113 101.436C19.4027 101.455 19.1038 101.474 18.8145 101.493C18.5445 101.513 18.342 101.522 18.207 101.522L18.1781 101.407L18.207 101.002L18.3227 100.886C18.6313 100.886 18.9302 100.876 19.2195 100.857C19.528 100.819 19.7595 100.722 19.9137 100.568C20.068 100.433 20.1645 100.259 20.203 100.047C20.2609 99.8349 20.3091 99.536 20.3477 99.1503L20.3766 98.89C20.3959 98.6971 20.4055 98.456 20.4055 98.1668C20.4248 97.8775 20.4345 97.3857 20.4345 96.6914V93.1333C20.4345 92.7283 20.4345 92.3908 20.4345 92.1208C20.4345 91.8315 20.4248 91.5808 20.4055 91.3687C20.4055 91.1566 20.3959 90.9637 20.3766 90.7901C20.3766 90.6166 20.367 90.4334 20.3477 90.2405C20.3091 90.0284 20.2512 89.8452 20.1741 89.6909C20.097 89.5173 20.0295 89.4016 19.9716 89.3437C19.7788 89.1123 19.5377 88.9773 19.2484 88.9387C18.9591 88.8809 18.6602 88.852 18.3516 88.852L18.2359 88.7362V88.3313L18.3516 88.2445H18.8723C19.2002 88.2445 19.6148 88.2445 20.1162 88.2445C20.6177 88.2252 21.0516 88.1866 21.418 88.1288L22.4305 87.9841L22.604 88.2445C22.4883 88.6495 22.4016 89.1123 22.3437 89.633C22.3051 90.1537 22.2858 90.6551 22.2858 91.1373L22.3726 91.1662Z" fill="white"/>
<path d="M42.7768 93.6251L42.3139 93.8276C41.2725 93.8276 40.2022 93.8372 39.1029 93.8565C38.0037 93.8758 36.9237 93.8854 35.863 93.8854H32.4495C32.4302 94.0204 32.4206 94.1554 32.4206 94.2904C32.4206 94.4061 32.4206 94.5218 32.4206 94.6376C32.4206 95.3704 32.5266 96.0743 32.7388 96.7493C32.9509 97.405 33.2788 97.9836 33.7223 98.485C34.1852 98.9864 34.7734 99.3914 35.4869 99.7C36.2005 99.9892 37.0683 100.134 38.0905 100.134C38.6883 100.134 39.3247 100.076 39.9997 99.9603C40.694 99.8253 41.3304 99.5939 41.909 99.266L42.1982 99.4396V99.9603L41.909 100.279C41.4461 100.645 40.7904 100.982 39.9418 101.291C39.0933 101.58 38.1483 101.725 37.1069 101.725C36.0848 101.725 35.1494 101.561 34.3009 101.233C33.4716 100.886 32.7484 100.404 32.1313 99.7867C31.5335 99.1696 31.061 98.4368 30.7138 97.5882C30.386 96.7397 30.222 95.7947 30.222 94.7533C30.222 93.6926 30.3956 92.7283 30.7428 91.8605C31.0899 90.9926 31.5624 90.2501 32.1602 89.633C32.7774 89.0159 33.4909 88.5338 34.3009 88.1866C35.1302 87.8395 36.0173 87.6659 36.9623 87.6659C37.4637 87.6659 38.023 87.7334 38.6401 87.8684C39.2765 88.0034 39.884 88.2638 40.4626 88.6495C41.0411 89.0159 41.5618 89.5462 42.0247 90.2405C42.4875 90.9155 42.8057 91.8123 42.9793 92.9308L42.7768 93.6251ZM36.9912 88.9677C36.3741 88.9677 35.8148 89.0737 35.3134 89.2859C34.8312 89.4787 34.3973 89.7487 34.0116 90.0959C33.6452 90.4237 33.3366 90.8191 33.0859 91.2819C32.8545 91.7255 32.6906 92.198 32.5941 92.6994H33.7223C34.7637 92.6994 35.7762 92.6897 36.7598 92.6705C37.7433 92.6319 38.7751 92.5837 39.8551 92.5258C40.1058 92.5065 40.2697 92.439 40.3468 92.3233C40.4433 92.2076 40.4915 92.0726 40.4915 91.9183C40.4915 91.8026 40.4818 91.6965 40.4626 91.6001C40.4433 91.5037 40.4143 91.4073 40.3758 91.3108C40.1636 90.578 39.7683 90.0091 39.1897 89.6041C38.6112 89.1798 37.8783 88.9677 36.9912 88.9677Z" fill="white"/>
<path d="M53.4625 101.204C53.5204 100.992 53.5589 100.674 53.5782 100.25C53.6168 99.8253 53.665 99.43 53.7229 99.0635L53.6939 98.9768C53.4432 99.3239 53.1443 99.6614 52.7972 99.9892C52.45 100.317 52.0643 100.616 51.64 100.886C51.2351 101.137 50.7915 101.339 50.3094 101.493C49.8465 101.648 49.3547 101.725 48.834 101.725C48.2362 101.725 47.7058 101.619 47.243 101.407C46.7802 101.195 46.3944 100.915 46.0859 100.568C45.7773 100.221 45.5459 99.8157 45.3916 99.3528C45.2373 98.89 45.1602 98.4078 45.1602 97.9064C45.1602 97.1929 45.3241 96.5757 45.652 96.055C45.9798 95.515 46.4137 95.0715 46.9537 94.7243C47.4551 94.4158 48.0433 94.1651 48.7183 93.9722C49.4126 93.7794 50.0779 93.6444 50.7144 93.5672C51.3701 93.4708 51.9583 93.4129 52.479 93.3937C52.9997 93.3551 53.3468 93.3358 53.5204 93.3358H53.9254C53.9061 92.6222 53.8675 92.063 53.8096 91.658C53.7518 91.2337 53.6747 90.8866 53.5782 90.6166C53.3661 90.038 52.9997 89.6234 52.479 89.3727C51.9583 89.1027 51.3315 88.9677 50.5986 88.9677C50.2901 88.9677 49.9526 88.9966 49.5862 89.0545C49.239 89.1123 48.9015 89.2184 48.5737 89.3727C48.2651 89.5269 47.9951 89.7487 47.7637 90.038C47.5323 90.308 47.3973 90.6648 47.3587 91.1083L47.243 91.1951H46.6066L46.3462 89.0545L46.433 88.8809C46.5294 88.7652 46.7319 88.6398 47.0405 88.5048C47.3491 88.3698 47.7058 88.2445 48.1108 88.1288C48.5351 87.9938 48.998 87.8877 49.4994 87.8106C50.0201 87.7141 50.5311 87.6659 51.0326 87.6659C51.7268 87.6659 52.3729 87.7623 52.9707 87.9552C53.5686 88.1288 54.0796 88.3988 54.5039 88.7652C54.9475 89.1316 55.2946 89.5944 55.5453 90.1537C55.796 90.6937 55.9214 91.3301 55.9214 92.063C55.9214 92.8729 55.9117 93.5961 55.8925 94.2326C55.8925 94.8497 55.8828 95.4283 55.8635 95.9682C55.8443 96.4889 55.825 97.0096 55.8057 97.5304C55.8057 98.0318 55.8057 98.5718 55.8057 99.1503C55.8443 99.5939 55.8925 99.9217 55.9503 100.134C56.0082 100.327 56.1046 100.471 56.2396 100.568C56.3939 100.722 56.6157 100.819 56.9049 100.857C57.2135 100.876 57.5221 100.886 57.8306 100.886L57.9463 101.002L57.9753 101.407L57.9463 101.522C57.5992 101.484 57.2232 101.455 56.8182 101.436C56.4132 101.416 56.0178 101.407 55.6321 101.407C54.8993 101.407 54.2339 101.436 53.6361 101.493L53.4625 101.204ZM53.4625 98.08C53.5204 97.9836 53.5782 97.8678 53.6361 97.7328C53.7132 97.5979 53.7614 97.4339 53.7807 97.2411L53.9254 94.3483H53.665C52.8936 94.3483 52.1222 94.3965 51.3508 94.4929C50.5794 94.5701 49.8851 94.734 49.268 94.9847C48.6701 95.2354 48.1783 95.5825 47.7926 96.0261C47.4069 96.4697 47.2141 97.0386 47.2141 97.7328C47.2141 98.4657 47.4262 99.0539 47.8505 99.4975C48.2748 99.9217 48.8244 100.134 49.4994 100.134C49.9044 100.134 50.3094 100.066 50.7144 99.9314C51.1193 99.7964 51.4954 99.6228 51.8425 99.4107C52.209 99.1985 52.5272 98.9768 52.7972 98.7453C53.0864 98.5139 53.3082 98.2921 53.4625 98.08Z" fill="white"/>
<path d="M67.0036 89.4594H63.243C63.243 90.713 63.2333 91.8701 63.2141 92.9308C63.2141 93.9915 63.2141 94.9268 63.2141 95.7368C63.2141 96.5275 63.2044 97.1639 63.1851 97.6461C63.1851 98.1282 63.1851 98.4271 63.1851 98.5428C63.1851 99.295 63.3298 99.7964 63.619 100.047C63.9083 100.298 64.2458 100.423 64.6315 100.423C64.9594 100.423 65.3354 100.365 65.7597 100.25C66.2033 100.115 66.5601 99.9699 66.8301 99.8157L67.0904 100.018L66.8301 100.828C66.3865 101.137 65.8851 101.358 65.3258 101.493C64.7858 101.648 64.3037 101.725 63.8794 101.725C62.8958 101.725 62.2016 101.455 61.7966 100.915C61.3916 100.375 61.1891 99.6807 61.1891 98.8321C61.1891 98.6585 61.1987 98.3018 61.218 97.7618C61.2373 97.2218 61.2566 96.5468 61.2759 95.7368C61.2952 94.9268 61.3145 93.9915 61.3337 92.9308C61.353 91.8701 61.3627 90.713 61.3627 89.4594H59.2798L59.1641 89.3148V88.7652L59.2798 88.6495L61.3627 88.2445C61.3627 87.5695 61.3434 86.8849 61.3048 86.1906C61.2855 85.477 61.2566 84.7828 61.218 84.1078L61.4205 83.9342L61.8255 83.9053C61.9798 83.886 62.2305 83.8474 62.5776 83.7896C62.9248 83.7317 63.1658 83.6642 63.3008 83.5871L63.5612 83.7028C63.5033 83.9728 63.4551 84.291 63.4165 84.6574C63.378 85.0045 63.3394 85.3806 63.3008 85.7856C63.2815 86.1906 63.2623 86.6052 63.243 87.0295C63.243 87.4538 63.243 87.8588 63.243 88.2445L67.0036 88.0709L67.1483 88.1866V89.3148L67.0036 89.4594Z" fill="white"/>
<path d="M75.1662 101.522C75.0312 101.522 74.8287 101.513 74.5587 101.493C74.2887 101.474 73.9994 101.455 73.6909 101.436C73.3823 101.436 73.093 101.426 72.823 101.407C72.553 101.407 72.3505 101.407 72.2155 101.407H71.8105C71.6755 101.407 71.4634 101.407 71.1741 101.407C70.9041 101.426 70.6148 101.436 70.3063 101.436C70.017 101.455 69.7277 101.474 69.4384 101.493C69.1684 101.513 68.966 101.522 68.831 101.522L68.802 101.407L68.831 101.002L68.9467 100.886C69.2552 100.886 69.5541 100.876 69.8434 100.857C70.152 100.819 70.3834 100.722 70.5377 100.568C70.692 100.433 70.7884 100.259 70.827 100.047C70.8848 99.8349 70.9331 99.536 70.9716 99.1503C70.9909 98.8418 71.0102 98.5332 71.0295 98.2246C71.0488 97.8968 71.0584 97.3857 71.0584 96.6914V93.1333C71.0584 92.7283 71.0584 92.3908 71.0584 92.1208C71.0584 91.8315 71.0488 91.5808 71.0295 91.3687C71.0295 91.1566 71.0198 90.9637 71.0006 90.7901C71.0006 90.6166 70.9909 90.4334 70.9716 90.2405C70.9331 90.0284 70.8752 89.8452 70.7981 89.6909C70.7209 89.5173 70.6534 89.4016 70.5956 89.3437C70.4027 89.1123 70.1616 88.9773 69.8724 88.9387C69.5831 88.8809 69.2842 88.852 68.9756 88.852L68.8599 88.7362V88.3313L68.9756 88.2445H69.4963C69.8241 88.2445 70.2388 88.2445 70.7402 88.2445C71.2416 88.2252 71.6755 88.1866 72.042 88.1288L73.0544 87.9841L73.228 88.2445C73.1894 88.3216 73.1509 88.4566 73.1123 88.6495C73.093 88.8423 73.0737 89.0545 73.0544 89.2859C73.0544 89.498 73.0448 89.7102 73.0255 89.9223C73.0255 90.1344 73.0255 90.2984 73.0255 90.4141C73.0255 90.5684 73.0159 90.7226 72.9966 90.8769C72.9966 91.0119 72.9966 91.1758 72.9966 91.3687C72.9966 91.5615 72.9869 91.793 72.9677 92.063C72.9677 92.333 72.9677 92.6801 72.9677 93.1044V96.3443C72.9677 96.7686 72.9677 97.1157 72.9677 97.3857C72.9869 97.6557 72.9966 97.8871 72.9966 98.08C73.0159 98.2728 73.0255 98.456 73.0255 98.6296C73.0448 98.7839 73.0641 98.9575 73.0834 99.1503C73.1219 99.5553 73.1605 99.8639 73.1991 100.076C73.2569 100.269 73.363 100.433 73.5173 100.568C73.6716 100.703 73.8837 100.79 74.1537 100.828C74.443 100.867 74.7323 100.886 75.0215 100.886L75.1662 101.031L75.224 101.407L75.1662 101.522ZM70.3063 83.1531C70.3063 82.7674 70.4316 82.4396 70.6823 82.1696C70.9523 81.8803 71.2802 81.7357 71.6659 81.7357C72.0516 81.7357 72.3795 81.8803 72.6494 82.1696C72.9387 82.4396 73.0834 82.7674 73.0834 83.1531C73.0834 83.5389 72.9387 83.8667 72.6494 84.1367C72.3795 84.3874 72.0516 84.5128 71.6659 84.5128C71.2802 84.5128 70.9523 84.3874 70.6823 84.1367C70.4316 83.8667 70.3063 83.5389 70.3063 83.1531Z" fill="white"/>
<path d="M82.5244 101.551L82.2351 101.407L80.4994 96.7782C80.4416 96.6047 80.3162 96.2864 80.1234 95.8236C79.9498 95.3608 79.7473 94.8497 79.5159 94.2904C79.2845 93.7311 79.0434 93.1526 78.7927 92.5547C78.5613 91.9376 78.3491 91.3976 78.1563 90.9348C77.9634 90.4719 77.7899 90.1055 77.6356 89.8355C77.4427 89.5269 77.2209 89.2859 76.9702 89.1123C76.7388 88.9387 76.4206 88.8327 76.0156 88.7941L75.842 88.6495V88.2445L75.9578 88.1288C76.2856 88.1673 76.6327 88.2059 76.9992 88.2445C77.3656 88.283 77.7031 88.3023 78.0116 88.3023H79.1398C79.4484 88.3023 79.8148 88.283 80.2391 88.2445C80.6827 88.2059 81.0973 88.1673 81.483 88.1288L81.5987 88.2445V88.5916L81.483 88.7073C81.0587 88.7459 80.7019 88.8616 80.4127 89.0545C80.1427 89.228 80.0077 89.4884 80.0077 89.8355C80.0077 90.0669 80.0945 90.4816 80.268 91.0794C80.4609 91.658 80.673 92.2847 80.9044 92.9597C81.1359 93.6154 81.3576 94.2326 81.5698 94.8111C81.7819 95.3704 81.9266 95.7465 82.0037 95.9393L83.4212 99.7L84.8097 96.3732C84.9447 96.0454 85.1279 95.6018 85.3593 95.0425C85.5908 94.4833 85.8222 93.8854 86.0536 93.249C86.285 92.6126 86.4779 91.9955 86.6322 91.3976C86.8057 90.7805 86.8925 90.2598 86.8925 89.8355C86.8925 89.4112 86.7382 89.1316 86.4297 88.9966C86.1211 88.8423 85.774 88.7459 85.3883 88.7073L85.2726 88.5916V88.2445L85.3883 88.1288C86.1404 88.2445 86.8443 88.3023 87.5 88.3023H88.6861C89.0139 88.3023 89.3321 88.283 89.6407 88.2445C89.9685 88.2059 90.3157 88.1673 90.6821 88.1288L90.7978 88.2445V88.6495L90.6242 88.7941C90.2964 88.8327 90.0071 88.9291 89.7564 89.0834C89.525 89.2377 89.3032 89.4884 89.0911 89.8355C88.9175 90.1441 88.715 90.5298 88.4836 90.9926C88.2714 91.4555 88.0497 91.9569 87.8182 92.4969C87.6061 93.0369 87.3843 93.5865 87.1529 94.1458C86.9407 94.7051 86.7382 95.2258 86.5454 95.7079C86.3718 96.19 86.2175 96.6143 86.0825 96.9807C85.9668 97.3279 85.88 97.5689 85.8222 97.7039L84.3469 101.407L82.5244 101.551Z" fill="white"/>
<path d="M104.446 93.6251L103.984 93.8276C102.942 93.8276 101.872 93.8372 100.773 93.8565C99.6734 93.8758 98.5934 93.8854 97.5327 93.8854H94.1192C94.0999 94.0204 94.0903 94.1554 94.0903 94.2904C94.0903 94.4061 94.0903 94.5218 94.0903 94.6376C94.0903 95.3704 94.1963 96.0743 94.4085 96.7493C94.6206 97.405 94.9485 97.9836 95.392 98.485C95.8549 98.9864 96.4431 99.3914 97.1566 99.7C97.8702 99.9892 98.738 100.134 99.7602 100.134C100.358 100.134 100.994 100.076 101.669 99.9603C102.364 99.8253 103 99.5939 103.579 99.266L103.868 99.4396V99.9603L103.579 100.279C103.116 100.645 102.46 100.982 101.612 101.291C100.763 101.58 99.818 101.725 98.7766 101.725C97.7545 101.725 96.8191 101.561 95.9706 101.233C95.1413 100.886 94.4181 100.404 93.801 99.7867C93.2031 99.1696 92.7307 98.4368 92.3835 97.5882C92.0557 96.7397 91.8917 95.7947 91.8917 94.7533C91.8917 93.6926 92.0653 92.7283 92.4125 91.8605C92.7596 90.9926 93.2321 90.2501 93.8299 89.633C94.447 89.0159 95.1606 88.5338 95.9706 88.1866C96.7999 87.8395 97.687 87.6659 98.632 87.6659C99.1334 87.6659 99.6927 87.7334 100.31 87.8684C100.946 88.0034 101.554 88.2638 102.132 88.6495C102.711 89.0159 103.232 89.5462 103.694 90.2405C104.157 90.9155 104.475 91.8123 104.649 92.9308L104.446 93.6251ZM98.6609 88.9677C98.0438 88.9677 97.4845 89.0737 96.9831 89.2859C96.5009 89.4787 96.067 89.7487 95.6813 90.0959C95.3149 90.4237 95.0063 90.8191 94.7556 91.2819C94.5242 91.7255 94.3603 92.198 94.2638 92.6994H95.392C96.4334 92.6994 97.4459 92.6897 98.4295 92.6705C99.413 92.6319 100.445 92.5837 101.525 92.5258C101.775 92.5065 101.939 92.439 102.017 92.3233C102.113 92.2076 102.161 92.0726 102.161 91.9183C102.161 91.8026 102.152 91.6965 102.132 91.6001C102.113 91.5037 102.084 91.4073 102.045 91.3108C101.833 90.578 101.438 90.0091 100.859 89.6041C100.281 89.1798 99.548 88.9677 98.6609 88.9677Z" fill="white"/>
<path d="M121.098 82.4299L121.011 82.9507L120.896 83.0664C120.587 83.0664 120.288 83.0857 119.999 83.1242C119.729 83.1435 119.507 83.2206 119.334 83.3556C119.179 83.4906 119.035 83.6642 118.9 83.8763C118.765 84.0885 118.678 84.4646 118.639 85.0045C118.62 85.2745 118.601 85.5252 118.581 85.7567C118.581 85.9881 118.572 86.2581 118.552 86.5667C118.552 86.8752 118.552 87.2513 118.552 87.6948C118.552 88.1384 118.552 88.7073 118.552 89.4016V91.3687C119.073 91.0408 119.7 90.5684 120.433 89.9512C121.185 89.3341 121.908 88.6784 122.602 87.9841C123.432 87.1549 124.126 86.3834 124.685 85.6699C125.244 84.937 125.524 84.4356 125.524 84.1656C125.524 83.9535 125.476 83.7896 125.379 83.6739C125.283 83.5389 125.158 83.4328 125.003 83.3556C124.868 83.2785 124.705 83.2206 124.512 83.1821C124.338 83.1435 124.155 83.1049 123.962 83.0664L123.817 82.9507V82.4299L123.962 82.3142C124.733 82.4299 125.582 82.4878 126.508 82.4878H127.925C128.157 82.4878 128.349 82.4878 128.504 82.4878C128.677 82.4878 128.841 82.4782 128.995 82.4589C129.169 82.4396 129.352 82.4203 129.545 82.401C129.738 82.3817 129.969 82.3528 130.239 82.3142L130.355 82.4299V82.9507L130.239 83.0664C129.989 83.1242 129.651 83.2014 129.227 83.2978C128.803 83.3749 128.446 83.5099 128.157 83.7028C127.964 83.8185 127.742 84.0017 127.491 84.2524C127.26 84.5031 126.971 84.8213 126.623 85.207C126.296 85.5927 125.9 86.0459 125.437 86.5667C124.975 87.0874 124.415 87.6756 123.76 88.3313L121.445 90.7034C123.046 93.1333 124.82 95.4958 126.768 97.7907C127.154 98.2343 127.511 98.6296 127.838 98.9768C128.166 99.3239 128.513 99.6228 128.88 99.8735C129.265 100.124 129.69 100.327 130.153 100.481C130.615 100.635 131.175 100.751 131.83 100.828L132.004 100.944L132.062 101.465L132.004 101.58C131.58 101.58 131.098 101.6 130.558 101.638C130.018 101.677 129.593 101.696 129.285 101.696C128.783 101.696 128.349 101.638 127.983 101.522C127.617 101.426 127.26 101.252 126.913 101.002C126.585 100.751 126.238 100.423 125.871 100.018C125.505 99.6132 125.09 99.1214 124.627 98.5428C124.57 98.4657 124.348 98.1668 123.962 97.6461C123.576 97.1061 123.133 96.4889 122.631 95.7947C122.149 95.0811 121.648 94.3676 121.127 93.654C120.626 92.9212 120.221 92.3233 119.912 91.8605H119.796C119.584 92.0148 119.382 92.1594 119.189 92.2944C118.996 92.4101 118.784 92.5644 118.552 92.7572V94.7243C118.552 95.4186 118.552 95.9875 118.552 96.4311C118.552 96.8554 118.552 97.2121 118.552 97.5014C118.572 97.7907 118.581 98.0414 118.581 98.2536C118.601 98.4464 118.62 98.6585 118.639 98.89C118.678 99.43 118.765 99.806 118.9 100.018C119.035 100.23 119.179 100.404 119.334 100.539C119.507 100.674 119.729 100.761 119.999 100.799C120.288 100.818 120.587 100.828 120.896 100.828L121.011 100.944L121.098 101.465L121.04 101.58C120.905 101.58 120.684 101.571 120.375 101.551C120.066 101.532 119.748 101.513 119.42 101.493C119.092 101.474 118.774 101.455 118.466 101.436C118.157 101.416 117.935 101.407 117.8 101.407H117.251C117.116 101.407 116.894 101.416 116.585 101.436C116.277 101.455 115.959 101.474 115.631 101.493C115.303 101.513 114.985 101.532 114.676 101.551C114.368 101.571 114.146 101.58 114.011 101.58L113.953 101.465L114.04 100.944L114.184 100.828C114.493 100.828 114.782 100.818 115.052 100.799C115.322 100.761 115.544 100.674 115.718 100.539C115.872 100.404 116.016 100.23 116.151 100.018C116.306 99.806 116.402 99.43 116.441 98.89C116.441 98.755 116.441 98.6007 116.441 98.4271C116.46 98.2343 116.47 98.0028 116.47 97.7328C116.489 97.4629 116.499 97.135 116.499 96.7493C116.499 96.3636 116.499 95.8815 116.499 95.3029V89.4305C116.499 88.7555 116.499 88.1866 116.499 87.7238C116.499 87.2609 116.499 86.8656 116.499 86.5377C116.499 86.2099 116.489 85.9302 116.47 85.6988C116.47 85.4674 116.46 85.236 116.441 85.0045C116.402 84.4838 116.306 84.1174 116.151 83.9053C116.016 83.6739 115.872 83.4906 115.718 83.3556C115.544 83.2206 115.322 83.1435 115.052 83.1242C114.782 83.0857 114.493 83.0664 114.184 83.0664L114.04 82.9507L113.953 82.4299L114.011 82.3142C114.146 82.3142 114.368 82.3239 114.676 82.3432C114.985 82.3625 115.303 82.3817 115.631 82.401C115.959 82.4203 116.277 82.4396 116.585 82.4589C116.894 82.4782 117.116 82.4878 117.251 82.4878H117.8C117.935 82.4878 118.157 82.4782 118.466 82.4589C118.774 82.4396 119.092 82.4203 119.42 82.401C119.748 82.3817 120.066 82.3625 120.375 82.3432C120.684 82.3239 120.905 82.3142 121.04 82.3142L121.098 82.4299Z" fill="white"/>
<path d="M136.842 90.5876C137.344 89.7584 137.99 89.0641 138.78 88.5048C139.571 87.9455 140.555 87.6659 141.731 87.6659C142.271 87.6659 142.811 87.7431 143.351 87.8973C143.891 88.0516 144.383 88.2927 144.826 88.6205C145.289 88.9484 145.665 89.3727 145.955 89.8934C146.263 90.3948 146.466 90.9926 146.562 91.6869C146.62 92.1883 146.649 92.7187 146.649 93.2779C146.668 93.8372 146.678 94.3965 146.678 94.9558C146.678 95.65 146.678 96.3539 146.678 97.0675C146.697 97.7618 146.707 98.456 146.707 99.1503C146.745 99.5939 146.793 99.9217 146.851 100.134C146.909 100.327 146.996 100.471 147.112 100.568C147.285 100.722 147.517 100.819 147.806 100.857C148.114 100.876 148.423 100.886 148.732 100.886L148.818 101.002L148.876 101.407L148.818 101.522C148.491 101.484 148.124 101.455 147.719 101.436C147.314 101.416 146.919 101.407 146.533 101.407C145.8 101.407 145.135 101.436 144.537 101.493L144.335 101.204C144.412 100.953 144.47 100.626 144.508 100.221C144.547 99.8157 144.576 99.4589 144.595 99.1503C144.633 98.3403 144.662 97.5496 144.682 96.7782C144.701 95.9875 144.711 95.3318 144.711 94.8111C144.711 94.3676 144.691 93.8854 144.653 93.3647C144.633 92.844 144.576 92.3908 144.479 92.0051C144.286 91.0987 143.891 90.4237 143.293 89.9802C142.695 89.5366 142.001 89.3148 141.21 89.3148C140.574 89.3148 139.976 89.4498 139.417 89.7198C138.877 89.9898 138.414 90.3273 138.028 90.7323C137.643 91.118 137.334 91.5326 137.103 91.9762C136.89 92.4005 136.784 92.7669 136.784 93.0754V96.3443C136.784 96.7686 136.784 97.1157 136.784 97.3857C136.784 97.6557 136.784 97.8871 136.784 98.08C136.804 98.2728 136.823 98.456 136.842 98.6296C136.861 98.7839 136.881 98.9575 136.9 99.1503C136.939 99.5553 136.977 99.8639 137.016 100.076C137.074 100.269 137.18 100.433 137.334 100.568C137.488 100.703 137.7 100.79 137.97 100.828C138.26 100.867 138.549 100.886 138.838 100.886L138.983 101.031L139.041 101.407L138.983 101.522C138.848 101.522 138.645 101.513 138.375 101.493C138.105 101.474 137.816 101.455 137.508 101.436C137.199 101.436 136.91 101.426 136.64 101.407C136.37 101.407 136.167 101.407 136.032 101.407H135.627C135.492 101.407 135.28 101.407 134.991 101.407C134.721 101.426 134.432 101.436 134.123 101.436C133.834 101.455 133.544 101.474 133.255 101.493C132.985 101.513 132.783 101.522 132.648 101.522L132.619 101.407L132.648 101.002L132.763 100.886C133.072 100.886 133.371 100.876 133.66 100.857C133.969 100.819 134.2 100.722 134.354 100.568C134.509 100.433 134.605 100.259 134.644 100.047C134.702 99.8349 134.75 99.536 134.788 99.1503C134.808 98.8418 134.827 98.5332 134.846 98.2246C134.865 97.8968 134.875 97.3857 134.875 96.6914V93.1333C134.875 92.7283 134.875 92.3908 134.875 92.1208C134.875 91.8315 134.865 91.5808 134.846 91.3687C134.846 91.1566 134.837 90.9637 134.817 90.7901C134.817 90.6166 134.808 90.4334 134.788 90.2405C134.75 90.0284 134.692 89.8452 134.615 89.6909C134.538 89.5173 134.47 89.4016 134.412 89.3437C134.219 89.1123 133.978 88.9773 133.689 88.9387C133.4 88.8809 133.101 88.852 132.792 88.852L132.677 88.7362V88.3313L132.792 88.2445H133.313C133.641 88.2445 134.055 88.2445 134.557 88.2445C135.058 88.2252 135.492 88.1866 135.859 88.1288L136.871 87.9841L137.045 88.2445C136.948 88.4952 136.881 88.8423 136.842 89.2859C136.804 89.7102 136.775 90.1248 136.755 90.5298L136.842 90.5876Z" fill="white"/>
<path d="M157.739 87.6659C158.877 87.6659 159.889 87.8684 160.776 88.2734C161.664 88.6591 162.406 89.1895 163.004 89.8644C163.621 90.5201 164.084 91.2819 164.392 92.1497C164.72 93.0176 164.884 93.9144 164.884 94.8401C164.884 95.7272 164.74 96.5854 164.45 97.4146C164.161 98.2439 163.717 98.9768 163.12 99.6132C162.522 100.25 161.779 100.761 160.892 101.146C160.005 101.532 158.973 101.725 157.797 101.725C156.582 101.725 155.521 101.522 154.615 101.117C153.708 100.712 152.956 100.182 152.358 99.5264C151.78 98.8707 151.346 98.1282 151.057 97.2989C150.767 96.4504 150.623 95.5825 150.623 94.6954C150.623 93.7504 150.787 92.8537 151.115 92.0051C151.442 91.1566 151.905 90.4141 152.503 89.7777C153.12 89.122 153.863 88.6109 154.731 88.2445C155.618 87.8588 156.621 87.6659 157.739 87.6659ZM157.768 100.597C158.578 100.597 159.292 100.433 159.909 100.105C160.526 99.7771 161.037 99.3432 161.442 98.8032C161.847 98.2632 162.146 97.6557 162.339 96.9807C162.551 96.2865 162.657 95.5729 162.657 94.8401C162.657 94.1458 162.541 93.4419 162.31 92.7283C162.098 92.0148 161.779 91.3783 161.355 90.8191C160.931 90.2405 160.41 89.7777 159.793 89.4305C159.176 89.0641 158.462 88.8809 157.652 88.8809C156.804 88.8809 156.071 89.0545 155.454 89.4016C154.856 89.7294 154.354 90.1634 153.949 90.7034C153.564 91.2433 153.274 91.8605 153.082 92.5547C152.889 93.249 152.792 93.9433 152.792 94.6376C152.792 95.3511 152.898 96.0647 153.111 96.7782C153.342 97.4725 153.67 98.1089 154.094 98.6875C154.518 99.2467 155.039 99.7096 155.656 100.076C156.273 100.423 156.977 100.597 157.768 100.597Z" fill="white"/>
<path d="M181.205 101.407L177.792 92.6126C177.58 93.1526 177.368 93.6926 177.155 94.2326C176.963 94.7726 176.779 95.2836 176.606 95.7657C176.432 96.2286 176.278 96.6336 176.143 96.9807C176.008 97.3279 175.911 97.5689 175.854 97.7039L174.378 101.407L172.614 101.551L172.324 101.407L170.589 96.7782C170.531 96.6239 170.406 96.325 170.213 95.8815C170.039 95.4186 169.837 94.8979 169.605 94.3193C169.374 93.7408 169.133 93.1526 168.882 92.5547C168.651 91.9376 168.438 91.3976 168.246 90.9348C168.053 90.4719 167.879 90.1055 167.725 89.8355C167.532 89.5269 167.31 89.2859 167.06 89.1123C166.828 88.9387 166.51 88.8327 166.105 88.7941L165.931 88.6495V88.2445L166.047 88.1288C166.375 88.1673 166.722 88.2059 167.088 88.2445C167.455 88.283 167.792 88.3023 168.101 88.3023H169.229C169.538 88.3023 169.904 88.283 170.328 88.2445C170.772 88.2059 171.187 88.1673 171.572 88.1288L171.688 88.2445V88.5916L171.572 88.7073C171.148 88.7459 170.791 88.8616 170.502 89.0545C170.232 89.228 170.097 89.4884 170.097 89.8355C170.097 89.9898 170.136 90.2309 170.213 90.5587C170.309 90.8866 170.425 91.253 170.56 91.658C170.695 92.063 170.839 92.4969 170.994 92.9597C171.148 93.4033 171.302 93.8276 171.457 94.2326C171.611 94.6376 171.746 94.9943 171.862 95.3029C171.977 95.6115 172.054 95.8236 172.093 95.9393L173.51 99.7L174.899 96.3732C175.015 96.084 175.169 95.7079 175.362 95.245C175.574 94.7822 175.776 94.2808 175.969 93.7408C176.181 93.2008 176.374 92.6512 176.548 92.0919C176.741 91.5326 176.876 91.0216 176.953 90.5587C176.856 90.1923 176.702 89.8355 176.49 89.4884C176.297 89.122 175.902 88.8905 175.304 88.7941L175.13 88.6495V88.2445L175.246 88.1288C175.574 88.1673 175.873 88.2059 176.143 88.2445C176.432 88.283 176.731 88.3023 177.04 88.3023H178.168C178.804 88.3023 179.489 88.2445 180.222 88.1288L180.337 88.2445V88.5916L180.222 88.7073C179.373 88.8037 178.949 89.1798 178.949 89.8355C178.949 89.9898 178.987 90.2309 179.065 90.5587C179.161 90.8866 179.277 91.253 179.412 91.658C179.547 92.063 179.691 92.4969 179.846 92.9597C180 93.4033 180.154 93.8276 180.309 94.2326C180.463 94.6376 180.598 94.9943 180.714 95.3029C180.829 95.6115 180.906 95.8236 180.945 95.9393L182.362 99.7L183.751 96.3732C183.886 96.0454 184.069 95.6018 184.301 95.0425C184.532 94.4833 184.763 93.8854 184.995 93.249C185.226 92.6126 185.419 91.9955 185.573 91.3976C185.747 90.7805 185.834 90.2598 185.834 89.8355C185.834 89.4112 185.679 89.1316 185.371 88.9966C185.062 88.8423 184.715 88.7459 184.33 88.7073L184.214 88.5916V88.2445L184.33 88.1288C185.101 88.2445 185.805 88.3023 186.441 88.3023H187.627C187.955 88.3023 188.264 88.283 188.553 88.2445C188.862 88.2059 189.209 88.1673 189.594 88.1288L189.681 88.2445V88.6495L189.537 88.7941C189.189 88.8327 188.89 88.9291 188.64 89.0834C188.408 89.2377 188.187 89.4884 187.974 89.8355C187.782 90.1441 187.579 90.5298 187.367 90.9926C187.155 91.4555 186.933 91.9569 186.702 92.4969C186.489 93.0369 186.277 93.5865 186.065 94.1458C185.853 94.7051 185.651 95.2258 185.458 95.7079C185.284 96.19 185.13 96.6143 184.995 96.9807C184.86 97.3279 184.763 97.5689 184.706 97.7039L183.23 101.407L181.466 101.551L181.205 101.407Z" fill="white"/>
<path d="M190.414 80.3761L190.53 80.2604H191.051C191.378 80.2604 191.793 80.2604 192.294 80.2604C192.796 80.2411 193.23 80.2025 193.596 80.1446L194.638 80L194.811 80.2604C194.773 80.3375 194.744 80.4821 194.724 80.6943C194.705 80.8871 194.686 81.0993 194.667 81.3307C194.647 81.5621 194.628 81.7839 194.609 81.996C194.609 82.2082 194.609 82.3721 194.609 82.4878C194.589 82.7964 194.57 83.0857 194.551 83.3556C194.551 83.6256 194.541 83.9438 194.522 84.3103C194.522 84.6767 194.522 85.1203 194.522 85.641C194.522 86.1617 194.522 86.827 194.522 87.637V93.9433C194.522 94.7533 194.522 95.4186 194.522 95.9393C194.541 96.46 194.551 96.9036 194.551 97.27C194.57 97.6364 194.58 97.9546 194.58 98.2246C194.599 98.4946 194.618 98.8032 194.638 99.1503C194.676 99.5553 194.715 99.8639 194.753 100.076C194.811 100.269 194.917 100.433 195.072 100.568C195.226 100.703 195.438 100.79 195.708 100.828C195.997 100.867 196.286 100.886 196.576 100.886L196.72 101.031L196.778 101.407L196.72 101.522C196.585 101.522 196.383 101.513 196.113 101.493C195.843 101.474 195.554 101.455 195.245 101.436C194.937 101.436 194.647 101.426 194.377 101.407C194.107 101.407 193.905 101.407 193.77 101.407H193.365C193.23 101.407 193.018 101.407 192.728 101.407C192.458 101.426 192.169 101.436 191.861 101.436C191.571 101.455 191.282 101.474 190.993 101.493C190.723 101.513 190.52 101.522 190.385 101.522L190.356 101.407L190.385 101.002L190.501 100.886C190.809 100.886 191.108 100.876 191.398 100.857C191.706 100.819 191.938 100.722 192.092 100.568C192.246 100.433 192.343 100.259 192.381 100.047C192.439 99.8349 192.487 99.536 192.526 99.1503C192.545 98.8996 192.555 98.6489 192.555 98.3982C192.574 98.1475 192.584 97.8582 192.584 97.5304C192.603 97.1832 192.613 96.7879 192.613 96.3443C192.613 95.8815 192.613 95.3125 192.613 94.6376V87.6948C192.613 86.9041 192.613 86.2388 192.613 85.6988C192.613 85.1395 192.603 84.6574 192.584 84.2524C192.584 83.8474 192.574 83.4906 192.555 83.1821C192.555 82.8735 192.545 82.5649 192.526 82.2564C192.507 82.0442 192.449 81.861 192.352 81.7067C192.275 81.5525 192.208 81.4368 192.15 81.3596C191.957 81.1475 191.716 81.0125 191.427 80.9546C191.137 80.8968 190.838 80.8678 190.53 80.8678L190.414 80.7521V80.3761Z" fill="white"/>
<path d="M211.344 93.6251L210.882 93.8276C209.84 93.8276 208.77 93.8372 207.671 93.8565C206.571 93.8758 205.491 93.8854 204.431 93.8854H201.017C200.998 94.0204 200.988 94.1554 200.988 94.2904C200.988 94.4061 200.988 94.5218 200.988 94.6376C200.988 95.3704 201.094 96.0743 201.306 96.7493C201.519 97.405 201.846 97.9836 202.29 98.485C202.753 98.9864 203.341 99.3914 204.055 99.7C204.768 99.9892 205.636 100.134 206.658 100.134C207.256 100.134 207.892 100.076 208.567 99.9603C209.262 99.8253 209.898 99.5939 210.477 99.266L210.766 99.4396V99.9603L210.477 100.279C210.014 100.645 209.358 100.982 208.509 101.291C207.661 101.58 206.716 101.725 205.675 101.725C204.652 101.725 203.717 101.561 202.869 101.233C202.039 100.886 201.316 100.404 200.699 99.7867C200.101 99.1696 199.629 98.4368 199.281 97.5882C198.954 96.7397 198.79 95.7947 198.79 94.7533C198.79 93.6926 198.963 92.7283 199.31 91.8605C199.657 90.9926 200.13 90.2501 200.728 89.633C201.345 89.0159 202.059 88.5338 202.869 88.1866C203.698 87.8395 204.585 87.6659 205.53 87.6659C206.031 87.6659 206.591 87.7334 207.208 87.8684C207.844 88.0034 208.452 88.2638 209.03 88.6495C209.609 89.0159 210.129 89.5462 210.592 90.2405C211.055 90.9155 211.373 91.8123 211.547 92.9308L211.344 93.6251ZM205.559 88.9677C204.942 88.9677 204.382 89.0737 203.881 89.2859C203.399 89.4787 202.965 89.7487 202.579 90.0959C202.213 90.4237 201.904 90.8191 201.654 91.2819C201.422 91.7255 201.258 92.198 201.162 92.6994H202.29C203.331 92.6994 204.344 92.6897 205.327 92.6705C206.311 92.6319 207.343 92.5837 208.423 92.5258C208.673 92.5065 208.837 92.439 208.914 92.3233C209.011 92.2076 209.059 92.0726 209.059 91.9183C209.059 91.8026 209.049 91.6965 209.03 91.6001C209.011 91.5037 208.982 91.4073 208.943 91.3108C208.731 90.578 208.336 90.0091 207.757 89.6041C207.179 89.1798 206.446 88.9677 205.559 88.9677Z" fill="white"/>
<path d="M224.807 101.204C224.865 100.992 224.913 100.674 224.952 100.25C225.01 99.8253 225.058 99.4492 225.096 99.1214L225.068 99.0057C224.528 99.8157 223.862 100.471 223.072 100.973C222.281 101.474 221.374 101.725 220.352 101.725C219.253 101.725 218.298 101.532 217.488 101.146C216.698 100.761 216.042 100.25 215.521 99.6132C215.02 98.9768 214.644 98.2536 214.393 97.4436C214.142 96.6143 214.017 95.7561 214.017 94.869C214.017 93.5576 214.22 92.4487 214.625 91.5423C215.03 90.6166 215.541 89.8741 216.158 89.3148C216.775 88.7362 217.45 88.3216 218.183 88.0709C218.935 87.8009 219.648 87.6659 220.323 87.6659C221.249 87.6659 222.136 87.8781 222.985 88.3023C223.833 88.7073 224.556 89.4016 225.154 90.3851L225.212 90.2694C225.174 89.8259 225.154 89.4016 225.154 88.9966C225.154 88.5723 225.154 88.1384 225.154 87.6948C225.154 86.9041 225.154 86.2388 225.154 85.6988C225.154 85.1395 225.145 84.6574 225.125 84.2524C225.125 83.8474 225.116 83.4906 225.096 83.1821C225.096 82.8735 225.087 82.5649 225.068 82.2564C225.048 82.0442 224.99 81.861 224.894 81.7067C224.817 81.5525 224.749 81.4368 224.691 81.3596C224.499 81.1475 224.258 81.0125 223.968 80.9546C223.679 80.8968 223.38 80.8678 223.072 80.8678L222.956 80.7521V80.3761L223.072 80.2604H223.592C223.92 80.2604 224.335 80.2604 224.836 80.2604C225.338 80.2411 225.771 80.2025 226.138 80.1446L227.15 80L227.324 80.2604C227.285 80.3375 227.247 80.4821 227.208 80.6943C227.189 80.8871 227.17 81.0993 227.15 81.3307C227.15 81.5621 227.141 81.7839 227.121 81.996C227.121 82.2082 227.121 82.3721 227.121 82.4878C227.121 82.7964 227.112 83.0857 227.093 83.3556C227.093 83.6256 227.093 83.9438 227.093 84.3103C227.093 84.6767 227.083 85.1203 227.064 85.641C227.064 86.1617 227.064 86.827 227.064 87.637V93.9433C227.064 94.7533 227.064 95.4186 227.064 95.9393C227.083 96.46 227.093 96.9036 227.093 97.27C227.112 97.6364 227.121 97.9546 227.121 98.2246C227.141 98.4946 227.16 98.8032 227.179 99.1503C227.218 99.5939 227.266 99.9217 227.324 100.134C227.382 100.327 227.469 100.471 227.584 100.568C227.758 100.722 227.989 100.819 228.279 100.857C228.568 100.876 228.867 100.886 229.175 100.886L229.291 101.002L229.349 101.407L229.291 101.522C228.944 101.484 228.568 101.455 228.163 101.436C227.777 101.416 227.382 101.407 226.977 101.407C226.263 101.407 225.608 101.436 225.01 101.493L224.807 101.204ZM216.216 94.8111C216.216 95.4668 216.302 96.1129 216.476 96.7493C216.65 97.3857 216.91 97.9546 217.257 98.456C217.604 98.9382 218.048 99.3335 218.588 99.6421C219.128 99.9314 219.774 100.076 220.526 100.076C221.239 100.076 221.876 99.941 222.435 99.671C223.014 99.401 223.496 99.0732 223.882 98.6875C224.267 98.3018 224.566 97.8968 224.778 97.4725C225.01 97.0482 225.135 96.6818 225.154 96.3732V93.1622C225.116 92.8537 224.99 92.4776 224.778 92.034C224.585 91.5905 224.296 91.1662 223.91 90.7612C223.544 90.3369 223.081 89.9802 222.522 89.6909C221.982 89.4016 221.336 89.257 220.584 89.257C219.812 89.257 219.147 89.4209 218.588 89.7487C218.048 90.0573 217.594 90.4719 217.228 90.9926C216.881 91.5133 216.621 92.1112 216.447 92.7862C216.293 93.4419 216.216 94.1169 216.216 94.8111Z" fill="white"/>
<path d="M234.343 97.4725C233.301 97.0868 232.549 96.4793 232.086 95.65C231.624 94.8208 231.392 93.9047 231.392 92.9019C231.392 92.1883 231.518 91.5133 231.768 90.8769C232.019 90.2405 232.376 89.6909 232.839 89.228C233.321 88.7459 233.89 88.3698 234.545 88.0998C235.22 87.8298 235.982 87.6948 236.831 87.6948C237.332 87.6948 237.824 87.7431 238.306 87.8395C238.807 87.9359 239.241 88.0709 239.608 88.2445C240.418 88.2252 241.17 88.177 241.864 88.0998C242.578 88.0227 243.243 87.8973 243.86 87.7238L244.005 87.8395L243.802 89.4305L243.658 89.5752L241.025 89.4594L240.996 89.5462C241.498 89.9512 241.864 90.4816 242.096 91.1373C242.327 91.793 242.443 92.4294 242.443 93.0465C242.443 93.6829 242.317 94.2904 242.067 94.869C241.835 95.4475 241.488 95.9586 241.025 96.4022C240.562 96.8264 239.984 97.1736 239.289 97.4436C238.595 97.6943 237.795 97.8196 236.888 97.8196C236.734 97.8196 236.541 97.8196 236.31 97.8196C236.078 97.8003 235.886 97.7907 235.731 97.7907C235.404 97.9257 235.153 98.1089 234.979 98.3403C234.825 98.5718 234.748 98.7646 234.748 98.9189C234.748 99.1117 234.873 99.2853 235.124 99.4396C235.394 99.5746 235.818 99.671 236.397 99.7289L239.203 100.018C239.839 100.095 240.427 100.23 240.967 100.423C241.527 100.616 242.009 100.876 242.414 101.204C242.838 101.513 243.166 101.889 243.397 102.332C243.629 102.795 243.744 103.326 243.744 103.923C243.744 104.483 243.619 105.042 243.368 105.601C243.118 106.18 242.742 106.691 242.24 107.134C241.739 107.559 241.044 107.906 240.157 108.176C239.27 108.446 238.248 108.581 237.091 108.581C236.05 108.581 235.143 108.465 234.372 108.234C233.62 108.022 232.983 107.723 232.462 107.337C231.961 106.971 231.585 106.546 231.334 106.064C231.084 105.601 230.958 105.119 230.958 104.618C230.958 103.808 231.219 103.085 231.739 102.448C232.279 101.831 232.964 101.397 233.793 101.146L233.822 101.06C233.398 100.886 233.06 100.674 232.81 100.423C232.559 100.153 232.434 99.8253 232.434 99.4396C232.434 98.9382 232.636 98.5332 233.041 98.2246C233.446 97.9161 233.88 97.7039 234.343 97.5882V97.4725ZM236.946 96.6047C237.486 96.6047 237.959 96.5082 238.364 96.3154C238.788 96.1225 239.145 95.8622 239.434 95.5343C239.723 95.2065 239.945 94.8304 240.099 94.4061C240.254 93.9626 240.331 93.5094 240.331 93.0465C240.331 92.5644 240.254 92.0823 240.099 91.6001C239.945 91.118 239.714 90.6841 239.405 90.2984C239.116 89.9127 238.75 89.5944 238.306 89.3437C237.862 89.093 237.351 88.9677 236.773 88.9677C236.213 88.9677 235.722 89.0834 235.297 89.3148C234.892 89.5462 234.545 89.8452 234.256 90.2116C233.986 90.578 233.784 90.9926 233.649 91.4555C233.514 91.899 233.446 92.3426 233.446 92.7862C233.446 93.249 233.514 93.7119 233.649 94.1747C233.803 94.6183 234.025 95.0233 234.314 95.3897C234.622 95.7561 234.989 96.055 235.413 96.2864C235.857 96.4986 236.368 96.6047 236.946 96.6047ZM236.021 101.551C235.481 101.571 235.008 101.667 234.603 101.841C234.198 102.014 233.851 102.226 233.562 102.477C233.292 102.747 233.089 103.036 232.954 103.345C232.819 103.673 232.752 103.991 232.752 104.299C232.752 105.032 233.157 105.63 233.967 106.093C234.777 106.556 235.876 106.787 237.265 106.787C237.901 106.787 238.489 106.729 239.029 106.614C239.569 106.517 240.032 106.353 240.418 106.122C240.823 105.91 241.141 105.64 241.372 105.312C241.604 105.003 241.719 104.637 241.719 104.213C241.719 103.75 241.604 103.374 241.372 103.085C241.16 102.795 240.871 102.554 240.504 102.361C240.157 102.188 239.752 102.053 239.289 101.956C238.846 101.879 238.402 101.812 237.959 101.754L236.021 101.551Z" fill="white"/>
<path d="M258.494 93.6251L258.031 93.8276C256.989 93.8276 255.919 93.8372 254.82 93.8565C253.72 93.8758 252.64 93.8854 251.58 93.8854H248.166C248.147 94.0204 248.137 94.1554 248.137 94.2904C248.137 94.4061 248.137 94.5218 248.137 94.6376C248.137 95.3704 248.243 96.0743 248.456 96.7493C248.668 97.405 248.996 97.9836 249.439 98.485C249.902 98.9864 250.49 99.3914 251.204 99.7C251.917 99.9892 252.785 100.134 253.807 100.134C254.405 100.134 255.042 100.076 255.717 99.9603C256.411 99.8253 257.047 99.5939 257.626 99.266L257.915 99.4396V99.9603L257.626 100.279C257.163 100.645 256.507 100.982 255.659 101.291C254.81 101.58 253.865 101.725 252.824 101.725C251.802 101.725 250.866 101.561 250.018 101.233C249.188 100.886 248.465 100.404 247.848 99.7867C247.25 99.1696 246.778 98.4368 246.431 97.5882C246.103 96.7397 245.939 95.7947 245.939 94.7533C245.939 93.6926 246.112 92.7283 246.46 91.8605C246.807 90.9926 247.279 90.2501 247.877 89.633C248.494 89.0159 249.208 88.5338 250.018 88.1866C250.847 87.8395 251.734 87.6659 252.679 87.6659C253.18 87.6659 253.74 87.7334 254.357 87.8684C254.993 88.0034 255.601 88.2638 256.179 88.6495C256.758 89.0159 257.279 89.5462 257.741 90.2405C258.204 90.9155 258.523 91.8123 258.696 92.9308L258.494 93.6251ZM252.708 88.9677C252.091 88.9677 251.532 89.0737 251.03 89.2859C250.548 89.4787 250.114 89.7487 249.728 90.0959C249.362 90.4237 249.053 90.8191 248.803 91.2819C248.571 91.7255 248.407 92.198 248.311 92.6994H249.439C250.481 92.6994 251.493 92.6897 252.477 92.6705C253.46 92.6319 254.492 92.5837 255.572 92.5258C255.823 92.5065 255.987 92.439 256.064 92.3233C256.16 92.2076 256.208 92.0726 256.208 91.9183C256.208 91.8026 256.199 91.6965 256.179 91.6001C256.16 91.5037 256.131 91.4073 256.093 91.3108C255.88 90.578 255.485 90.0091 254.907 89.6041C254.328 89.1798 253.595 88.9677 252.708 88.9677Z" fill="white"/>
<path d="M275.087 101.58C274.952 101.58 274.731 101.571 274.422 101.551C274.113 101.532 273.795 101.513 273.467 101.493C273.14 101.474 272.821 101.455 272.513 101.436C272.204 101.416 271.982 101.407 271.847 101.407H271.298C271.163 101.407 270.941 101.416 270.632 101.436C270.324 101.455 270.006 101.474 269.678 101.493C269.35 101.513 269.032 101.532 268.723 101.551C268.415 101.571 268.193 101.58 268.058 101.58L268 101.465L268.087 100.944L268.231 100.828C268.463 100.828 268.733 100.818 269.041 100.799C269.35 100.761 269.591 100.684 269.765 100.568C269.919 100.452 270.064 100.269 270.199 100.018C270.334 99.7674 270.43 99.3914 270.488 98.89C270.488 98.755 270.488 98.6007 270.488 98.4271C270.507 98.2343 270.517 98.0028 270.517 97.7328C270.536 97.4629 270.546 97.135 270.546 96.7493C270.546 96.3636 270.546 95.8815 270.546 95.3029V87.7816C270.546 87.3959 270.536 86.962 270.517 86.4799C270.517 85.9784 270.498 85.4867 270.459 85.0045C270.42 84.561 270.334 84.2138 270.199 83.9631C270.064 83.6931 269.919 83.4906 269.765 83.3556C269.591 83.2592 269.408 83.1917 269.215 83.1531C269.041 83.0953 268.714 83.0664 268.231 83.0664L268.087 82.9507L268 82.4299L268.058 82.3142C268.193 82.3142 268.366 82.3239 268.579 82.3432C268.81 82.3625 269.041 82.3817 269.273 82.401C269.524 82.4203 269.774 82.4396 270.025 82.4589C270.276 82.4782 270.507 82.4878 270.719 82.4878H271.761C271.973 82.4878 272.214 82.4878 272.484 82.4878C272.754 82.4878 273.024 82.4878 273.294 82.4878C273.583 82.4685 273.844 82.4589 274.075 82.4589C274.306 82.4589 274.499 82.4589 274.653 82.4589C275.946 82.4589 277.035 82.5842 277.922 82.8349C278.829 83.0857 279.562 83.4328 280.121 83.8763C280.68 84.3006 281.085 84.8213 281.336 85.4385C281.606 86.0363 281.741 86.6824 281.741 87.3766C281.741 88.2059 281.587 88.9291 281.278 89.5462C280.989 90.1441 280.613 90.6648 280.15 91.1083C279.687 91.5326 279.166 91.8798 278.588 92.1497C278.009 92.4005 277.44 92.5933 276.881 92.7283C277.498 93.5961 278.134 94.4543 278.79 95.3029C279.446 96.1515 280.121 96.9807 280.815 97.7907C281.201 98.2343 281.558 98.6296 281.885 98.9768C282.213 99.3239 282.56 99.6228 282.927 99.8735C283.313 100.124 283.737 100.327 284.2 100.481C284.663 100.635 285.222 100.751 285.878 100.828L286.051 100.944L286.109 101.465L286.051 101.58C285.627 101.6 285.145 101.619 284.605 101.638C284.065 101.677 283.64 101.696 283.332 101.696C282.83 101.696 282.397 101.638 282.03 101.522C281.664 101.407 281.307 101.223 280.96 100.973C280.613 100.722 280.256 100.394 279.889 99.9892C279.542 99.5842 279.137 99.1021 278.674 98.5428C278.617 98.485 278.443 98.2632 278.154 97.8775C277.884 97.4725 277.546 97 277.141 96.46C276.756 95.9007 276.341 95.3125 275.897 94.6954C275.473 94.059 275.078 93.4708 274.711 92.9308H272.6C272.6 93.4515 272.6 94.0204 272.6 94.6376C272.6 95.2547 272.6 95.8429 272.6 96.4022C272.619 96.9614 272.629 97.4725 272.629 97.9353C272.648 98.3789 272.667 98.6971 272.686 98.89C272.725 99.4492 272.821 99.8446 272.976 100.076C273.13 100.288 273.265 100.442 273.381 100.539C273.554 100.635 273.728 100.712 273.901 100.77C274.094 100.809 274.441 100.828 274.943 100.828L275.058 100.944L275.145 101.465L275.087 101.58ZM275.232 91.658C276.833 91.658 277.98 91.2916 278.674 90.5587C279.388 89.8066 279.745 88.8037 279.745 87.5502C279.745 86.3738 279.34 85.4674 278.53 84.831C277.739 84.1946 276.65 83.8763 275.261 83.8763H272.744C272.706 84.4356 272.677 84.9081 272.657 85.2938C272.657 85.6795 272.648 86.017 272.629 86.3063C272.609 86.5956 272.6 86.8559 272.6 87.0874C272.6 87.3188 272.6 87.5406 272.6 87.7527V90.5876C272.6 90.8383 272.609 91.0408 272.629 91.1951C272.648 91.3301 272.696 91.4362 272.773 91.5133C272.85 91.5712 272.956 91.6098 273.091 91.629C273.246 91.6483 273.448 91.658 273.699 91.658H275.232Z" fill="white"/>
<path d="M298.863 93.6251L298.4 93.8276C297.359 93.8276 296.288 93.8372 295.189 93.8565C294.09 93.8758 293.01 93.8854 291.949 93.8854H288.536C288.516 94.0204 288.507 94.1554 288.507 94.2904C288.507 94.4061 288.507 94.5218 288.507 94.6376C288.507 95.3704 288.613 96.0743 288.825 96.7493C289.037 97.405 289.365 97.9836 289.808 98.485C290.271 98.9864 290.859 99.3914 291.573 99.7C292.287 99.9892 293.154 100.134 294.176 100.134C294.774 100.134 295.411 100.076 296.086 99.9603C296.78 99.8253 297.416 99.5939 297.995 99.266L298.284 99.4396V99.9603L297.995 100.279C297.532 100.645 296.876 100.982 296.028 101.291C295.179 101.58 294.234 101.725 293.193 101.725C292.171 101.725 291.235 101.561 290.387 101.233C289.558 100.886 288.834 100.404 288.217 99.7867C287.619 99.1696 287.147 98.4368 286.8 97.5882C286.472 96.7397 286.308 95.7947 286.308 94.7533C286.308 93.6926 286.482 92.7283 286.829 91.8605C287.176 90.9926 287.648 90.2501 288.246 89.633C288.863 89.0159 289.577 88.5338 290.387 88.1866C291.216 87.8395 292.103 87.6659 293.048 87.6659C293.55 87.6659 294.109 87.7334 294.726 87.8684C295.363 88.0034 295.97 88.2638 296.549 88.6495C297.127 89.0159 297.648 89.5462 298.111 90.2405C298.574 90.9155 298.892 91.8123 299.065 92.9308L298.863 93.6251ZM293.077 88.9677C292.46 88.9677 291.901 89.0737 291.399 89.2859C290.917 89.4787 290.483 89.7487 290.098 90.0959C289.731 90.4237 289.423 90.8191 289.172 91.2819C288.941 91.7255 288.777 92.198 288.68 92.6994H289.808C290.85 92.6994 291.862 92.6897 292.846 92.6705C293.829 92.6319 294.861 92.5837 295.941 92.5258C296.192 92.5065 296.356 92.439 296.433 92.3233C296.529 92.2076 296.578 92.0726 296.578 91.9183C296.578 91.8026 296.568 91.6965 296.549 91.6001C296.529 91.5037 296.5 91.4073 296.462 91.3108C296.25 90.578 295.854 90.0091 295.276 89.6041C294.697 89.1798 293.964 88.9677 293.077 88.9677Z" fill="white"/>
<path d="M307.986 93.7408C308.796 93.9144 309.442 94.1554 309.925 94.464C310.426 94.7533 310.812 95.0715 311.082 95.4186C311.352 95.7657 311.525 96.1225 311.602 96.4889C311.699 96.8361 311.747 97.1639 311.747 97.4725C311.747 98.0896 311.622 98.6585 311.371 99.1792C311.12 99.7 310.754 100.153 310.272 100.539C309.809 100.905 309.24 101.195 308.565 101.407C307.89 101.619 307.128 101.725 306.28 101.725C305.335 101.725 304.448 101.619 303.618 101.407C302.808 101.175 302.162 100.934 301.68 100.684L301.622 100.423L302.056 97.4436H302.722L302.808 97.5593C302.808 98.485 303.098 99.2178 303.676 99.7578C304.255 100.279 305.094 100.539 306.193 100.539C306.849 100.539 307.398 100.462 307.842 100.307C308.285 100.153 308.632 99.9507 308.883 99.7C309.153 99.4492 309.346 99.1792 309.462 98.89C309.577 98.6007 309.635 98.321 309.635 98.0511C309.635 97.8775 309.626 97.6846 309.606 97.4725C309.587 97.2411 309.51 97.0193 309.375 96.8072C309.24 96.5757 309.037 96.3636 308.767 96.1707C308.497 95.9586 308.112 95.785 307.61 95.65L304.833 94.9558C304.197 94.8015 303.676 94.599 303.271 94.3483C302.866 94.0976 302.548 93.8276 302.317 93.5383C302.085 93.2297 301.921 92.9115 301.825 92.5837C301.728 92.2365 301.68 91.8894 301.68 91.5423C301.68 90.9058 301.805 90.3466 302.056 89.8644C302.307 89.363 302.644 88.958 303.069 88.6495C303.512 88.3216 304.023 88.0805 304.602 87.9263C305.18 87.7527 305.807 87.6659 306.482 87.6659C307.389 87.6659 308.218 87.7816 308.97 88.013C309.741 88.2445 310.339 88.4759 310.764 88.7073L310.85 88.9677L310.532 91.1951H309.925L309.809 91.1083C309.809 90.6648 309.684 90.2984 309.433 90.0091C309.201 89.7005 308.912 89.4594 308.565 89.2859C308.218 89.093 307.851 88.958 307.466 88.8809C307.08 88.8037 306.743 88.7652 306.453 88.7652C305.489 88.7652 304.795 89.0062 304.37 89.4884C303.946 89.9705 303.734 90.5105 303.734 91.1083C303.734 91.5519 303.879 91.9762 304.168 92.3812C304.476 92.7669 305.065 93.0658 305.933 93.2779L307.986 93.7408Z" fill="white"/>
<path d="M321.306 87.6659C322.444 87.6659 323.457 87.8684 324.344 88.2734C325.231 88.6591 325.973 89.1895 326.571 89.8644C327.188 90.5201 327.651 91.2819 327.96 92.1497C328.288 93.0176 328.452 93.9144 328.452 94.8401C328.452 95.7272 328.307 96.5854 328.018 97.4146C327.728 98.2439 327.285 98.9768 326.687 99.6132C326.089 100.25 325.347 100.761 324.46 101.146C323.572 101.532 322.541 101.725 321.364 101.725C320.149 101.725 319.089 101.522 318.182 101.117C317.276 100.712 316.524 100.182 315.926 99.5264C315.347 98.8707 314.913 98.1282 314.624 97.2989C314.335 96.4504 314.19 95.5825 314.19 94.6954C314.19 93.7504 314.354 92.8537 314.682 92.0051C315.01 91.1566 315.473 90.4141 316.07 89.7777C316.688 89.122 317.43 88.6109 318.298 88.2445C319.185 87.8588 320.188 87.6659 321.306 87.6659ZM321.335 100.597C322.145 100.597 322.859 100.433 323.476 100.105C324.093 99.7771 324.604 99.3432 325.009 98.8032C325.414 98.2632 325.713 97.6557 325.906 96.9807C326.118 96.2865 326.224 95.5729 326.224 94.8401C326.224 94.1458 326.108 93.4419 325.877 92.7283C325.665 92.0148 325.347 91.3783 324.922 90.8191C324.498 90.2405 323.977 89.7777 323.36 89.4305C322.743 89.0641 322.03 88.8809 321.22 88.8809C320.371 88.8809 319.638 89.0545 319.021 89.4016C318.423 89.7294 317.922 90.1634 317.517 90.7034C317.131 91.2433 316.842 91.8605 316.649 92.5547C316.456 93.249 316.36 93.9433 316.36 94.6376C316.36 95.3511 316.466 96.0647 316.678 96.7782C316.909 97.4725 317.237 98.1089 317.661 98.6875C318.086 99.2467 318.606 99.7096 319.224 100.076C319.841 100.423 320.545 100.597 321.335 100.597Z" fill="white"/>
<path d="M342.164 98.9189C341.662 99.7289 341.016 100.404 340.226 100.944C339.454 101.465 338.499 101.725 337.362 101.725C336.802 101.725 336.262 101.657 335.742 101.522C335.24 101.407 334.768 101.204 334.324 100.915C333.9 100.626 333.534 100.24 333.225 99.7578C332.916 99.2757 332.695 98.6682 332.56 97.9353C332.463 97.4339 332.415 96.9132 332.415 96.3732C332.434 95.814 332.434 95.2547 332.415 94.6954C332.415 94.4447 332.405 94.1072 332.386 93.6829C332.386 93.2394 332.386 92.7958 332.386 92.3522C332.386 91.8894 332.386 91.4651 332.386 91.0794C332.386 90.6937 332.386 90.4141 332.386 90.2405C332.386 90.0284 332.338 89.8452 332.241 89.6909C332.145 89.5173 332.068 89.3919 332.01 89.3148C331.817 89.1027 331.576 88.9773 331.287 88.9387C330.998 88.8809 330.699 88.852 330.39 88.852L330.303 88.7362V88.3313L330.39 88.2445H330.911C331.239 88.2445 331.653 88.2445 332.155 88.2445C332.656 88.2252 333.09 88.1866 333.456 88.1288L334.469 87.9841L334.642 88.2445C334.604 88.3216 334.575 88.4663 334.556 88.6784C334.536 88.8712 334.517 89.0834 334.498 89.3148C334.478 89.5462 334.469 89.768 334.469 89.9802C334.469 90.1923 334.469 90.3562 334.469 90.4719C334.469 90.7998 334.459 91.1662 334.44 91.5712C334.44 91.9569 334.43 92.3522 334.411 92.7572C334.411 93.1622 334.401 93.5479 334.382 93.9144C334.382 94.2808 334.382 94.5893 334.382 94.8401C334.382 95.2643 334.392 95.7465 334.411 96.2864C334.45 96.8072 334.517 97.2604 334.614 97.6461C334.806 98.5525 335.202 99.2275 335.8 99.671C336.397 100.115 337.092 100.336 337.882 100.336C338.48 100.336 339.03 100.221 339.531 99.9892C340.033 99.7385 340.467 99.4396 340.833 99.0925C341.219 98.7453 341.527 98.3789 341.759 97.9932C342.009 97.5882 342.173 97.2218 342.25 96.8939V93.1333C342.25 92.7283 342.241 92.3908 342.222 92.1208C342.222 91.8315 342.212 91.5808 342.193 91.3687C342.193 91.1566 342.183 90.9637 342.164 90.7901C342.164 90.6166 342.154 90.4334 342.135 90.2405C342.096 90.0284 342.038 89.8452 341.961 89.6909C341.903 89.5173 341.845 89.4016 341.788 89.3437C341.595 89.1123 341.354 88.9773 341.064 88.9387C340.775 88.8809 340.476 88.852 340.168 88.852L340.052 88.7362V88.3313L340.168 88.2445H340.688C341.016 88.2445 341.431 88.2445 341.932 88.2445C342.434 88.2252 342.858 88.1866 343.205 88.1288L344.218 87.9841L344.391 88.2445C344.353 88.3216 344.324 88.4663 344.304 88.6784C344.285 88.8712 344.266 89.0834 344.247 89.3148C344.227 89.5462 344.218 89.768 344.218 89.9802C344.218 90.1923 344.218 90.3562 344.218 90.4719C344.218 90.6262 344.208 90.7708 344.189 90.9058C344.189 91.0408 344.189 91.2048 344.189 91.3976C344.189 91.5905 344.179 91.8219 344.16 92.0919C344.16 92.3426 344.16 92.6801 344.16 93.1044V96.3443C344.16 96.7686 344.16 97.1157 344.16 97.3857C344.179 97.6557 344.189 97.8871 344.189 98.08C344.208 98.2728 344.218 98.456 344.218 98.6296C344.237 98.7839 344.247 98.9575 344.247 99.1503C344.285 99.5939 344.333 99.9217 344.391 100.134C344.449 100.327 344.545 100.471 344.68 100.568C344.835 100.722 345.056 100.819 345.346 100.857C345.654 100.876 345.963 100.886 346.271 100.886L346.387 101.002L346.445 101.407L346.387 101.522C346.04 101.484 345.664 101.455 345.259 101.436C344.854 101.416 344.459 101.407 344.073 101.407C343.34 101.407 342.675 101.436 342.077 101.493L341.903 101.204C341.961 100.953 342.019 100.626 342.077 100.221C342.154 99.8157 342.212 99.401 342.25 98.9768L342.164 98.9189Z" fill="white"/>
<path d="M352.191 91.1662C352.384 90.7998 352.596 90.4141 352.828 90.0091C353.078 89.6041 353.358 89.228 353.666 88.8809C353.975 88.5338 354.322 88.2445 354.708 88.013C355.113 87.7816 355.566 87.6659 356.067 87.6659C356.415 87.6659 356.8 87.7238 357.225 87.8395C357.668 87.9359 357.967 88.0709 358.121 88.2445L358.353 88.5048L358.006 90.7323H357.051C356.993 90.4623 356.839 90.2212 356.588 90.0091C356.357 89.7777 355.99 89.6619 355.489 89.6619C355.007 89.6619 354.563 89.8066 354.158 90.0959C353.753 90.3659 353.396 90.713 353.088 91.1373C352.799 91.5615 352.567 92.0148 352.394 92.4969C352.239 92.9597 352.162 93.384 352.162 93.7697V96.3443C352.162 96.7686 352.162 97.1157 352.162 97.3857C352.181 97.6364 352.191 97.8582 352.191 98.0511C352.21 98.2246 352.22 98.3789 352.22 98.5139C352.239 98.6296 352.249 98.755 352.249 98.89L352.278 99.1503C352.316 99.4396 352.355 99.7192 352.394 99.9892C352.451 100.24 352.558 100.433 352.712 100.568C352.808 100.645 352.943 100.703 353.117 100.741C353.31 100.78 353.502 100.809 353.695 100.828C353.907 100.847 354.11 100.867 354.303 100.886C354.496 100.886 354.65 100.886 354.766 100.886L354.91 101.031L354.968 101.407L354.91 101.522C354.775 101.522 354.554 101.513 354.245 101.493C353.956 101.474 353.647 101.455 353.319 101.436C352.991 101.436 352.673 101.426 352.365 101.407C352.075 101.407 351.863 101.407 351.728 101.407H351.034C350.899 101.407 350.687 101.407 350.398 101.407C350.128 101.426 349.838 101.436 349.53 101.436C349.221 101.455 348.922 101.474 348.633 101.493C348.363 101.513 348.16 101.522 348.025 101.522L347.997 101.407L348.025 101.002L348.141 100.886C348.45 100.886 348.749 100.876 349.038 100.857C349.347 100.819 349.578 100.722 349.732 100.568C349.887 100.433 349.983 100.259 350.021 100.047C350.079 99.8349 350.128 99.536 350.166 99.1503L350.195 98.89C350.214 98.6971 350.224 98.456 350.224 98.1668C350.243 97.8775 350.253 97.3857 350.253 96.6914V93.1333C350.253 92.7283 350.253 92.3908 350.253 92.1208C350.253 91.8315 350.243 91.5808 350.224 91.3687C350.224 91.1566 350.214 90.9637 350.195 90.7901C350.195 90.6166 350.185 90.4334 350.166 90.2405C350.128 90.0284 350.07 89.8452 349.993 89.6909C349.915 89.5173 349.848 89.4016 349.79 89.3437C349.597 89.1123 349.356 88.9773 349.067 88.9387C348.778 88.8809 348.479 88.852 348.17 88.852L348.054 88.7362V88.3313L348.17 88.2445H348.691C349.019 88.2445 349.433 88.2445 349.935 88.2445C350.436 88.2252 350.87 88.1866 351.236 88.1288L352.249 87.9841L352.423 88.2445C352.307 88.6495 352.22 89.1123 352.162 89.633C352.124 90.1537 352.104 90.6551 352.104 91.1373L352.191 91.1662Z" fill="white"/>
<path d="M371.062 91.1951L370.946 91.1083C370.946 90.6648 370.811 90.308 370.541 90.038C370.291 89.7487 369.982 89.5269 369.616 89.3727C369.249 89.2184 368.854 89.1123 368.43 89.0545C368.025 88.9966 367.668 88.9677 367.359 88.9677C366.472 88.9677 365.701 89.1316 365.045 89.4594C364.409 89.768 363.878 90.1923 363.454 90.7323C363.03 91.253 362.712 91.8605 362.499 92.5547C362.307 93.2297 362.21 93.924 362.21 94.6376C362.21 95.3704 362.316 96.0743 362.528 96.7493C362.76 97.4243 363.107 98.0221 363.57 98.5428C364.033 99.0635 364.611 99.4782 365.305 99.7867C366 100.095 366.829 100.25 367.793 100.25C368.449 100.25 369.172 100.153 369.963 99.9603C370.773 99.7482 371.467 99.4878 372.046 99.1792L372.335 99.4685L371.901 100.279C371.689 100.433 371.409 100.597 371.062 100.77C370.734 100.925 370.358 101.079 369.934 101.233C369.51 101.368 369.047 101.484 368.545 101.58C368.063 101.677 367.581 101.725 367.099 101.725C366.154 101.725 365.248 101.561 364.38 101.233C363.531 100.886 362.779 100.414 362.123 99.8157C361.487 99.1985 360.976 98.4657 360.59 97.6171C360.204 96.7493 360.012 95.7947 360.012 94.7533C360.012 93.6926 360.204 92.7283 360.59 91.8605C360.976 90.9926 361.506 90.2501 362.181 89.633C362.856 89.0159 363.637 88.5338 364.524 88.1866C365.431 87.8395 366.395 87.6659 367.417 87.6659C368.343 87.6659 369.211 87.7816 370.021 88.013C370.85 88.2445 371.477 88.4759 371.901 88.7073L371.988 88.9677L371.67 91.1951H371.062Z" fill="white"/>
<path d="M387.116 93.6251L386.653 93.8276C385.611 93.8276 384.541 93.8372 383.442 93.8565C382.343 93.8758 381.263 93.8854 380.202 93.8854H376.788C376.769 94.0204 376.76 94.1554 376.76 94.2904C376.76 94.4061 376.76 94.5218 376.76 94.6376C376.76 95.3704 376.866 96.0743 377.078 96.7493C377.29 97.405 377.618 97.9836 378.061 98.485C378.524 98.9864 379.112 99.3914 379.826 99.7C380.539 99.9892 381.407 100.134 382.429 100.134C383.027 100.134 383.664 100.076 384.339 99.9603C385.033 99.8253 385.669 99.5939 386.248 99.266L386.537 99.4396V99.9603L386.248 100.279C385.785 100.645 385.129 100.982 384.281 101.291C383.432 101.58 382.487 101.725 381.446 101.725C380.424 101.725 379.488 101.561 378.64 101.233C377.811 100.886 377.087 100.404 376.47 99.7867C375.872 99.1696 375.4 98.4368 375.053 97.5882C374.725 96.7397 374.561 95.7947 374.561 94.7533C374.561 93.6926 374.735 92.7283 375.082 91.8605C375.429 90.9926 375.901 90.2501 376.499 89.633C377.116 89.0159 377.83 88.5338 378.64 88.1866C379.469 87.8395 380.356 87.6659 381.301 87.6659C381.803 87.6659 382.362 87.7334 382.979 87.8684C383.615 88.0034 384.223 88.2638 384.802 88.6495C385.38 89.0159 385.901 89.5462 386.364 90.2405C386.826 90.9155 387.145 91.8123 387.318 92.9308L387.116 93.6251ZM381.33 88.9677C380.713 88.9677 380.154 89.0737 379.652 89.2859C379.17 89.4787 378.736 89.7487 378.351 90.0959C377.984 90.4237 377.676 90.8191 377.425 91.2819C377.193 91.7255 377.03 92.198 376.933 92.6994H378.061C379.103 92.6994 380.115 92.6897 381.099 92.6705C382.082 92.6319 383.114 92.5837 384.194 92.5258C384.445 92.5065 384.609 92.439 384.686 92.3233C384.782 92.2076 384.83 92.0726 384.83 91.9183C384.83 91.8026 384.821 91.6965 384.802 91.6001C384.782 91.5037 384.753 91.4073 384.715 91.3108C384.503 90.578 384.107 90.0091 383.529 89.6041C382.95 89.1798 382.217 88.9677 381.33 88.9677Z" fill="white"/>
<path d="M396.239 93.7408C397.049 93.9144 397.695 94.1554 398.178 94.464C398.679 94.7533 399.065 95.0715 399.335 95.4186C399.605 95.7657 399.778 96.1225 399.855 96.4889C399.952 96.8361 400 97.1639 400 97.4725C400 98.0896 399.875 98.6585 399.624 99.1792C399.373 99.7 399.007 100.153 398.525 100.539C398.062 100.905 397.493 101.195 396.818 101.407C396.143 101.619 395.381 101.725 394.533 101.725C393.588 101.725 392.701 101.619 391.871 101.407C391.061 101.175 390.415 100.934 389.933 100.684L389.875 100.423L390.309 97.4436H390.974L391.061 97.5593C391.061 98.485 391.351 99.2178 391.929 99.7578C392.508 100.279 393.347 100.539 394.446 100.539C395.102 100.539 395.651 100.462 396.095 100.307C396.538 100.153 396.885 99.9507 397.136 99.7C397.406 99.4492 397.599 99.1792 397.715 98.89C397.83 98.6007 397.888 98.321 397.888 98.0511C397.888 97.8775 397.879 97.6846 397.859 97.4725C397.84 97.2411 397.763 97.0193 397.628 96.8072C397.493 96.5757 397.29 96.3636 397.02 96.1707C396.75 95.9586 396.365 95.785 395.863 95.65L393.086 94.9558C392.45 94.8015 391.929 94.599 391.524 94.3483C391.119 94.0976 390.801 93.8276 390.569 93.5383C390.338 93.2297 390.174 92.9115 390.078 92.5837C389.981 92.2365 389.933 91.8894 389.933 91.5423C389.933 90.9058 390.058 90.3466 390.309 89.8644C390.56 89.363 390.897 88.958 391.322 88.6495C391.765 88.3216 392.276 88.0805 392.855 87.9263C393.433 87.7527 394.06 87.6659 394.735 87.6659C395.642 87.6659 396.471 87.7816 397.223 88.013C397.994 88.2445 398.592 88.4759 399.016 88.7073L399.103 88.9677L398.785 91.1951H398.178L398.062 91.1083C398.062 90.6648 397.936 90.2984 397.686 90.0091C397.454 89.7005 397.165 89.4594 396.818 89.2859C396.471 89.093 396.104 88.958 395.719 88.8809C395.333 88.8037 394.995 88.7652 394.706 88.7652C393.742 88.7652 393.048 89.0062 392.623 89.4884C392.199 89.9705 391.987 90.5105 391.987 91.1083C391.987 91.5519 392.132 91.9762 392.421 92.3812C392.729 92.7669 393.318 93.0658 394.185 93.2779L396.239 93.7408Z" fill="white"/>
<path d="M163.247 11.6864C163.097 10.6016 162.622 9.68935 161.823 8.9497C161.024 8.16075 160.024 7.54438 158.825 7.10059C157.676 6.65681 156.377 6.33629 154.928 6.13905C153.529 5.94181 152.13 5.84319 150.731 5.84319C146.285 5.84319 142.837 6.95266 140.389 9.1716C138.491 10.8481 137.117 13.0917 136.267 15.9024C135.418 18.6637 134.993 21.6716 134.993 24.926C134.993 28.0325 135.418 30.7692 136.267 33.1361C137.167 35.503 138.366 37.5 139.865 39.1272C141.413 40.7051 143.237 41.9132 145.335 42.7515C147.434 43.5404 149.732 43.9349 152.23 43.9349C154.379 43.9349 156.852 43.713 159.65 43.2692C162.498 42.7761 165.171 41.8639 167.669 40.5325L168.568 42.1598L166.769 45.4142C164.171 46.9921 161.548 48.1509 158.9 48.8905C156.302 49.6302 153.629 50 150.881 50C147.134 50 143.737 49.4083 140.689 48.2248C137.641 47.0414 135.018 45.3649 132.82 43.1953C130.671 40.9763 128.998 38.3629 127.799 35.355C126.6 32.2978 126 28.9201 126 25.2219C126 21.7702 126.525 18.5158 127.574 15.4586C128.673 12.3521 130.272 9.66469 132.37 7.39645C134.519 5.12821 137.142 3.3284 140.239 1.99704C143.387 0.665681 147.034 0 151.181 0C152.18 0 153.354 0.049309 154.703 0.147927C156.052 0.197236 157.476 0.345166 158.975 0.591717C160.474 0.788953 161.973 1.10946 163.472 1.55325C165.021 1.94773 166.495 2.46548 167.893 3.10651L168.118 3.77219L167.144 11.9822H163.472L163.247 11.6864Z" fill="white"/>
<path d="M214.762 5.39942C214.313 5.69528 213.638 6.23768 212.739 7.02663C211.89 7.81559 210.94 8.75248 209.891 9.83729C208.842 10.8728 207.718 12.0069 206.519 13.2396C205.37 14.4724 204.245 15.6558 203.146 16.7899L198.05 22.1154C199.949 24.8767 201.772 27.6627 203.521 30.4734C205.32 33.2347 207.393 35.8974 209.741 38.4615C210.741 39.5957 211.715 40.6065 212.664 41.4941C213.663 42.3323 214.713 43.072 215.812 43.713C216.911 44.3047 218.085 44.8225 219.334 45.2663C220.583 45.6608 222.007 45.9813 223.606 46.2278L224.055 46.5237L224.205 49.3343L224.055 49.6302C223.306 49.6302 222.507 49.6302 221.657 49.6302C220.808 49.6795 219.934 49.7288 219.034 49.7781C218.185 49.8274 217.386 49.8521 216.636 49.8521C215.887 49.9014 215.262 49.926 214.762 49.926C213.463 49.926 212.264 49.7534 211.165 49.4083C210.066 49.1124 208.992 48.5947 207.943 47.855C206.943 47.1154 205.919 46.1292 204.87 44.8964C203.821 43.6637 202.672 42.1598 201.423 40.3846C201.123 39.9408 200.598 39.1765 199.849 38.0917C199.149 36.9576 198.375 35.7248 197.525 34.3935C196.676 33.0621 195.827 31.7308 194.977 30.3994C194.128 29.0187 193.379 27.8353 192.729 26.8491C192.13 27.3915 191.53 27.9339 190.93 28.4763C190.331 28.9694 189.756 29.4872 189.207 30.0296V30.6213C189.207 32.6923 189.207 34.2949 189.207 35.429C189.207 36.5138 189.207 37.4014 189.207 38.0917C189.257 38.7327 189.282 39.2751 189.282 39.7189C189.332 40.1134 189.382 40.6312 189.432 41.2722C189.531 42.7022 189.756 43.6884 190.106 44.2308C190.456 44.7732 190.83 45.1923 191.23 45.4882C191.68 45.8826 192.254 46.1045 192.954 46.1538C193.703 46.2032 194.478 46.2278 195.277 46.2278L195.577 46.5237L195.802 49.3343L195.652 49.6302C195.302 49.6302 194.728 49.6055 193.928 49.5562C193.129 49.5069 192.304 49.4576 191.455 49.4083C190.606 49.359 189.781 49.3097 188.982 49.2604C188.182 49.211 187.608 49.1864 187.258 49.1864H182.837C182.487 49.1864 181.912 49.211 181.113 49.2604C180.313 49.3097 179.489 49.359 178.64 49.4083C177.79 49.4576 176.966 49.5069 176.167 49.5562C175.367 49.6055 174.793 49.6302 174.443 49.6302L174.293 49.3343L174.518 46.5237L174.892 46.2278C175.692 46.2278 176.441 46.2032 177.141 46.1538C177.84 46.0552 178.415 45.8333 178.864 45.4882C179.264 45.143 179.639 44.6992 179.989 44.1568C180.388 43.6144 180.638 42.6529 180.738 41.2722C180.738 40.927 180.738 40.5325 180.738 40.0888C180.788 39.5957 180.813 39.0039 180.813 38.3136C180.863 37.6233 180.888 36.785 180.888 35.7988C180.888 34.8126 180.888 33.5799 180.888 32.1006V20.0444C180.888 18.3185 180.888 16.8639 180.888 15.6805C180.888 14.497 180.888 13.4862 180.888 12.6479C180.888 11.8097 180.863 11.0947 180.813 10.503C180.813 9.91125 180.788 9.31954 180.738 8.72782C180.638 7.39646 180.388 6.43492 179.989 5.8432C179.639 5.25149 179.264 4.8077 178.864 4.51184C178.415 4.11737 177.84 3.89547 177.141 3.84616C176.441 3.79685 175.692 3.7722 174.892 3.7722L174.518 3.47634L174.293 0.66569L174.443 0.369831C174.793 0.369831 175.367 0.394486 176.167 0.443795C176.966 0.493104 177.79 0.542414 178.64 0.591726C179.489 0.641035 180.313 0.690344 181.113 0.739653C181.912 0.788962 182.487 0.813617 182.837 0.813617H187.258C187.608 0.813617 188.182 0.788962 188.982 0.739653C189.781 0.690344 190.606 0.641035 191.455 0.591726C192.304 0.542414 193.129 0.493104 193.928 0.443795C194.728 0.394486 195.302 0.369831 195.652 0.369831L195.802 0.66569L195.577 3.47634L195.277 3.7722C194.578 3.7722 193.828 3.82151 193.029 3.92013C192.279 3.96944 191.68 4.16668 191.23 4.51184C190.83 4.85701 190.431 5.3008 190.031 5.8432C189.681 6.38561 189.482 7.34715 189.432 8.72782C189.382 9.31954 189.332 9.91125 189.282 10.503C189.282 11.0454 189.257 11.711 189.207 12.5C189.207 13.2396 189.207 14.1272 189.207 15.1627C189.207 16.1489 189.207 17.357 189.207 18.787V22.3373C190.206 21.8442 191.355 21.1045 192.654 20.1183C193.953 19.0828 195.252 17.9734 196.551 16.7899C197.5 15.9024 198.475 14.9408 199.474 13.9053C200.473 12.8205 201.373 11.785 202.172 10.7988C203.021 9.81263 203.696 8.92506 204.195 8.13611C204.695 7.34715 204.945 6.80474 204.945 6.50889C204.945 5.96648 204.82 5.54735 204.57 5.25149C204.37 4.90632 204.071 4.63512 203.671 4.43788C203.321 4.24064 202.896 4.09271 202.397 3.99409C201.897 3.89547 201.398 3.79685 200.898 3.69824L200.523 3.40238V0.591726L200.898 0.295868C201.897 0.493107 202.946 0.616381 204.046 0.66569C205.195 0.714999 206.344 0.739653 207.493 0.739653H214.163C214.762 0.739653 215.262 0.739653 215.662 0.739653C216.111 0.739653 216.536 0.714999 216.936 0.66569C217.386 0.616381 217.86 0.56707 218.36 0.517758C218.859 0.468449 219.459 0.394486 220.158 0.295868L220.458 0.591726V3.40238L220.158 3.69824C219.459 3.79685 218.56 3.99409 217.46 4.28995C216.411 4.58581 215.512 4.95563 214.762 5.39942Z" fill="white"/>
<path d="M247.834 49.6302C247.435 49.5809 246.86 49.5316 246.111 49.4822C245.411 49.4329 244.637 49.3836 243.787 49.3343C242.988 49.285 242.189 49.2357 241.389 49.1864C240.64 49.1864 239.99 49.1864 239.441 49.1864H235.019C234.419 49.1864 233.72 49.1864 232.92 49.1864C232.121 49.2357 231.322 49.285 230.522 49.3343C229.723 49.3836 228.948 49.4329 228.199 49.4822C227.5 49.5316 226.975 49.5809 226.625 49.6302L226.475 49.3343L226.7 46.5237L227.075 46.2278C228.973 46.2278 230.272 46.0059 230.972 45.5621C232.021 44.8718 232.671 43.4418 232.92 41.2722C232.97 40.4339 232.995 39.1519 232.995 37.426C233.045 35.6509 233.07 33.8757 233.07 32.1006V15.8284C233.07 14.1026 233.045 12.7465 232.995 11.7604C232.945 10.7249 232.871 9.71399 232.771 8.7278C232.571 7.39644 232.346 6.4349 232.096 5.84318C231.896 5.25147 231.571 4.78303 231.122 4.43786C230.722 4.19131 230.223 4.01873 229.623 3.92011C229.073 3.82149 228.224 3.77218 227.075 3.77218L226.7 3.47632L226.475 0.665671L226.625 0.369812C227.924 0.517742 229.198 0.641016 230.447 0.739634C231.746 0.788943 232.771 0.813598 233.52 0.813598H239.216C240.365 0.813598 241.664 0.788943 243.113 0.739634C244.612 0.690325 245.911 0.665671 247.01 0.665671C252.955 0.665671 257.452 1.77514 260.5 3.99407C263.547 6.1637 265.071 9.41813 265.071 13.7574C265.071 16.8639 264.147 19.6992 262.298 22.2633C260.5 24.7781 257.802 26.9724 254.204 28.8462C255.903 31.3609 257.327 33.4073 258.476 34.9852C259.675 36.5631 260.7 37.8205 261.549 38.7574C262.698 40.0888 263.772 41.1982 264.772 42.0858C265.771 42.9734 266.745 43.713 267.694 44.3047C268.694 44.8964 269.718 45.3402 270.767 45.6361C271.816 45.9319 272.99 46.1292 274.289 46.2278L274.739 46.5237L274.889 49.3343L274.739 49.6302C272.84 49.7288 271.192 49.8028 269.793 49.8521C268.394 49.9507 267.37 50 266.72 50C264.072 50 261.699 49.285 259.6 47.855C257.552 46.3757 255.354 43.8856 253.005 40.3846C252.456 39.5957 251.856 38.7081 251.207 37.7219C250.607 36.7357 249.983 35.7742 249.333 34.8373C248.734 33.8511 248.159 32.9142 247.609 32.0266C247.06 31.1391 246.61 30.3748 246.26 29.7337H241.389C241.389 31.4103 241.389 32.8649 241.389 34.0976C241.389 35.2811 241.389 36.3166 241.389 37.2041C241.439 38.0917 241.489 38.856 241.539 39.497C241.589 40.1381 241.639 40.7298 241.689 41.2722C241.889 43.5404 242.438 44.9704 243.338 45.5621C243.687 45.8087 244.137 45.9813 244.687 46.0799C245.236 46.1785 246.161 46.2278 247.46 46.2278L247.759 46.5237L247.984 49.3343L247.834 49.6302ZM245.211 24.2604C248.858 24.2604 251.706 23.3974 253.755 21.6716C255.853 19.9458 256.902 17.5542 256.902 14.497C256.902 11.7357 255.978 9.73865 254.13 8.50591C252.281 7.22386 249.333 6.58283 245.286 6.58283H241.764C241.614 8.55522 241.514 10.0838 241.464 11.1686C241.414 12.2535 241.389 13.289 241.389 14.2751V21.5237C241.389 22.5592 241.514 23.2742 241.764 23.6686C242.014 24.0631 242.488 24.2604 243.188 24.2604H245.211Z" fill="white"/>
</svg>
