<svg width="120" height="75" viewBox="0 0 120 75" fill="none" xmlns="http://www.w3.org/2000/svg">
<rect x="0.5" y="0.5" width="119" height="74" fill="white" stroke="#8D8D8D"/>
<g clip-path="url(#clip0)">
<path d="M39.6933 62.7524V59.4429C39.6933 58.1743 38.9211 57.347 37.5973 57.347C36.9354 57.347 36.2184 57.5676 35.722 58.2846C35.3359 57.6779 34.7843 57.347 33.957 57.347C33.4054 57.347 32.8538 57.5124 32.4126 58.1192V57.4573H31.2543V62.7524H32.4126V59.829C32.4126 58.8914 32.909 58.4501 33.6812 58.4501C34.4534 58.4501 34.8395 58.9465 34.8395 59.829V62.7524H35.9978V59.829C35.9978 58.8914 36.5493 58.4501 37.2664 58.4501C38.0386 58.4501 38.4247 58.9465 38.4247 59.829V62.7524H39.6933ZM56.8471 57.4573H54.9718V55.8577H53.8135V57.4573H52.7655V58.5053H53.8135V60.9322C53.8135 62.1456 54.3099 62.8627 55.6337 62.8627C56.1301 62.8627 56.6816 62.6972 57.0677 62.4766L56.7368 61.4838C56.4059 61.7044 56.0198 61.7595 55.744 61.7595C55.1924 61.7595 54.9718 61.4286 54.9718 60.877V58.5053H56.8471V57.4573ZM66.6651 57.347C66.0032 57.347 65.5619 57.6779 65.2861 58.1192V57.4573H64.1278V62.7524H65.2861V59.7739C65.2861 58.8914 65.6722 58.395 66.3893 58.395C66.6099 58.395 66.8857 58.4501 67.1063 58.5053L67.4372 57.4021C67.2166 57.347 66.8857 57.347 66.6651 57.347ZM51.8278 57.8985C51.2763 57.5124 50.5041 57.347 49.6767 57.347C48.3529 57.347 47.4704 58.0089 47.4704 59.0568C47.4704 59.9394 48.1323 60.4358 49.2906 60.6012L49.8422 60.6564C50.4489 60.7667 50.7798 60.9322 50.7798 61.208C50.7798 61.5941 50.3386 61.8698 49.5664 61.8698C48.7942 61.8698 48.1875 61.5941 47.8014 61.3183L47.2498 62.2008C47.8565 62.642 48.6839 62.8627 49.5112 62.8627C51.0556 62.8627 51.9381 62.1456 51.9381 61.1528C51.9381 60.2151 51.2211 59.7187 50.118 59.5533L49.5664 59.4981C49.07 59.4429 48.6839 59.3326 48.6839 59.0017C48.6839 58.6156 49.07 58.395 49.6767 58.395C50.3386 58.395 51.0005 58.6707 51.3314 58.8362L51.8278 57.8985ZM82.6054 57.347C81.9435 57.347 81.5023 57.6779 81.2265 58.1192V57.4573H80.0682V62.7524H81.2265V59.7739C81.2265 58.8914 81.6126 58.395 82.3296 58.395C82.5503 58.395 82.826 58.4501 83.0467 58.5053L83.3776 57.4021C83.157 57.347 82.826 57.347 82.6054 57.347ZM67.8233 60.1048C67.8233 61.7044 68.9265 62.8627 70.6364 62.8627C71.4086 62.8627 71.9601 62.6972 72.5117 62.2559L71.9601 61.3183C71.5189 61.6492 71.0776 61.8147 70.5812 61.8147C69.6435 61.8147 68.9816 61.1528 68.9816 60.1048C68.9816 59.112 69.6435 58.4501 70.5812 58.395C71.0776 58.395 71.5189 58.5604 71.9601 58.8914L72.5117 57.9537C71.9601 57.5124 71.4086 57.347 70.6364 57.347C68.9265 57.347 67.8233 58.5053 67.8233 60.1048ZM78.5238 60.1048V57.4573H77.3655V58.1192C76.9794 57.6228 76.4278 57.347 75.7108 57.347C74.2216 57.347 73.0633 58.5053 73.0633 60.1048C73.0633 61.7044 74.2216 62.8627 75.7108 62.8627C76.483 62.8627 77.0346 62.5869 77.3655 62.0905V62.7524H78.5238V60.1048ZM74.2767 60.1048C74.2767 59.1672 74.8834 58.395 75.8763 58.395C76.8139 58.395 77.4758 59.112 77.4758 60.1048C77.4758 61.0425 76.8139 61.8147 75.8763 61.8147C74.8834 61.7595 74.2767 61.0425 74.2767 60.1048ZM60.4323 57.347C58.8879 57.347 57.7848 58.4501 57.7848 60.1048C57.7848 61.7595 58.8879 62.8627 60.4875 62.8627C61.2597 62.8627 62.0319 62.642 62.6386 62.1456L62.087 61.3183C61.6458 61.6492 61.0942 61.8698 60.5426 61.8698C59.8256 61.8698 59.1085 61.5389 58.9431 60.6012H62.8592V60.16C62.9144 58.4501 61.9216 57.347 60.4323 57.347ZM60.4323 58.3398C61.1494 58.3398 61.6458 58.7811 61.7561 59.6084H58.9982C59.1085 58.8914 59.605 58.3398 60.4323 58.3398ZM89.1691 60.1048V55.3613H88.0108V58.1192C87.6247 57.6228 87.0731 57.347 86.3561 57.347C84.8669 57.347 83.7086 58.5053 83.7086 60.1048C83.7086 61.7044 84.8669 62.8627 86.3561 62.8627C87.1283 62.8627 87.6799 62.5869 88.0108 62.0905V62.7524H89.1691V60.1048ZM84.922 60.1048C84.922 59.1672 85.5287 58.395 86.5216 58.395C87.4592 58.395 88.1211 59.112 88.1211 60.1048C88.1211 61.0425 87.4592 61.8147 86.5216 61.8147C85.5287 61.7595 84.922 61.0425 84.922 60.1048ZM46.2018 60.1048V57.4573H45.0435V58.1192C44.6574 57.6228 44.1058 57.347 43.3888 57.347C41.8996 57.347 40.7413 58.5053 40.7413 60.1048C40.7413 61.7044 41.8996 62.8627 43.3888 62.8627C44.161 62.8627 44.7126 62.5869 45.0435 62.0905V62.7524H46.2018V60.1048ZM41.8996 60.1048C41.8996 59.1672 42.5063 58.395 43.4991 58.395C44.4368 58.395 45.0987 59.112 45.0987 60.1048C45.0987 61.0425 44.4368 61.8147 43.4991 61.8147C42.5063 61.7595 41.8996 61.0425 41.8996 60.1048Z" fill="black"/>
<path d="M68.8161 17.248H51.4417V48.4669H68.8161V17.248Z" fill="#FF5F00"/>
<path d="M52.5449 32.8565C52.5449 26.5135 55.5233 20.8874 60.1014 17.2471C56.7368 14.5996 52.4897 13 47.8565 13C36.8803 13 28 21.8803 28 32.8565C28 43.8328 36.8803 52.713 47.8565 52.713C52.4897 52.713 56.7368 51.1135 60.1014 48.4659C55.5233 44.8807 52.5449 39.1996 52.5449 32.8565Z" fill="#EB001B"/>
<path d="M92.2579 32.8565C92.2579 43.8328 83.3776 52.713 72.4013 52.713C67.7682 52.713 63.5211 51.1135 60.1565 48.4659C64.7897 44.8256 67.713 39.1996 67.713 32.8565C67.713 26.5135 64.7345 20.8874 60.1565 17.2471C63.5211 14.5996 67.7682 13 72.4013 13C83.3776 13 92.2579 21.9354 92.2579 32.8565Z" fill="#F79E1B"/>
</g>
<defs>
<clipPath id="clip0">
<rect width="64.3216" height="50" fill="white" transform="translate(28 13)"/>
</clipPath>
</defs>
</svg>
