<svg width="200" height="25" viewBox="0 0 200 25" fill="none" xmlns="http://www.w3.org/2000/svg">
<line y1="24.5" x2="200" y2="24.5" stroke="#373A3C"/>
<path d="M3.346 12.384C4.102 12.384 4.69 12.2487 5.11 11.978C5.53 11.698 5.74 11.25 5.74 10.634C5.74 10.2793 5.67 9.98533 5.53 9.752C5.39933 9.50933 5.222 9.30867 4.998 9.15C4.774 8.982 4.51733 8.842 4.228 8.73C3.93867 8.60867 3.63533 8.48267 3.318 8.352C2.91667 8.19333 2.55733 8.03 2.24 7.862C1.92267 7.694 1.652 7.50733 1.428 7.302C1.204 7.08733 1.03133 6.84467 0.91 6.574C0.798 6.30333 0.742 5.986 0.742 5.622C0.742 4.79133 1.01733 4.16133 1.568 3.732C2.11867 3.30267 2.884 3.088 3.864 3.088C4.12533 3.088 4.382 3.10667 4.634 3.144C4.886 3.18133 5.11933 3.23267 5.334 3.298C5.558 3.354 5.75867 3.41933 5.936 3.494C6.12267 3.56867 6.27667 3.648 6.398 3.732L6.062 4.53C5.79133 4.34333 5.46 4.194 5.068 4.082C4.68533 3.97 4.27 3.914 3.822 3.914C3.514 3.914 3.22933 3.94667 2.968 4.012C2.716 4.068 2.49667 4.166 2.31 4.306C2.12333 4.43667 1.974 4.60467 1.862 4.81C1.75933 5.01533 1.708 5.26267 1.708 5.552C1.708 5.85067 1.764 6.10267 1.876 6.308C1.988 6.51333 2.142 6.69067 2.338 6.84C2.54333 6.98933 2.78133 7.12467 3.052 7.246C3.32267 7.36733 3.61667 7.49333 3.934 7.624C4.31667 7.78267 4.676 7.94133 5.012 8.1C5.35733 8.25867 5.656 8.44533 5.908 8.66C6.16 8.87467 6.36067 9.136 6.51 9.444C6.65933 9.752 6.734 10.13 6.734 10.578C6.734 11.4553 6.426 12.1133 5.81 12.552C5.20333 12.9907 4.37733 13.21 3.332 13.21C2.95867 13.21 2.618 13.1867 2.31 13.14C2.002 13.0933 1.72667 13.0373 1.484 12.972C1.24133 12.8973 1.036 12.8227 0.868 12.748C0.7 12.6733 0.569333 12.608 0.476 12.552L0.784 11.726C0.877333 11.782 1.00333 11.8473 1.162 11.922C1.32067 11.9967 1.50733 12.0713 1.722 12.146C1.93667 12.2113 2.17933 12.2673 2.45 12.314C2.72067 12.3607 3.01933 12.384 3.346 12.384ZM8.00242 9.374C8.00242 8.73933 8.09109 8.18867 8.26842 7.722C8.45509 7.246 8.69309 6.84933 8.98242 6.532C9.28109 6.21467 9.61709 5.98133 9.99042 5.832C10.3731 5.67333 10.7651 5.594 11.1664 5.594C12.0531 5.594 12.7578 5.88333 13.2804 6.462C13.8124 7.04067 14.0784 7.932 14.0784 9.136C14.0784 9.21067 14.0738 9.28533 14.0644 9.36C14.0644 9.43467 14.0598 9.50467 14.0504 9.57H8.96842C8.99642 10.4567 9.21576 11.138 9.62642 11.614C10.0371 12.09 10.6904 12.328 11.5864 12.328C12.0811 12.328 12.4731 12.2813 12.7624 12.188C13.0518 12.0947 13.2618 12.0153 13.3924 11.95L13.5604 12.734C13.4298 12.8087 13.1824 12.8973 12.8184 13C12.4638 13.1027 12.0438 13.154 11.5584 13.154C10.9238 13.154 10.3824 13.0607 9.93442 12.874C9.48642 12.6873 9.11776 12.426 8.82842 12.09C8.53909 11.754 8.32909 11.3573 8.19842 10.9C8.06776 10.4333 8.00242 9.92467 8.00242 9.374ZM13.1404 8.8C13.1218 8.044 12.9444 7.456 12.6084 7.036C12.2724 6.616 11.7964 6.406 11.1804 6.406C10.8538 6.406 10.5598 6.47133 10.2984 6.602C10.0464 6.73267 9.82242 6.91 9.62642 7.134C9.43976 7.34867 9.29042 7.60067 9.17842 7.89C9.07576 8.17933 9.01509 8.48267 8.99642 8.8H13.1404ZM18.3883 12.342C18.743 12.342 19.051 12.3327 19.3123 12.314C19.583 12.286 19.8117 12.2533 19.9983 12.216V9.668C19.8957 9.62133 19.7323 9.57467 19.5083 9.528C19.2843 9.472 18.9763 9.444 18.5843 9.444C18.3603 9.444 18.127 9.46267 17.8843 9.5C17.6417 9.528 17.4177 9.598 17.2123 9.71C17.007 9.81267 16.839 9.95733 16.7083 10.144C16.5777 10.3307 16.5123 10.578 16.5123 10.886C16.5123 11.1567 16.5543 11.3853 16.6383 11.572C16.7317 11.7587 16.8577 11.908 17.0163 12.02C17.1843 12.132 17.3803 12.216 17.6043 12.272C17.8377 12.3187 18.099 12.342 18.3883 12.342ZM18.3043 5.594C18.7803 5.594 19.1817 5.664 19.5083 5.804C19.8443 5.93467 20.115 6.12133 20.3203 6.364C20.5257 6.59733 20.675 6.87733 20.7683 7.204C20.8617 7.53067 20.9083 7.88533 20.9083 8.268V12.832C20.815 12.86 20.6797 12.8927 20.5023 12.93C20.325 12.958 20.1197 12.9907 19.8863 13.028C19.653 13.0653 19.3917 13.0933 19.1023 13.112C18.8223 13.14 18.533 13.154 18.2343 13.154C17.8517 13.154 17.497 13.112 17.1703 13.028C16.853 12.944 16.573 12.8133 16.3303 12.636C16.097 12.4493 15.9103 12.216 15.7703 11.936C15.6397 11.6467 15.5743 11.2967 15.5743 10.886C15.5743 10.494 15.649 10.158 15.7983 9.878C15.9477 9.598 16.1577 9.36933 16.4283 9.192C16.699 9.00533 17.021 8.87 17.3943 8.786C17.7677 8.702 18.1737 8.66 18.6123 8.66C18.743 8.66 18.8783 8.66933 19.0183 8.688C19.1677 8.69733 19.3077 8.716 19.4383 8.744C19.5783 8.76267 19.695 8.786 19.7883 8.814C19.891 8.83267 19.961 8.85133 19.9983 8.87V8.422C19.9983 8.17 19.9797 7.92733 19.9423 7.694C19.905 7.45133 19.821 7.23667 19.6903 7.05C19.569 6.854 19.3917 6.7 19.1583 6.588C18.9343 6.46667 18.6357 6.406 18.2623 6.406C17.7303 6.406 17.3337 6.44333 17.0723 6.518C16.811 6.59267 16.6197 6.65333 16.4983 6.7L16.3723 5.902C16.531 5.82733 16.7737 5.75733 17.1003 5.692C17.4363 5.62667 17.8377 5.594 18.3043 5.594ZM25.6934 5.622C25.9921 5.622 26.2721 5.64533 26.5334 5.692C26.8041 5.73867 26.9907 5.78533 27.0934 5.832L26.9114 6.616C26.8367 6.57867 26.6827 6.54133 26.4494 6.504C26.2254 6.45733 25.9267 6.434 25.5534 6.434C25.1614 6.434 24.8441 6.462 24.6014 6.518C24.3681 6.574 24.2141 6.62067 24.1394 6.658V13H23.2294V6.098C23.4627 5.99533 23.7847 5.89267 24.1954 5.79C24.6061 5.678 25.1054 5.622 25.6934 5.622ZM31.4617 13.154C30.9017 13.154 30.4071 13.0653 29.9777 12.888C29.5484 12.7107 29.1891 12.4587 28.8997 12.132C28.6197 11.796 28.4051 11.3993 28.2557 10.942C28.1064 10.4753 28.0317 9.962 28.0317 9.402C28.0317 8.83267 28.1064 8.31467 28.2557 7.848C28.4144 7.38133 28.6384 6.98 28.9277 6.644C29.2171 6.308 29.5671 6.05133 29.9777 5.874C30.3884 5.68733 30.8504 5.594 31.3637 5.594C31.7557 5.594 32.1197 5.62667 32.4557 5.692C32.8011 5.75733 33.0671 5.84133 33.2537 5.944L33.0157 6.728C32.8291 6.63467 32.6191 6.56 32.3857 6.504C32.1524 6.448 31.8397 6.42 31.4477 6.42C30.6451 6.42 30.0337 6.68133 29.6137 7.204C29.2031 7.71733 28.9977 8.45 28.9977 9.402C28.9977 9.83133 29.0444 10.228 29.1377 10.592C29.2311 10.9467 29.3804 11.2547 29.5857 11.516C29.8004 11.768 30.0711 11.9687 30.3977 12.118C30.7337 12.258 31.1397 12.328 31.6157 12.328C32.0077 12.328 32.3344 12.286 32.5957 12.202C32.8664 12.1087 33.0624 12.0293 33.1837 11.964L33.3797 12.748C33.2117 12.8413 32.9457 12.93 32.5817 13.014C32.2271 13.1073 31.8537 13.154 31.4617 13.154ZM34.9052 13V2.304L35.8152 2.136V5.972C36.1138 5.86 36.4172 5.776 36.7252 5.72C37.0332 5.65467 37.3412 5.622 37.6492 5.622C38.2092 5.622 38.6758 5.70133 39.0492 5.86C39.4225 6.01867 39.7212 6.24733 39.9452 6.546C40.1692 6.83533 40.3232 7.18533 40.4072 7.596C40.5005 8.00667 40.5472 8.45933 40.5472 8.954V13H39.6372V9.248C39.6372 8.73467 39.5998 8.30067 39.5252 7.946C39.4598 7.59133 39.3432 7.302 39.1752 7.078C39.0165 6.854 38.8018 6.69533 38.5312 6.602C38.2605 6.49933 37.9198 6.448 37.5092 6.448C37.3505 6.448 37.1778 6.462 36.9912 6.49C36.8138 6.518 36.6458 6.55067 36.4872 6.588C36.3285 6.616 36.1838 6.64867 36.0532 6.686C35.9318 6.72333 35.8525 6.75133 35.8152 6.77V13H34.9052Z" fill="#373A3C"/>
<path d="M185.25 14.25C188.564 14.25 191.25 11.5637 191.25 8.25C191.25 4.93629 188.564 2.25 185.25 2.25C181.936 2.25 179.25 4.93629 179.25 8.25C179.25 11.5637 181.936 14.25 185.25 14.25Z" stroke="#FF321A" stroke-linecap="round" stroke-linejoin="round"/>
<path d="M192.75 15.75L189.487 12.4875" stroke="#FF321A" stroke-linecap="round" stroke-linejoin="round"/>
</svg>
